<svg width="20" height="20" viewBox="0 0 20 20" fill="none" xmlns="http://www.w3.org/2000/svg">
<path fill-rule="evenodd" clip-rule="evenodd" d="M16.0001 4.00195H8.00008V6.00195H7.00008V4.00195C7.00008 3.44967 7.44779 3.00195 8.00008 3.00195H16.0001C16.5524 3.00195 17.0001 3.44967 17.0001 4.00195V12.002C17.0001 12.5542 16.5524 13.002 16.0001 13.002H14.0001V12.002H16.0001V4.00195ZM4 8H12V16H4V8ZM3 8C3 7.44772 3.44772 7 4 7H12C12.5523 7 13 7.44772 13 8V16C13 16.5523 12.5523 17 12 17H4C3.44772 17 3 16.5523 3 16V8Z" fill="#212124"/>
</svg>
