<svg width="20" height="20" viewBox="0 0 20 20" fill="none" xmlns="http://www.w3.org/2000/svg">
<path fill-rule="evenodd" clip-rule="evenodd" d="M16.375 6.375V7.625C16.375 7.835 16.21 8 16 8C15.79 8 15.625 7.835 15.625 7.625V6.375H14.375C14.165 6.375 14 6.21 14 6C14 5.79 14.165 5.625 14.375 5.625H15.625V4.375C15.625 4.165 15.79 4 16 4C16.21 4 16.375 4.165 16.375 4.375V5.625H17.625C17.835 5.625 18 5.79 18 6C18 6.21 17.835 6.375 17.625 6.375H16.375ZM8.48244 15.6041L9.21611 11.1221L5.60669 11.1271C5.31406 11.1271 5.15511 10.7861 5.34564 10.5651L10.9066 4.12011C11.1329 3.85811 11.5624 4.05811 11.5045 4.39911L10.7392 8.86411L14.3929 8.86011C14.6855 8.86011 14.8445 9.20111 14.6529 9.42211L9.08032 15.8801C8.85506 16.1411 8.42665 15.9431 8.48244 15.6041ZM16.375 15.625V14.375H17.625C17.835 14.375 18 14.21 18 14C18 13.79 17.835 13.625 17.625 13.625H16.375V12.375C16.375 12.165 16.21 12 16 12C15.79 12 15.625 12.165 15.625 12.375V13.625H14.375C14.165 13.625 14 13.79 14 14C14 14.21 14.165 14.375 14.375 14.375H15.625V15.625C15.625 15.835 15.79 16 16 16C16.21 16 16.375 15.835 16.375 15.625Z" fill="#212124"/>
</svg>
