<svg width="20" height="20" viewBox="0 0 20 20" fill="none" xmlns="http://www.w3.org/2000/svg">
<path fill-rule="evenodd" clip-rule="evenodd" d="M6.05824 3.61155L0.605957 5.51049L2.52023 7.16271C1.91825 8.75492 1.83913 10.4984 2.2957 12.1399C2.76023 13.8099 3.75422 15.2841 5.12828 16.3409C6.50234 17.3977 8.18227 17.9801 9.91561 18.0004C11.649 18.0208 13.3421 17.4781 14.7406 16.4538C16.1391 15.4296 17.1674 13.9791 17.6711 12.3204C18.1747 10.6617 18.1264 8.8844 17.5335 7.2555C16.9405 5.62659 15.835 4.23411 14.383 3.28729C14.1516 3.13646 13.8419 3.2017 13.691 3.43301C13.5402 3.66433 13.6054 3.97411 13.8368 4.12494C15.1074 4.95351 16.0749 6.17208 16.5938 7.59755C17.1127 9.02301 17.1549 10.5784 16.7142 12.0299C16.2735 13.4814 15.3736 14.7507 14.1497 15.6471C12.9259 16.5434 11.4442 17.0183 9.92736 17.0005C8.41049 16.9827 6.94038 16.4731 5.73793 15.5483C4.53548 14.6234 3.66564 13.3334 3.25913 11.8719C2.89267 10.5544 2.92056 9.16185 3.33413 7.86519L4.97663 9.28284L6.05824 3.61155ZM9.50389 10.6702L9.03924 13.5461C9.00391 13.7637 9.27523 13.8907 9.41789 13.7232L12.9471 9.57938C13.0685 9.43757 12.9678 9.21876 12.7825 9.21876L10.4685 9.22133L10.9532 6.35631C10.9899 6.1375 10.7179 6.00917 10.5745 6.17729L7.05263 10.3128C6.93196 10.4546 7.03263 10.6734 7.21796 10.6734L9.50389 10.6702Z" fill="#212124"/>
</svg>
