<svg width="20" height="20" viewBox="0 0 20 20" fill="none" xmlns="http://www.w3.org/2000/svg">
<path fill-rule="evenodd" clip-rule="evenodd" d="M15 14L17 14L17 5L3 5L3 14L5 14L5 16L15 16L15 14ZM17 15C17.5523 15 18 14.5523 18 14L18 5C18 4.44771 17.5523 4 17 4L3 4C2.44771 4 2 4.44772 2 5L2 14C2 14.5523 2.44772 15 3 15L4 15L4 16C4 16.5523 4.44772 17 5 17L15 17C15.5523 17 16 16.5523 16 16L16 15L17 15Z" fill="#212124"/>
<path d="M6 14.5C6 14.2239 6.22386 14 6.5 14H13.5C13.7761 14 14 14.2239 14 14.5C14 14.7761 13.7761 15 13.5 15H6.5C6.22386 15 6 14.7761 6 14.5Z" fill="#212124"/>
</svg>
