<?xml version="1.0" encoding="UTF-8"?>
<svg version="1.1" xmlns="http://www.w3.org/2000/svg" width="500" height="500">
<path d="M0 0 C9.15699292 7.927957 14.77850902 15.60532918 16.1484375 27.79296875 C16.80102947 38.83149246 14.37522688 48.73613191 7.359375 57.4296875 C1.03264864 64.19235437 -5.58073544 68.16380334 -14.6640625 69.98046875 C-14.6640625 78.23046875 -14.6640625 86.48046875 -14.6640625 94.98046875 C-11.6940625 94.98046875 -8.7240625 94.98046875 -5.6640625 94.98046875 C14.25576227 97.61502622 32.61008292 105.4802388 49.19921875 116.6328125 C51.38229438 118.12848872 51.38229438 118.12848872 54.3359375 118.98046875 C56.18093148 120.85664573 57.7042974 122.90784484 59.3359375 124.98046875 C62.81802823 122.15064286 66.15252755 119.37271061 68.9609375 115.85546875 C71.22064666 113.12003134 73.49748949 111.08903013 76.3359375 108.98046875 C75.93375 108.02140625 75.93375 108.02140625 75.5234375 107.04296875 C75.1315625 106.03234375 74.7396875 105.02171875 74.3359375 103.98046875 C74.07167969 103.40683594 73.80742187 102.83320313 73.53515625 102.2421875 C69.85499047 93.25979234 69.60607432 81.37087269 73.0859375 72.29296875 C78.02355636 62.07123146 85.68927004 53.71208507 96.55078125 49.83203125 C108.22449059 47.20574783 120.98587434 47.62234286 131.3359375 53.98046875 C139.94343547 59.88987536 145.48428833 67.93415443 147.8671875 78.08984375 C149.75552866 89.73461421 148.06749989 100.17455131 141.1171875 109.81640625 C134.63672842 117.68959557 126.69778194 123.8788963 116.31591797 125.24658203 C107.85636895 125.93948144 100.36120314 125.39377566 92.53515625 121.85546875 C90.11098118 120.73401357 90.11098118 120.73401357 86.3359375 120.98046875 C83.59557852 122.88793242 81.36042964 125.35338694 79.0234375 127.73046875 C78.36537109 128.3646875 77.70730469 128.99890625 77.02929688 129.65234375 C76.41248047 130.27109375 75.79566406 130.88984375 75.16015625 131.52734375 C74.59385498 132.09291992 74.02755371 132.65849609 73.4440918 133.24121094 C72.1186513 134.92737777 72.1186513 134.92737777 72.53417969 137.02709961 C73.76464784 140.02496066 75.85340377 142.3203165 77.8984375 144.79296875 C93.39416755 164.3128053 99.77584273 187.56110329 102.3359375 211.98046875 C109.9259375 211.65046875 117.5159375 211.32046875 125.3359375 210.98046875 C125.9753125 209.20671875 126.6146875 207.43296875 127.2734375 205.60546875 C131.47187139 195.5765337 138.72829956 188.05116655 148.3359375 182.98046875 C158.5921412 178.99194509 169.65497127 179.21994104 179.93359375 182.9140625 C189.88738507 187.36019186 196.72746923 194.889781 201.2421875 204.734375 C204.89280097 215.56887426 203.85492169 226.72273965 199.2734375 237.04296875 C193.89427897 247.04631619 185.61951615 253.29572583 174.9375 256.7578125 C163.70168991 259.53949364 153.45721305 257.63928915 143.5078125 251.99609375 C133.59977948 245.69985602 129.58736495 237.60903736 125.3359375 226.98046875 C117.7459375 226.98046875 110.1559375 226.98046875 102.3359375 226.98046875 C101.995625 230.38359375 101.995625 230.38359375 101.6484375 233.85546875 C98.90034303 257.15137521 89.64738043 277.96191977 75.19140625 296.31640625 C73.0323976 299.41296841 73.0323976 299.41296841 72.3359375 302.98046875 C73.58349886 304.91983598 73.58349886 304.91983598 75.51953125 306.65234375 C76.19951172 307.31621094 76.87949219 307.98007812 77.58007812 308.6640625 C78.30388672 309.34597656 79.02769531 310.02789062 79.7734375 310.73046875 C80.49337891 311.42785156 81.21332031 312.12523437 81.95507812 312.84375 C83.73805211 314.56768511 85.53161576 316.27893484 87.3359375 317.98046875 C88.06554687 317.61953125 88.79515625 317.25859375 89.546875 316.88671875 C100.88914232 311.84571105 113.15798993 310.55158162 124.9609375 315.04296875 C134.94521675 319.95236573 142.44664894 327.89490996 146.7109375 338.16796875 C150.25074263 348.95098857 148.85114647 359.69434181 144.3359375 369.98046875 C138.89426024 379.25669579 130.62096217 385.94554344 120.3359375 388.98046875 C109.24083844 391.63364461 98.17977017 389.91501532 88.28515625 384.2265625 C85.84347847 382.5722999 83.51051519 380.97342257 81.3359375 378.98046875 C81.3359375 378.32046875 81.3359375 377.66046875 81.3359375 376.98046875 C80.6759375 376.98046875 80.0159375 376.98046875 79.3359375 376.98046875 C78.18511065 374.73290091 77.04016892 372.48265127 75.8984375 370.23046875 C75.41020508 369.27914062 75.41020508 369.27914062 74.91210938 368.30859375 C70.34629053 359.27109665 69.48757288 348.58829619 72.453125 338.81640625 C73.58192122 335.45188291 74.96351134 332.27429153 76.3359375 328.98046875 C71.0559375 323.70046875 65.7759375 318.42046875 60.3359375 312.98046875 C55.1219934 316.88413547 55.1219934 316.88413547 49.9296875 320.81640625 C38.59089811 329.15126263 25.69082552 334.73928007 12.3359375 338.98046875 C11.42714844 339.27695312 10.51835937 339.5734375 9.58203125 339.87890625 C1.61951121 342.27596891 -6.42044441 343.06451118 -14.6640625 343.98046875 C-14.3340625 351.90046875 -14.0040625 359.82046875 -13.6640625 367.98046875 C-10.0340625 369.30046875 -6.4040625 370.62046875 -2.6640625 371.98046875 C6.38164797 378.17506288 12.85682221 386.27752965 15.3359375 396.98046875 C17.38756738 408.40855585 15.80918565 419.20744289 9.3359375 428.98046875 C2.41465257 437.55684356 -6.02272588 442.97308037 -16.9609375 444.76171875 C-31.1592987 445.91071908 -41.15839787 441.4641843 -51.9140625 432.54296875 C-54.9226645 429.84264854 -56.62078585 427.96388868 -57.6640625 423.98046875 C-57.90640625 423.36945313 -58.14875 422.7584375 -58.3984375 422.12890625 C-62.05329191 412.64697264 -63.08304089 401.67020012 -59.6640625 391.98046875 C-54.61311429 381.13335046 -46.90129138 373.25171562 -35.6640625 368.98046875 C-34.0140625 368.65046875 -32.3640625 368.32046875 -30.6640625 367.98046875 C-30.6640625 360.06046875 -30.6640625 352.14046875 -30.6640625 343.98046875 C-34.0053125 343.67109375 -34.0053125 343.67109375 -37.4140625 343.35546875 C-61.45291447 340.61609905 -87.34035153 330.19020793 -104.6640625 312.98046875 C-110.69737612 317.96451043 -116.1824796 323.39962178 -121.6640625 328.98046875 C-120.2975968 332.43526098 -120.2975968 332.43526098 -118.8125 335.83984375 C-114.96058883 345.25562662 -115.09242467 357.09181163 -118.7265625 366.54296875 C-123.3215935 375.97827118 -130.9706486 383.92975429 -140.8515625 387.79296875 C-151.29979014 391.04733474 -161.3300569 390.86082658 -171.6640625 386.98046875 C-175.27428731 384.94689288 -178.47095554 382.61389829 -181.6640625 379.98046875 C-182.5921875 379.21734375 -183.5203125 378.45421875 -184.4765625 377.66796875 C-188.49912545 372.72596284 -191.6640625 367.42209951 -191.6640625 360.98046875 C-192.3240625 360.65046875 -192.9840625 360.32046875 -193.6640625 359.98046875 C-193.98847851 348.48172348 -194.01561439 335.26854222 -186.1640625 326.04296875 C-183.6640625 323.98046875 -183.6640625 323.98046875 -180.6640625 322.98046875 C-180.6640625 322.32046875 -180.6640625 321.66046875 -180.6640625 320.98046875 C-178.3944465 319.83216898 -176.12345472 318.68674897 -173.8515625 317.54296875 C-173.20896484 317.21748047 -172.56636719 316.89199219 -171.90429688 316.55664062 C-166.01504837 313.59675925 -161.51004583 312.77272248 -154.9765625 312.73046875 C-153.80963867 312.69953125 -153.80963867 312.69953125 -152.61914062 312.66796875 C-146.94935973 312.63013869 -142.86880357 313.73053193 -137.6640625 315.98046875 C-136.6740625 316.37234375 -135.6840625 316.76421875 -134.6640625 317.16796875 C-134.0040625 317.43609375 -133.3440625 317.70421875 -132.6640625 317.98046875 C-132.0865625 317.23796875 -131.5090625 316.49546875 -130.9140625 315.73046875 C-128.93251584 313.30857838 -126.98892993 311.07284944 -124.6640625 308.98046875 C-124.0040625 308.98046875 -123.3440625 308.98046875 -122.6640625 308.98046875 C-122.6640625 308.32046875 -122.6640625 307.66046875 -122.6640625 306.98046875 C-120.70479187 305.26610695 -118.70526038 303.59641707 -116.6640625 301.98046875 C-118.58982365 299.54117129 -120.46496845 297.1795628 -122.6640625 294.98046875 C-137.02134866 274.72505423 -146.6640625 250.91373952 -146.6640625 225.98046875 C-154.9140625 225.98046875 -163.1640625 225.98046875 -171.6640625 225.98046875 C-172.3240625 228.95046875 -172.9840625 231.92046875 -173.6640625 234.98046875 C-175.27341102 238.29881585 -177.38272136 241.08900149 -179.6640625 243.98046875 C-180.15648437 244.61082031 -180.64890625 245.24117187 -181.15625 245.890625 C-187.59215196 253.1750414 -196.80080431 257.01073415 -206.3515625 257.98046875 C-218.67511597 258.3503233 -228.90979902 254.70764198 -238.0390625 246.23046875 C-244.90926123 238.90884012 -247.82534525 230.8187162 -247.6640625 220.98046875 C-248.3240625 220.65046875 -248.9840625 220.32046875 -249.6640625 219.98046875 C-249.6640625 218.99046875 -249.6640625 218.00046875 -249.6640625 216.98046875 C-249.0040625 216.98046875 -248.3440625 216.98046875 -247.6640625 216.98046875 C-247.7878125 215.30984375 -247.7878125 215.30984375 -247.9140625 213.60546875 C-247.82299551 203.24204531 -241.7010475 195.12613306 -234.6640625 187.98046875 C-234.0040625 187.98046875 -233.3440625 187.98046875 -232.6640625 187.98046875 C-232.3340625 187.32046875 -232.0040625 186.66046875 -231.6640625 185.98046875 C-230.6740625 185.98046875 -229.6840625 185.98046875 -228.6640625 185.98046875 C-228.3340625 184.99046875 -228.0040625 184.00046875 -227.6640625 182.98046875 C-214.58979273 179.48648286 -201.14654869 178.33146155 -188.90625 185.37890625 C-179.32066351 192.22575374 -174.94131046 200.28734885 -170.6640625 210.98046875 C-159.2790625 211.47546875 -159.2790625 211.47546875 -147.6640625 211.98046875 C-147.3546875 208.42265625 -147.3546875 208.42265625 -147.0390625 204.79296875 C-145.21642366 188.04252159 -139.92577528 172.60044075 -131.6640625 157.98046875 C-131.02855469 156.84480469 -130.39304687 155.70914063 -129.73828125 154.5390625 C-121.87866261 140.82259743 -121.87866261 140.82259743 -116.6640625 135.98046875 C-117.19515625 135.5215625 -117.72625 135.06265625 -118.2734375 134.58984375 C-126.38648243 127.54274633 -126.38648243 127.54274633 -128.6640625 124.98046875 C-128.6640625 124.32046875 -128.6640625 123.66046875 -128.6640625 122.98046875 C-129.3240625 122.98046875 -129.9840625 122.98046875 -130.6640625 122.98046875 C-132.2890625 121.48046875 -132.2890625 121.48046875 -133.6640625 119.98046875 C-134.40527344 120.34140625 -135.14648438 120.70234375 -135.91015625 121.07421875 C-146.13026129 125.57756981 -156.27094084 126.99977177 -167.16796875 124.0234375 C-170.14083501 122.85140637 -172.87758977 121.5405468 -175.6640625 119.98046875 C-176.33824219 119.61953125 -177.01242188 119.25859375 -177.70703125 118.88671875 C-182.43175174 115.96636171 -185.17449331 111.78033751 -188.18359375 107.1875 C-189.61346914 104.90218403 -189.61346914 104.90218403 -191.6640625 102.98046875 C-191.7890625 99.85546875 -191.7890625 99.85546875 -191.6640625 96.98046875 C-192.6540625 96.48546875 -192.6540625 96.48546875 -193.6640625 95.98046875 C-194.22322268 81.98075454 -193.05681282 70.87846752 -183.6640625 59.98046875 C-181.74113425 58.04326133 -179.89940321 56.59752373 -177.6640625 54.98046875 C-176.6740625 54.25859375 -175.6840625 53.53671875 -174.6640625 52.79296875 C-165.20033687 47.07530118 -153.73575878 46.87998304 -143.171875 49.23828125 C-133.85369565 51.99599788 -125.78483883 58.42251472 -121.0234375 66.90234375 C-115.98700495 77.8435593 -114.50404697 89.42291023 -118.38623047 101.02246094 C-119.41692084 103.69979725 -120.55077489 106.33641068 -121.6640625 108.98046875 C-116.3840625 114.26046875 -111.1040625 119.54046875 -105.6640625 124.98046875 C-104.3440625 123.66046875 -103.0240625 122.34046875 -101.6640625 120.98046875 C-101.0040625 120.98046875 -100.3440625 120.98046875 -99.6640625 120.98046875 C-99.3340625 120.32046875 -99.0040625 119.66046875 -98.6640625 118.98046875 C-79.07612001 104.39789587 -55.64075148 96.76464711 -31.6640625 93.98046875 C-30.67762612 88.85763109 -30.35439197 83.80297946 -30.1015625 78.60546875 C-30.05837891 77.77402344 -30.01519531 76.94257812 -29.97070312 76.0859375 C-29.86544445 74.05093647 -29.76433178 72.01572172 -29.6640625 69.98046875 C-30.9634375 69.77421875 -32.2628125 69.56796875 -33.6015625 69.35546875 C-39.20562606 68.09060174 -43.20185267 65.52328899 -47.6640625 61.98046875 C-48.37949219 61.41457031 -49.09492188 60.84867187 -49.83203125 60.265625 C-56.81888024 54.06528809 -59.56300809 46.14695481 -61.4765625 37.16796875 C-61.5384375 36.11609375 -61.6003125 35.06421875 -61.6640625 33.98046875 C-61.7465625 32.70171875 -61.8290625 31.42296875 -61.9140625 30.10546875 C-61.8409774 25.37320845 -60.4265572 21.33306435 -58.6640625 16.98046875 C-58.40882813 16.31015625 -58.15359375 15.63984375 -57.890625 14.94921875 C-54.10089938 6.18765125 -46.81458502 -0.25020278 -38.1875 -4.0859375 C-25.57935682 -8.75056013 -10.97764552 -8.32176354 0 0 Z M-42.25390625 17.78515625 C-46.2621029 24.0250635 -47.32030372 29.92206839 -46.36328125 37.26953125 C-44.357115 45.04762835 -39.30821047 49.89176231 -32.6640625 53.98046875 C-27.71207919 56.4564604 -20.0887016 55.71031437 -14.6640625 54.98046875 C-8.46535645 52.7526759 -4.12982561 48.10253705 -0.76171875 42.5390625 C1.80000112 36.56779376 2.2718921 29.88003244 0.2734375 23.66796875 C-3.06383528 16.48687286 -7.89645791 12.1105197 -15.08984375 8.86328125 C-25.32505539 5.35317832 -35.74419226 9.44410428 -42.25390625 17.78515625 Z M-172.6640625 69.98046875 C-177.75832216 76.51650001 -179.49503861 82.67070766 -178.6640625 90.98046875 C-177.13560684 97.76784811 -173.53133783 103.23595077 -167.84765625 107.26953125 C-161.97957458 110.56514075 -155.66614606 111.88976128 -149.05078125 110.38671875 C-142.04022416 107.91866223 -136.91452779 104.13414653 -133.34765625 97.55078125 C-130.56762985 91.17706218 -129.55466807 86.14224287 -131.9140625 79.41796875 C-135.63989127 72.09937652 -139.43250057 67.88907704 -146.6640625 63.98046875 C-156.21583213 60.88309879 -165.01249566 63.8259476 -172.6640625 69.98046875 Z M89.5234375 73.0390625 C85.88475131 78.98783565 84.69607893 84.65244981 85.703125 91.5625 C87.55595304 98.64213306 92.34898824 103.96422362 98.3359375 107.98046875 C104.23827057 111.34971721 109.78928743 111.61459381 116.3359375 109.98046875 C123.21281217 107.40025651 127.72808056 103.35231101 131.3359375 96.98046875 C133.66320613 91.16229717 134.46726286 85.00464619 132.75390625 78.91015625 C129.80125149 72.03411092 123.98685892 66.84476905 117.3984375 63.48046875 C106.33842783 61.67475289 96.63233062 63.68844456 89.5234375 73.0390625 Z M-108.6640625 149.98046875 C-125.92887057 171.54589688 -135.15221939 200.5690146 -132.453125 228.13476562 C-131.07743285 240.401354 -129.07429339 257.39380675 -120.6640625 266.98046875 C-120.22835937 266.24441406 -119.79265625 265.50835937 -119.34375 264.75 C-114.24321677 256.39263279 -109.29450626 250.21425546 -99.6640625 246.98046875 C-96.91393928 246.48095091 -94.17598087 246.02428052 -91.4140625 245.60546875 C-78.77973324 243.62361318 -68.81903845 237.99803418 -59.6640625 228.98046875 C-59.1690625 227.49546875 -59.1690625 227.49546875 -58.6640625 225.98046875 C-58.0040625 225.98046875 -57.3440625 225.98046875 -56.6640625 225.98046875 C-58.11537005 222.66106788 -59.97036197 220.45271672 -62.4765625 217.85546875 C-73.61120019 205.52855588 -74.55473528 191.33814267 -73.85498047 175.42089844 C-72.98832502 164.34278097 -67.0142935 156.33459921 -60.2265625 147.98046875 C-58.45884782 146.14079272 -58.45884782 146.14079272 -58.6640625 143.98046875 C-58.07882813 143.86316406 -57.49359375 143.74585938 -56.890625 143.625 C-54.54720646 142.946642 -53.04137548 142.0440264 -51.0390625 140.66796875 C-38.66879399 132.69087971 -24.28078961 131.0288645 -9.9453125 133.6640625 C5.26889326 138.02909058 15.58667759 146.7580923 23.66796875 160.1953125 C29.75693529 171.71189715 30.00364124 186.04498789 27.6484375 198.6640625 C24.51779058 208.69517699 19.14742607 217.00097304 11.3359375 223.98046875 C14.57926324 231.83929649 23.81890811 238.34412375 31.3359375 241.98046875 C36.7410444 244.11823987 42.0864324 245.11904565 47.8359375 245.85546875 C57.19682212 247.22105662 63.89774897 250.49202391 69.86328125 257.91015625 C71.94105251 260.83116094 73.68008407 263.80123017 75.3359375 266.98046875 C85.88871206 254.95156204 88.00638331 230.98119613 87.62890625 215.6484375 C85.00629405 182.81333276 71.54336188 154.67279668 46.3359375 132.98046875 C-1.88247247 94.91964223 -69.03794381 104.75691247 -108.6640625 149.98046875 Z M-52.6640625 160.98046875 C-58.53622188 169.54504975 -61.75927133 178.5325242 -60.6640625 188.98046875 C-58.44201569 200.65088265 -52.31996381 210.09248643 -42.6640625 216.98046875 C-33.68334769 222.01843071 -23.72601453 223.47425313 -13.6015625 221.29296875 C-8.66553964 219.8870745 -4.16734386 217.39821407 0.3359375 214.98046875 C0.3359375 214.32046875 0.3359375 213.66046875 0.3359375 212.98046875 C0.9340625 212.72394531 1.5321875 212.46742188 2.1484375 212.203125 C9.20080176 208.26135712 12.86640109 198.87892344 15.0859375 191.48046875 C16.22644789 180.07536482 14.32223855 170.53186138 7.2734375 161.265625 C0.28145018 153.01902705 -7.64858351 147.84337267 -18.5703125 146.5 C-32.46499648 145.73640926 -43.49590628 150.42566969 -52.6640625 160.98046875 Z M-228.6640625 203.98046875 C-233.07939792 210.16193834 -234.68236004 216.47783972 -233.6640625 223.98046875 C-231.06806145 231.72190686 -226.87513663 237.29597602 -219.6015625 241.04296875 C-213.62258054 243.43456153 -207.88627415 243.56969164 -201.6640625 241.98046875 C-194.62358768 238.87470199 -190.12261511 233.77405424 -186.6640625 226.98046875 C-184.72592861 220.81153041 -185.14458059 214.82937665 -187.625 208.9296875 C-190.92821057 202.73306317 -195.3826197 198.94987807 -201.6640625 195.98046875 C-212.10971946 192.84677166 -221.47911571 196.13902936 -228.6640625 203.98046875 Z M145.3359375 203.98046875 C141.02210051 210.01984054 139.61033038 215.60346302 140.3359375 222.98046875 C141.85382264 229.73377128 145.49660994 235.23809192 151.140625 239.26953125 C157.29264346 242.93961951 163.33500068 244.10448884 170.38671875 242.51953125 C177.26362927 240.24948312 182.39795661 236.27592417 185.7109375 229.79296875 C188.29567016 224.09531894 189.51283538 218.76700977 187.6171875 212.66796875 C184.29434532 204.73602289 180.10273636 199.79326092 172.3359375 195.98046875 C162.36742307 192.12168897 152.14272917 196.55173673 145.3359375 203.98046875 Z M-46.171875 234.44921875 C-46.70554688 235.11953125 -47.23921875 235.78984375 -47.7890625 236.48046875 C-57.5694033 248.03349631 -69.3448618 256.22058294 -84.53515625 258.390625 C-92.48227987 259.57128382 -99.44276656 260.6638106 -104.5390625 267.35546875 C-107.99599195 272.86786977 -108.93191287 277.22024158 -108.24609375 283.63671875 C-104.6736621 298.02234955 -87.83483128 307.97408397 -76.0390625 315.10546875 C-60.90649608 323.74485715 -43.21004663 328.77387104 -25.78857422 328.05859375 C-23.33185434 327.96825241 -20.87597557 327.92896918 -18.41796875 327.88671875 C11.52336937 327.18829524 35.00097906 315.66397808 56.3359375 294.98046875 C57.07070313 294.29984375 57.80546875 293.61921875 58.5625 292.91796875 C61.94714712 289.2202045 63.13374919 284.65027345 63.5078125 279.7109375 C63.19754455 273.38368756 60.56267108 268.61774599 56.3359375 263.98046875 C51.27725361 259.75469165 44.76134533 259.25504258 38.47436523 258.18286133 C22.85018566 255.40260976 10.78067457 246.6882903 0.3359375 234.98046875 C-0.1590625 233.99046875 -0.1590625 233.99046875 -0.6640625 232.98046875 C-1.53417969 233.17962891 -1.53417969 233.17962891 -2.421875 233.3828125 C-3.20304687 233.55941406 -3.98421875 233.73601562 -4.7890625 233.91796875 C-5.93761719 234.17900391 -5.93761719 234.17900391 -7.109375 234.4453125 C-18.10818878 236.74934536 -28.40649507 236.80270767 -39.23828125 233.63671875 C-43.02377118 232.53419682 -43.02377118 232.53419682 -46.171875 234.44921875 Z M-173.6640625 335.98046875 C-178.79834362 343.19031033 -179.41255248 349.83460015 -178.1640625 358.41796875 C-175.30777994 365.20163984 -170.18901629 370.57970791 -163.6640625 373.98046875 C-157.37109844 376.04609817 -150.63308502 375.60072935 -144.578125 373.01953125 C-137.79124957 369.33522744 -133.61832262 364.19182907 -130.9140625 356.98046875 C-129.92083973 349.03468659 -131.44860685 342.46675435 -136.13671875 335.92578125 C-141.14162931 330.41209727 -147.39998509 327.58962267 -154.7265625 326.54296875 C-162.40135322 327.68602269 -168.41818044 330.12143164 -173.6640625 335.98046875 Z M90.8125 335.9375 C86.38648668 342.06132266 84.53555451 348.09915163 85.734375 355.59765625 C87.5854381 362.92978931 91.08967825 367.73248312 97.3359375 371.98046875 C102.98217007 375.17644945 107.99178273 375.70932796 114.3359375 374.98046875 C121.22427991 372.96147184 126.87637996 368.44672891 131.015625 362.61328125 C133.97034633 356.72132215 134.09564827 349.4540568 132.2734375 343.16796875 C129.57292516 336.45318131 125.18683051 331.61726607 118.53125 328.70703125 C107.988094 325.21765934 98.3157264 327.5986062 90.8125 335.9375 Z M-40.6640625 389.98046875 C-45.05364766 395.1414909 -46.84874087 400.2166236 -46.6640625 406.98046875 C-46.09568469 413.91941455 -43.57560967 419.04742684 -38.6640625 423.98046875 C-32.02019219 429.04186712 -26.02392569 431.00919307 -17.6640625 429.98046875 C-9.94063185 427.45876299 -4.54969534 423.06080825 -0.5546875 416.02734375 C2.21443132 409.66322857 1.79720386 402.36615059 -0.6640625 395.98046875 C-3.92096428 390.05397534 -8.36908928 385.56989036 -14.6640625 382.98046875 C-24.85826342 380.51308254 -33.13481024 382.72471497 -40.6640625 389.98046875 Z " fill="#ffffff" transform="translate(272.6640625,31.01953125)"/>
<path d="M0 0 C0.66 0.33 1.32 0.66 2 1 C1.34 2.32 0.68 3.64 0 5 C-0.66 5 -1.32 5 -2 5 C-2.28875 5.5775 -2.5775 6.155 -2.875 6.75 C-3.91666667 8.83333333 -4.95833333 10.91666667 -6 13 C-6.99 12.67 -7.98 12.34 -9 12 C-7.32598022 8.04322598 -4.86850715 5.15535787 -2 2 C-1.34 2 -0.68 2 0 2 C0 1.34 0 0.68 0 0 Z " fill="#ffffff" transform="translate(40,217)"/>
<path d="M0 0 C0.66 0.33 1.32 0.66 2 1 C-0.41337795 5.82675589 -3.86062408 8.69984002 -8 12 C-8.66 11.67 -9.32 11.34 -10 11 C-7.50727561 7.79506864 -5.02318663 4.72086797 -2 2 C-1.34 2 -0.68 2 0 2 C0 1.34 0 0.68 0 0 Z " fill="#ffffff" transform="translate(150,338)"/>
<path d="M0 0 C0.66 0.99 1.32 1.98 2 3 C-1.3 5.64 -4.6 8.28 -8 11 C-8.66 10.67 -9.32 10.34 -10 10 C-6.92118304 6.12948725 -3.99926986 2.97088618 0 0 Z " fill="#ffffff" transform="translate(349,140)"/>
<path d="M0 0 C0.99 0.33 1.98 0.66 3 1 C2.50628906 1.39832031 2.01257813 1.79664063 1.50390625 2.20703125 C0.86324219 2.73683594 0.22257813 3.26664062 -0.4375 3.8125 C-1.07558594 4.33457031 -1.71367187 4.85664063 -2.37109375 5.39453125 C-4.2548275 7.00834411 -4.2548275 7.00834411 -5 10 C-5.66 10 -6.32 10 -7 10 C-5.6062718 5.56541027 -3.39417765 3.12621626 0 0 Z " fill="#ffffff" transform="translate(224,408)"/>
<path d="M0 0 C0.66 0.33 1.32 0.66 2 1 C-1.12621626 4.39417765 -3.56541027 6.6062718 -8 8 C-7.67 7.01 -7.34 6.02 -7 5 C-6.34 5 -5.68 5 -5 5 C-5 4.34 -5 3.68 -5 3 C-2.625 1.3125 -2.625 1.3125 0 0 Z " fill="#ffffff" transform="translate(97,349)"/>
<path d="M0 0 C-1.10699901 3.21029714 -2.01603825 4.00968977 -5 5.8125 C-5.99 6.204375 -6.98 6.59625 -8 7 C-8.66 6.67 -9.32 6.34 -10 6 C-8.71283353 4.99421411 -7.42011342 3.99553202 -6.125 3 C-5.40570313 2.443125 -4.68640625 1.88625 -3.9453125 1.3125 C-2 0 -2 0 0 0 Z " fill="#ffffff" transform="translate(185,144)"/>
<path d="M0 0 C0.33 0.99 0.66 1.98 1 3 C-0.62339805 4.70884005 -2.29319053 6.37446717 -4 8 C-4.66 8 -5.32 8 -6 8 C-4.55746343 4.63408134 -2.66735273 2.48952921 0 0 Z " fill="#ffffff" transform="translate(411,221)"/>
<path d="M0 0 C0.33 0.99 0.66 1.98 1 3 C-0.65 4.32 -2.3 5.64 -4 7 C-4.33 6.34 -4.66 5.68 -5 5 C-3.35 3.35 -1.7 1.7 0 0 Z " fill="#ffffff" transform="translate(156,168)"/>
<path d="M0 0 C0.99 0.33 1.98 0.66 3 1 C1.37660195 2.70884005 -0.29319053 4.37446717 -2 6 C-2.66 6 -3.32 6 -4 6 C-2.84826645 3.53199953 -1.95216435 1.95216435 0 0 Z " fill="#ffffff" transform="translate(222,36)"/>
<path d="" fill="#FFFFFF" transform="translate(0,0)"/>
<path d="" fill="#FFFFFF" transform="translate(0,0)"/>
<path d="" fill="#FFFFFF" transform="translate(0,0)"/>
<path d="" fill="#FFFFFF" transform="translate(0,0)"/>
<path d="" fill="#FFFFFF" transform="translate(0,0)"/>
<path d="" fill="#FFFFFF" transform="translate(0,0)"/>
<path d="" fill="#FFFFFF" transform="translate(0,0)"/>
<path d="" fill="#FFFFFF" transform="translate(0,0)"/>
<path d="" fill="#FFFFFF" transform="translate(0,0)"/>
</svg>
