<svg width="49" height="49" viewBox="0 0 49 49" fill="none" xmlns="http://www.w3.org/2000/svg">
<path fill-rule="evenodd" clip-rule="evenodd" d="M24.6106 5.65491C23.9478 5.65491 23.4106 6.19217 23.4106 6.85491V9.25491C23.4106 9.91765 23.9478 10.4549 24.6106 10.4549C25.2733 10.4549 25.8106 9.91765 25.8106 9.25491V6.85491C25.8106 6.19217 25.2733 5.65491 24.6106 5.65491ZM34.1997 34.4452V24.8549C34.1997 19.5584 29.9059 15.2647 24.6094 15.2647C19.3128 15.2647 15.0191 19.5584 15.0191 24.8549V34.4452H34.1997ZM24.6094 12.8549C17.982 12.8549 12.6094 18.2275 12.6094 24.8549V34.6731C12.6094 35.8781 13.5862 36.8549 14.7912 36.8549H34.4276C35.6325 36.8549 36.6094 35.8781 36.6094 34.6731V24.8549C36.6094 18.2275 31.2368 12.8549 24.6094 12.8549ZM7.81055 42.8548C7.81055 42.192 8.3478 41.6548 9.01055 41.6548H40.2105C40.8733 41.6548 41.4105 42.192 41.4105 42.8548C41.4105 43.5175 40.8733 44.0548 40.2105 44.0548H9.01055C8.34781 44.0548 7.81055 43.5175 7.81055 42.8548ZM42.6094 23.6548C43.2721 23.6548 43.8094 24.1921 43.8094 24.8548C43.8094 25.5176 43.2721 26.0548 42.6094 26.0548H40.2094C39.5466 26.0548 39.0094 25.5176 39.0094 24.8548C39.0094 24.1921 39.5466 23.6548 40.2094 23.6548H42.6094ZM5.41055 24.8548C5.41055 25.5176 5.9478 26.0548 6.61055 26.0548H9.01055C9.67329 26.0548 10.2105 25.5176 10.2105 24.8548C10.2105 24.1921 9.67329 23.6548 9.01055 23.6548H6.61055C5.9478 23.6548 5.41055 24.1921 5.41055 24.8548ZM36.4921 11.2799C36.9607 10.8113 37.7205 10.8113 38.1892 11.2799C38.6578 11.7486 38.6578 12.5083 38.1892 12.977L36.4921 14.674C36.0235 15.1427 35.2637 15.1427 34.795 14.674C34.3264 14.2054 34.3264 13.4456 34.795 12.977L36.4921 11.2799ZM11.0321 11.2798C10.5635 11.7485 10.5635 12.5083 11.0321 12.9769L12.7292 14.674C13.1978 15.1426 13.9576 15.1426 14.4262 14.674C14.8949 14.2053 14.8949 13.4455 14.4262 12.9769L12.7292 11.2798C12.2606 10.8112 11.5008 10.8112 11.0321 11.2798Z" fill="#696969"/>
</svg>
