<svg xmlns="http://www.w3.org/2000/svg" xmlns:xlink="http://www.w3.org/1999/xlink" width="500" zoomAndPan="magnify" viewBox="0 0 375 374.999991" height="500" preserveAspectRatio="xMidYMid meet" version="1.0"><defs><clipPath id="b8fdc3cfac"><path d="M 38 12 L 328.5 12 L 328.5 374.886719 L 38 374.886719 Z M 38 12 " clip-rule="nonzero"/></clipPath><clipPath id="ac5765c1e5"><path d="M 93.535156 265.089844 L 134.910156 265.089844 L 134.910156 306.464844 L 93.535156 306.464844 Z M 93.535156 265.089844 " clip-rule="nonzero"/></clipPath><clipPath id="f37f476bae"><path d="M 114.222656 265.089844 C 102.796875 265.089844 93.535156 274.351562 93.535156 285.777344 C 93.535156 297.203125 102.796875 306.464844 114.222656 306.464844 C 125.648438 306.464844 134.910156 297.203125 134.910156 285.777344 C 134.910156 274.351562 125.648438 265.089844 114.222656 265.089844 Z M 114.222656 265.089844 " clip-rule="nonzero"/></clipPath></defs><g clip-path="url(#b8fdc3cfac)"><path fill="#000000" d="M 141.339844 12.042969 C 132.78125 12.042969 125.839844 18.984375 125.839844 27.542969 C 125.839844 35.261719 131.515625 41.8125 139.160156 42.898438 L 169.285156 47.199219 L 169.285156 71.042969 C 112.007812 78.804688 65.953125 131.851562 55.664062 200.304688 L 53.429688 200.304688 C 52.46875 200.289062 51.519531 200.371094 50.574219 200.546875 C 49.632812 200.722656 48.714844 200.988281 47.824219 201.347656 C 46.933594 201.703125 46.089844 202.148438 45.285156 202.671875 C 44.484375 203.199219 43.738281 203.796875 43.058594 204.472656 C 42.375 205.144531 41.761719 205.878906 41.226562 206.675781 C 40.6875 207.46875 40.234375 208.3125 39.863281 209.195312 C 39.492188 210.082031 39.214844 210.996094 39.027344 211.933594 C 38.835938 212.875 38.742188 213.824219 38.742188 214.785156 C 38.742188 215.746094 38.835938 216.695312 39.027344 217.636719 C 39.214844 218.578125 39.492188 219.488281 39.863281 220.375 C 40.234375 221.261719 40.6875 222.101562 41.226562 222.894531 C 41.761719 223.691406 42.375 224.425781 43.058594 225.097656 C 43.738281 225.773438 44.484375 226.371094 45.285156 226.898438 C 46.089844 227.425781 46.933594 227.867188 47.824219 228.222656 C 48.714844 228.582031 49.632812 228.847656 50.574219 229.023438 C 51.519531 229.199219 52.46875 229.28125 53.429688 229.265625 L 314.101562 229.265625 C 315.058594 229.28125 316.011719 229.199219 316.953125 229.023438 C 317.898438 228.847656 318.816406 228.582031 319.707031 228.222656 C 320.59375 227.867188 321.441406 227.425781 322.246094 226.898438 C 323.046875 226.371094 323.789062 225.773438 324.472656 225.097656 C 325.15625 224.425781 325.765625 223.691406 326.304688 222.894531 C 326.839844 222.101562 327.296875 221.261719 327.664062 220.375 C 328.035156 219.488281 328.316406 218.578125 328.503906 217.636719 C 328.695312 216.695312 328.789062 215.746094 328.789062 214.785156 C 328.789062 213.824219 328.695312 212.875 328.503906 211.933594 C 328.316406 210.996094 328.035156 210.082031 327.664062 209.195312 C 327.296875 208.3125 326.839844 207.46875 326.304688 206.675781 C 325.765625 205.878906 325.15625 205.144531 324.472656 204.472656 C 323.789062 203.796875 323.046875 203.199219 322.246094 202.671875 C 321.441406 202.148438 320.59375 201.703125 319.707031 201.347656 C 318.816406 200.988281 317.898438 200.722656 316.953125 200.546875 C 316.011719 200.371094 315.058594 200.289062 314.101562 200.304688 L 311.867188 200.304688 C 301.578125 131.851562 255.523438 78.804688 198.246094 71.042969 L 198.246094 51.328125 L 328.695312 69.96875 L 328.695312 12.042969 Z M 67.910156 258.230469 L 67.910156 272.710938 C 67.910156 315.5625 91.242188 352.910156 125.839844 372.953125 L 125.839844 345.121094 C 125.839844 313.128906 151.773438 287.195312 183.765625 287.195312 C 215.753906 287.195312 241.691406 313.128906 241.691406 345.121094 L 241.691406 372.953125 C 276.289062 352.910156 299.617188 315.5625 299.617188 272.710938 L 299.617188 258.230469 Z M 183.792969 316.15625 C 167.792969 316.15625 154.828125 329.117188 154.828125 345.121094 C 154.828125 361.121094 167.792969 374.085938 183.792969 374.085938 C 199.796875 374.085938 212.757812 361.121094 212.757812 345.121094 C 212.757812 341.007812 211.859375 337.113281 210.324219 333.582031 C 208.339844 336.160156 205.34375 337.9375 201.839844 337.9375 C 195.828125 337.9375 190.976562 333.058594 190.976562 327.046875 C 190.976562 323.542969 192.742188 320.589844 195.304688 318.589844 C 191.773438 317.039062 187.890625 316.15625 183.792969 316.15625 Z M 183.792969 316.15625 " fill-opacity="1" fill-rule="evenodd"/></g><g clip-path="url(#ac5765c1e5)"><g clip-path="url(#f37f476bae)"><path fill="#000000" d="M 93.535156 265.089844 L 134.910156 265.089844 L 134.910156 306.464844 L 93.535156 306.464844 Z M 93.535156 265.089844 " fill-opacity="1" fill-rule="nonzero"/></g></g></svg>