<?xml version="1.0" encoding="UTF-8"?>
<svg version="1.1" xmlns="http://www.w3.org/2000/svg" width="500" height="500">
<path d="M0 0 C5.07022572 4.69330246 7.51676542 9.08401747 8.203125 16.06640625 C8.16297969 21.99787565 5.89417893 26.48001475 3.0625 31.5625 C-23.19042451 78.69722041 -28.21560879 135.27777345 -14.18017578 187.02246094 C-9.53446665 203.16295178 -2.5933503 218.05863089 5 233 C7.34561064 237.69122128 6.64194318 244.38017782 5.421875 249.359375 C2.95499659 255.14532618 -1.57172131 258.11091613 -7 261 C-12.19281164 262.73093721 -16.51318114 262.48706135 -21.625 260.8125 C-29.12339676 256.78558322 -32.47550884 252.26298088 -36.25 244.8125 C-36.71817139 243.89976318 -37.18634277 242.98702637 -37.66870117 242.04663086 C-52.94162555 211.48794555 -63.01886051 176.72756324 -63.203125 142.390625 C-63.21013931 141.50959106 -63.21715363 140.62855713 -63.22438049 139.7208252 C-63.24176964 136.89716407 -63.24823181 134.07371269 -63.25 131.25 C-63.25067474 130.2846936 -63.25134949 129.31938721 -63.25204468 128.3248291 C-63.23647007 114.3158373 -62.78742719 100.76703704 -60 87 C-59.83371094 86.10120117 -59.66742188 85.20240234 -59.49609375 84.27636719 C-55.32772739 61.77490802 -48.00572562 40.55422515 -38 20 C-37.65437012 19.27361328 -37.30874023 18.54722656 -36.95263672 17.79882812 C-32.54043926 8.58966084 -28.32170425 0.75856185 -18.5625 -3.5 C-11.84867499 -4.44229123 -5.74343828 -3.82895886 0 0 Z " fill="#ffffff" transform="translate(63,121)"/>
<path d="M0 0 C6.3274586 5.94894273 9.87553839 13.02313488 13.5 20.8125 C13.78135803 21.4101416 14.06271606 22.0077832 14.3526001 22.62353516 C25.90451736 47.17391327 33.77649509 72.99370253 37 100 C37.0928125 100.67764404 37.185625 101.35528809 37.28125 102.0534668 C40.10420125 125.21426953 39.63804081 151.16817105 35 174 C34.80132324 174.98210449 34.60264648 175.96420898 34.39794922 176.97607422 C29.89983513 198.46257126 23.31308172 218.84992672 13.8125 238.625 C13.51263184 239.25273315 13.21276367 239.88046631 12.90380859 240.52722168 C4.4077369 258.19016876 4.4077369 258.19016876 -4.8125 261.6875 C-12.81728303 262.83104043 -18.27774448 261.63165715 -25 257 C-30.35350209 251.41426836 -31.47828294 245.85334965 -31.40625 238.35742188 C-30.68062803 232.3605749 -27.82834609 227.50939165 -25 222.25 C-23.79107234 219.8666011 -22.59041368 217.48149305 -21.40625 215.0859375 C-21.11028931 214.48874908 -20.81432861 213.89156067 -20.50939941 213.27627563 C2.59320489 166.02467767 1.40960886 108.67695635 -15.3125 59.75 C-18.4819646 50.76606257 -22.53751556 42.40107133 -27 34 C-27.98583305 32.08675363 -28.96601541 30.17057183 -29.9375 28.25 C-30.50791016 27.14398438 -30.50791016 27.14398438 -31.08984375 26.015625 C-33.32290494 21.07030495 -33.87765886 16.03479629 -32.3515625 10.7578125 C-30.11784194 5.08759877 -27.18722057 1.24612535 -22 -2 C-14.64825124 -5.1313004 -6.65369703 -4.48401322 0 0 Z " fill="#ffffff" transform="translate(462,121)"/>
<path d="M0 0 C5.74752214 3.35467619 8.45182881 8.08601998 10.5625 14.3125 C11.87794475 23.32507419 7.09015147 30.29441678 2.75 37.8125 C-14.57616507 68.51562252 -20.12883008 104.94926814 -11.1875 139.25 C-7.74140382 151.61232801 -2.87654217 163.06086586 3.40332031 174.24072266 C7.61475427 181.84542213 10.57202092 188.35482731 8.35546875 197.01953125 C6.28631925 203.00273695 3.04951962 206.30001864 -2.4375 209.3125 C-8.99646804 211.86320979 -13.99457159 211.50698537 -20.5 209.25 C-39.68586524 196.59549314 -48.880063 164.33565487 -53.37109375 143.01171875 C-61.7007455 101.10480492 -55.47206652 59.3290889 -36 21.4375 C-35.55760986 20.56931641 -35.11521973 19.70113281 -34.65942383 18.80664062 C-30.62843626 11.15648426 -26.00220561 2.40560294 -17.671875 -1.09765625 C-11.64659441 -2.68824606 -5.70415252 -2.6024532 0 0 Z " fill="#ffffff" transform="translate(127.4375,145.6875)"/>
<path d="M0 0 C8.07872887 4.90277789 12.57207497 14.28940355 16.75 22.4375 C17.26763916 23.44345215 17.78527832 24.4494043 18.31860352 25.48583984 C30.89849901 50.41729913 37.20511803 77.26367197 37.0625 105.1875 C37.06067719 105.9316214 37.05885437 106.6757428 37.05697632 107.44241333 C37.00795081 119.3655129 36.33587222 130.89654417 33.75 142.5625 C33.58902832 143.3241748 33.42805664 144.08584961 33.26220703 144.87060547 C29.51081232 162.17170634 22.87033215 178.59487732 14.1875 194 C13.7651709 194.76248047 13.3428418 195.52496094 12.90771484 196.31054688 C9.10106873 202.77678901 4.26439257 208.02894688 -2.6875 211.0625 C-10.44456157 212.1512104 -15.90303086 211.03430733 -22.30078125 206.3671875 C-26.36300133 202.60617412 -27.76101993 198.35542693 -29.1875 193.125 C-29.33235804 184.86809157 -24.919856 177.82955096 -21 170.8125 C-4.07696118 139.44275988 0.62107311 102.16533185 -9.55029297 67.75341797 C-13.46520151 55.49508257 -18.68529993 44.08233597 -25.26953125 33.04296875 C-28.67887507 27.22717329 -31.55016329 21.47193918 -30.25 14.5625 C-27.8148916 7.48445158 -24.72629562 3.28037341 -18.25 -0.4375 C-12.42902923 -2.37782359 -5.691914 -2.45053049 0 0 Z " fill="#ffffff" transform="translate(392.25,145.4375)"/>
<path d="M0 0 C4.89872999 2.85759249 7.79346527 7.1303958 9.5625 12.4375 C10.20463939 19.6378827 10.22732969 25.59666283 5.5625 31.4375 C4.96824219 32.14777344 4.37398437 32.85804688 3.76171875 33.58984375 C-9.29146018 49.22831249 -13.85471405 65.74455657 -12.69628906 85.86035156 C-11.28050603 99.95941357 -4.2918933 112.57911396 4.828125 123.1484375 C8.90177434 128.52492064 9.36010018 133.8971785 8.5625 140.4375 C6.52671632 147.10006478 2.62410385 150.93873067 -3.234375 154.54296875 C-8.51602545 156.68746867 -15.31700834 156.39559264 -20.71484375 154.73828125 C-35.73789224 146.47406848 -45.47989777 124.93488651 -50.4375 109.4375 C-57.75749358 84.03281642 -56.12745389 57.57610557 -45.4375 33.4375 C-45.00824219 32.44492188 -44.57898438 31.45234375 -44.13671875 30.4296875 C-38.71020581 18.72064831 -30.2872226 7.09660234 -19.75 -0.5 C-13.3329011 -2.55831474 -6.24881866 -2.75090309 0 0 Z " fill="#ffffff" transform="translate(196.4375,173.5625)"/>
<path d="M0 0 C14.86422861 10.37623688 23.80792645 27.85821943 29.5 44.5625 C29.74645264 45.28203857 29.99290527 46.00157715 30.24682617 46.74291992 C36.67169096 66.45723887 36.41667332 88.76191997 30.25 108.5 C30.04101074 109.1820752 29.83202148 109.86415039 29.61669922 110.56689453 C25.34966204 124.06479566 18.56272072 135.85207743 9.5625 146.75 C9.12333252 147.28713623 8.68416504 147.82427246 8.23168945 148.37768555 C4.44131061 152.76896947 0.84341794 155.14678602 -4.93359375 155.93359375 C-12.64999264 155.94285713 -17.51938812 155.6398749 -23.20703125 150.07421875 C-28.00767096 144.72019118 -29.24754816 140.06698417 -29.05078125 133.03515625 C-28.26467039 126.4093647 -24.29052113 121.83903737 -20.3125 116.6875 C-16.12948087 111.22003986 -13.15086637 105.93997098 -10.75 99.5 C-10.27240234 98.33210938 -10.27240234 98.33210938 -9.78515625 97.140625 C-4.66212669 82.31453024 -6.57399053 64.65659602 -12.75 50.5 C-16.11540669 43.60930981 -20.10505473 37.87088343 -25.23828125 32.20703125 C-29.96734533 26.86697698 -30.40462658 21.69632094 -30.22265625 14.765625 C-29.35965433 8.80306627 -26.60737467 4.83669751 -21.9921875 1.0625 C-15.72018665 -2.71644612 -6.58716521 -3.37648743 0 0 Z " fill="#ffffff" transform="translate(323.75,173.5)"/>
<path d="M0 0 C7.97619494 4.76316941 13.15305638 10.87914459 15.9921875 19.765625 C18.35884215 29.69934651 16.83898109 37.60417009 12.00390625 46.55078125 C7.31412624 53.79490767 0.63207052 58.40744761 -7.7890625 60.3203125 C-16.57609289 61.23093424 -24.1778071 61.0327802 -31.7890625 56.3203125 C-32.41167969 55.9696875 -33.03429687 55.6190625 -33.67578125 55.2578125 C-39.80365499 51.42955298 -43.34604344 45.66549305 -46.1640625 39.1328125 C-47.73488426 29.55079979 -47.92860169 20.77350195 -42.7890625 12.3203125 C-42.4384375 11.69640625 -42.0878125 11.0725 -41.7265625 10.4296875 C-33.14677306 -3.27414286 -14.11878207 -6.70759414 0 0 Z " fill="#ffffff" transform="translate(262.7890625,222.6796875)"/>
</svg>
