<svg width="49" height="49" viewBox="0 0 49 49" fill="none" xmlns="http://www.w3.org/2000/svg">
<g clip-path="url(#clip0_82_424)">
<path fill-rule="evenodd" clip-rule="evenodd" d="M35.3577 13.8862C36.4799 15.0085 36.4799 16.8279 35.3577 17.9501C34.2355 19.0723 32.416 19.0723 31.2938 17.9501C30.1716 16.8279 30.1716 15.0085 31.2938 13.8862C32.416 12.764 34.2355 12.764 35.3577 13.8862ZM17.5382 31.7034C18.6604 32.8256 18.6604 34.6451 17.5382 35.7673C16.416 36.8895 14.5965 36.8895 13.4743 35.7673C12.3521 34.6451 12.3521 32.8256 13.4743 31.7034C14.5965 30.5812 16.416 30.5812 17.5382 31.7034ZM37.0593 12.1847C39.1213 14.2466 39.1213 17.5897 37.0593 19.6517C35.2881 21.4229 32.5717 21.6727 30.5339 20.4011L19.99 30.9449C21.2606 32.9826 21.0105 35.6981 19.2398 37.4689C17.1778 39.5309 13.8347 39.5309 11.7727 37.4689C9.71075 35.4069 9.71075 32.0638 11.7727 30.0019C13.5421 28.2324 16.255 27.9814 18.2921 29.2487L28.8382 18.7026C27.5719 16.6657 27.8232 13.9537 29.5922 12.1847C31.6542 10.1227 34.9973 10.1227 37.0593 12.1847Z" fill="#696969"/>
</g>
<defs>
<clipPath id="clip0_82_424">
<rect width="48" height="48" fill="white" transform="translate(0.359375 0.854858)"/>
</clipPath>
</defs>
</svg>
