<svg width="49" height="49" viewBox="0 0 49 49" fill="none" xmlns="http://www.w3.org/2000/svg">
<path fill-rule="evenodd" clip-rule="evenodd" d="M24.7967 7.40879C25.1279 7.40879 25.3967 7.67759 25.3967 8.00879C25.3967 8.33999 25.1279 8.60879 24.7967 8.60879C24.4655 8.60879 24.1967 8.33999 24.1967 8.00879C24.1967 7.67759 24.4655 7.40879 24.7967 7.40879ZM24.7967 5.00879C23.1407 5.00879 21.7967 6.35279 21.7967 8.00879C21.7967 9.66479 23.1407 11.0088 24.7967 11.0088C26.4527 11.0088 27.7967 9.66479 27.7967 8.00879C27.7967 6.35279 26.4527 5.00879 24.7967 5.00879ZM24.7967 39.8088C25.1279 39.8088 25.3967 40.0776 25.3967 40.4088C25.3967 40.74 25.1279 41.0088 24.7967 41.0088C24.4655 41.0088 24.1967 40.74 24.1967 40.4088C24.1967 40.0776 24.4655 39.8088 24.7967 39.8088ZM24.7967 37.4088C23.1407 37.4088 21.7967 38.7528 21.7967 40.4088C21.7967 42.0648 23.1407 43.4088 24.7967 43.4088C26.4527 43.4088 27.7967 42.0648 27.7967 40.4088C27.7967 38.7528 26.4527 37.4088 24.7967 37.4088ZM11.0659 15.5904C10.9723 15.5352 10.8715 15.5088 10.7683 15.5088C10.6867 15.5088 10.4083 15.5304 10.2475 15.8088C10.1443 15.9864 10.1587 16.1544 10.1875 16.2648C10.2163 16.3752 10.2883 16.5264 10.4659 16.6296C10.5595 16.6848 10.6603 16.7112 10.7635 16.7112C10.8451 16.7112 11.1259 16.6896 11.2867 16.4112C11.4499 16.1232 11.3515 15.756 11.0659 15.5904ZM8.16667 14.6088C8.72347 13.6464 9.73147 13.1088 10.7683 13.1088C11.2771 13.1088 11.7931 13.2384 12.2659 13.512C13.7011 14.3424 14.1931 16.176 13.3651 17.6112C12.8083 18.5736 11.8003 19.1112 10.7635 19.1112C10.2547 19.1112 9.73867 18.9816 9.26587 18.708C7.83067 17.8776 7.33867 16.044 8.16667 14.6088ZM38.83 31.7088C38.9332 31.7088 39.034 31.7352 39.1276 31.7904C39.3052 31.8936 39.3772 32.0448 39.406 32.1552C39.4348 32.2656 39.4492 32.4336 39.346 32.6112C39.1852 32.8896 38.9044 32.9112 38.8228 32.9112C38.7196 32.9112 38.6188 32.8848 38.5252 32.8296C38.2396 32.664 38.1412 32.2968 38.3044 32.0088C38.4676 31.7304 38.7484 31.7088 38.83 31.7088ZM38.83 29.3088C37.7932 29.3088 36.7852 29.8464 36.2284 30.8088C35.4004 32.244 35.8924 34.0776 37.3276 34.908C37.8004 35.1816 38.3164 35.3112 38.8252 35.3112C39.862 35.3112 40.87 34.7736 41.4268 33.8112C42.2548 32.376 41.7628 30.5424 40.3276 29.712C39.8548 29.4384 39.3388 29.3088 38.83 29.3088ZM11.2867 32.0088C11.1259 31.7304 10.8451 31.7088 10.7635 31.7088C10.6603 31.7088 10.5595 31.7352 10.4635 31.7904C10.1779 31.956 10.0795 32.3256 10.2451 32.6112C10.4059 32.8896 10.6867 32.9112 10.7683 32.9112C10.8739 32.9112 10.9723 32.8824 11.0659 32.8296C11.2459 32.7264 11.3179 32.5752 11.3467 32.4648C11.3755 32.3544 11.3899 32.1864 11.2867 32.0088ZM9.26587 29.712C9.73867 29.4384 10.2547 29.3088 10.7635 29.3088C11.8003 29.3088 12.8083 29.8464 13.3651 30.8088C14.1931 32.244 13.7011 34.08 12.2659 34.908C11.7931 35.1816 11.2771 35.3112 10.7683 35.3112C9.73147 35.3112 8.72347 34.7736 8.16667 33.8112C7.33867 32.376 7.83067 30.54 9.26587 29.712ZM38.8252 15.5088C38.9068 15.5088 39.1876 15.5304 39.3484 15.8088C39.514 16.0944 39.4156 16.464 39.13 16.6296C39.0364 16.6824 38.938 16.7112 38.8324 16.7112C38.7508 16.7112 38.47 16.6896 38.3092 16.4112C38.206 16.2336 38.2204 16.0656 38.2492 15.9552C38.278 15.8448 38.35 15.6936 38.5276 15.5904C38.6188 15.5352 38.7196 15.5088 38.8252 15.5088ZM38.8228 13.1088C38.314 13.1088 37.798 13.2384 37.3252 13.512C35.89 14.34 35.398 16.176 36.226 17.6112C36.7828 18.5736 37.7908 19.1112 38.8276 19.1112C39.3364 19.1112 39.8524 18.9816 40.3252 18.708C41.7604 17.88 42.2524 16.044 41.4244 14.6088C40.87 13.6464 39.8596 13.1088 38.8228 13.1088ZM31.5458 21.6984C31.8386 22.4784 31.997 23.3256 31.997 24.2088C31.997 25.092 31.8386 25.9392 31.5458 26.7192L33.7106 27.9696C34.2842 28.3008 34.481 29.0352 34.1498 29.6088C33.8186 30.1824 33.0842 30.3792 32.5106 30.048L30.3458 28.7976C29.2658 30.1008 27.737 31.0176 25.997 31.3056V33.8088C25.997 34.4712 25.4594 35.0088 24.797 35.0088C24.1346 35.0088 23.597 34.4712 23.597 33.8088V31.3056C21.857 31.0176 20.3282 30.1008 19.2482 28.7976L17.0834 30.048C16.5098 30.3792 15.7754 30.1824 15.4442 29.6088C15.113 29.0352 15.3098 28.3008 15.8834 27.9696L18.0482 26.7192C17.7554 25.9392 17.597 25.092 17.597 24.2088C17.597 23.3256 17.7554 22.4784 18.0482 21.6984L15.8834 20.448C15.3098 20.1168 15.113 19.3824 15.4442 18.8088C15.7754 18.2352 16.5098 18.0384 17.0834 18.3696L19.2482 19.62C20.3282 18.3168 21.857 17.4 23.597 17.112V14.6088C23.597 13.9464 24.1346 13.4088 24.797 13.4088C25.4594 13.4088 25.997 13.9464 25.997 14.6088V17.112C27.737 17.4 29.2658 18.3168 30.3458 19.62L32.5106 18.3696C33.0842 18.0384 33.8186 18.2352 34.1498 18.8088C34.481 19.3824 34.2842 20.1168 33.7106 20.448L31.5458 21.6984ZM28.901 26.6976L28.9994 26.5296C29.381 25.8408 29.597 25.0512 29.597 24.2088C29.597 23.3664 29.381 22.5768 28.9994 21.888L28.901 21.72C28.0586 20.3352 26.5346 19.4088 24.797 19.4088C23.0594 19.4088 21.5354 20.3352 20.693 21.72C20.657 21.78 20.621 21.84 20.5874 21.9024C20.2106 22.5888 19.997 23.3712 19.997 24.2088C19.997 25.056 20.2154 25.848 20.5994 26.5392L20.693 26.6976C21.5354 28.0824 23.0594 29.0088 24.797 29.0088C26.5346 29.0088 28.0586 28.0824 28.901 26.6976Z" fill="#696969"/>
</svg>
