<svg xmlns="http://www.w3.org/2000/svg" xmlns:xlink="http://www.w3.org/1999/xlink" width="500" zoomAndPan="magnify" viewBox="0 0 375 374.999991" height="500" preserveAspectRatio="xMidYMid meet" version="1.0"><defs><clipPath id="9bf792c59d"><path d="M 166.8125 187.5 L 208.1875 187.5 L 208.1875 228.878906 L 166.8125 228.878906 Z M 166.8125 187.5 " clip-rule="nonzero"/></clipPath><clipPath id="b0ef5c5cde"><path d="M 187.5 187.5 C 176.074219 187.5 166.8125 196.761719 166.8125 208.1875 C 166.8125 219.613281 176.074219 228.878906 187.5 228.878906 C 198.925781 228.878906 208.1875 219.613281 208.1875 208.1875 C 208.1875 196.761719 198.925781 187.5 187.5 187.5 Z M 187.5 187.5 " clip-rule="nonzero"/></clipPath></defs><path fill="#ffffff" d="M 154.511719 202.851562 C 154.511719 203.933594 154.566406 205.007812 154.671875 206.085938 C 154.777344 207.160156 154.933594 208.226562 155.144531 209.289062 C 155.355469 210.347656 155.617188 211.394531 155.933594 212.425781 C 156.246094 213.460938 156.609375 214.476562 157.023438 215.476562 C 157.4375 216.472656 157.898438 217.449219 158.40625 218.402344 C 158.917969 219.355469 159.472656 220.28125 160.070312 221.179688 C 160.671875 222.078125 161.3125 222.945312 162 223.777344 C 162.683594 224.613281 163.410156 225.414062 164.171875 226.179688 C 164.9375 226.941406 165.738281 227.667969 166.574219 228.351562 C 167.40625 229.039062 168.273438 229.679688 169.171875 230.28125 C 170.070312 230.878906 170.996094 231.433594 171.949219 231.945312 C 172.902344 232.453125 173.878906 232.914062 174.875 233.328125 C 175.875 233.742188 176.890625 234.105469 177.925781 234.417969 C 178.957031 234.734375 180.003906 234.996094 181.0625 235.207031 C 182.125 235.417969 183.191406 235.574219 184.265625 235.679688 C 185.339844 235.785156 186.417969 235.839844 187.5 235.839844 C 188.582031 235.839844 189.660156 235.785156 190.734375 235.679688 C 191.808594 235.574219 192.875 235.417969 193.9375 235.207031 C 194.996094 234.996094 196.042969 234.734375 197.074219 234.417969 C 198.109375 234.105469 199.125 233.742188 200.125 233.328125 C 201.121094 232.914062 202.097656 232.453125 203.050781 231.945312 C 204.003906 231.433594 204.929688 230.878906 205.828125 230.28125 C 206.726562 229.679688 207.59375 229.039062 208.425781 228.351562 C 209.261719 227.667969 210.0625 226.941406 210.828125 226.179688 C 211.589844 225.414062 212.316406 224.613281 213 223.777344 C 213.6875 222.945312 214.328125 222.078125 214.929688 221.179688 C 215.527344 220.28125 216.082031 219.355469 216.59375 218.402344 C 217.101562 217.449219 217.5625 216.472656 217.976562 215.476562 C 218.390625 214.476562 218.753906 213.460938 219.066406 212.425781 C 219.382812 211.394531 219.644531 210.347656 219.855469 209.289062 C 220.066406 208.226562 220.222656 207.160156 220.328125 206.085938 C 220.433594 205.007812 220.488281 203.933594 220.488281 202.851562 C 218.847656 159.199219 156.152344 159.140625 154.511719 202.851562 Z M 154.511719 202.851562 C 154.511719 203.933594 154.566406 205.007812 154.671875 206.085938 C 154.777344 207.160156 154.933594 208.226562 155.144531 209.289062 C 155.355469 210.347656 155.617188 211.394531 155.933594 212.425781 C 156.246094 213.460938 156.609375 214.476562 157.023438 215.476562 C 157.4375 216.472656 157.898438 217.449219 158.40625 218.402344 C 158.917969 219.355469 159.472656 220.28125 160.070312 221.179688 C 160.671875 222.078125 161.3125 222.945312 162 223.777344 C 162.683594 224.613281 163.410156 225.414062 164.171875 226.179688 C 164.9375 226.941406 165.738281 227.667969 166.574219 228.351562 C 167.40625 229.039062 168.273438 229.679688 169.171875 230.28125 C 170.070312 230.878906 170.996094 231.433594 171.949219 231.945312 C 172.902344 232.453125 173.878906 232.914062 174.875 233.328125 C 175.875 233.742188 176.890625 234.105469 177.925781 234.417969 C 178.957031 234.734375 180.003906 234.996094 181.0625 235.207031 C 182.125 235.417969 183.191406 235.574219 184.265625 235.679688 C 185.339844 235.785156 186.417969 235.839844 187.5 235.839844 C 188.582031 235.839844 189.660156 235.785156 190.734375 235.679688 C 191.808594 235.574219 192.875 235.417969 193.9375 235.207031 C 194.996094 234.996094 196.042969 234.734375 197.074219 234.417969 C 198.109375 234.105469 199.125 233.742188 200.125 233.328125 C 201.121094 232.914062 202.097656 232.453125 203.050781 231.945312 C 204.003906 231.433594 204.929688 230.878906 205.828125 230.28125 C 206.726562 229.679688 207.59375 229.039062 208.425781 228.351562 C 209.261719 227.667969 210.0625 226.941406 210.828125 226.179688 C 211.589844 225.414062 212.316406 224.613281 213 223.777344 C 213.6875 222.945312 214.328125 222.078125 214.929688 221.179688 C 215.527344 220.28125 216.082031 219.355469 216.59375 218.402344 C 217.101562 217.449219 217.5625 216.472656 217.976562 215.476562 C 218.390625 214.476562 218.753906 213.460938 219.066406 212.425781 C 219.382812 211.394531 219.644531 210.347656 219.855469 209.289062 C 220.066406 208.226562 220.222656 207.160156 220.328125 206.085938 C 220.433594 205.007812 220.488281 203.933594 220.488281 202.851562 C 218.847656 159.199219 156.152344 159.140625 154.511719 202.851562 Z M 154.511719 202.851562 C 154.511719 203.933594 154.566406 205.007812 154.671875 206.085938 C 154.777344 207.160156 154.933594 208.226562 155.144531 209.289062 C 155.355469 210.347656 155.617188 211.394531 155.933594 212.425781 C 156.246094 213.460938 156.609375 214.476562 157.023438 215.476562 C 157.4375 216.472656 157.898438 217.449219 158.40625 218.402344 C 158.917969 219.355469 159.472656 220.28125 160.070312 221.179688 C 160.671875 222.078125 161.3125 222.945312 162 223.777344 C 162.683594 224.613281 163.410156 225.414062 164.171875 226.179688 C 164.9375 226.941406 165.738281 227.667969 166.574219 228.351562 C 167.40625 229.039062 168.273438 229.679688 169.171875 230.28125 C 170.070312 230.878906 170.996094 231.433594 171.949219 231.945312 C 172.902344 232.453125 173.878906 232.914062 174.875 233.328125 C 175.875 233.742188 176.890625 234.105469 177.925781 234.417969 C 178.957031 234.734375 180.003906 234.996094 181.0625 235.207031 C 182.125 235.417969 183.191406 235.574219 184.265625 235.679688 C 185.339844 235.785156 186.417969 235.839844 187.5 235.839844 C 188.582031 235.839844 189.660156 235.785156 190.734375 235.679688 C 191.808594 235.574219 192.875 235.417969 193.9375 235.207031 C 194.996094 234.996094 196.042969 234.734375 197.074219 234.417969 C 198.109375 234.105469 199.125 233.742188 200.125 233.328125 C 201.121094 232.914062 202.097656 232.453125 203.050781 231.945312 C 204.003906 231.433594 204.929688 230.878906 205.828125 230.28125 C 206.726562 229.679688 207.59375 229.039062 208.425781 228.351562 C 209.261719 227.667969 210.0625 226.941406 210.828125 226.179688 C 211.589844 225.414062 212.316406 224.613281 213 223.777344 C 213.6875 222.945312 214.328125 222.078125 214.929688 221.179688 C 215.527344 220.28125 216.082031 219.355469 216.59375 218.402344 C 217.101562 217.449219 217.5625 216.472656 217.976562 215.476562 C 218.390625 214.476562 218.753906 213.460938 219.066406 212.425781 C 219.382812 211.394531 219.644531 210.347656 219.855469 209.289062 C 220.066406 208.226562 220.222656 207.160156 220.328125 206.085938 C 220.433594 205.007812 220.488281 203.933594 220.488281 202.851562 C 218.847656 159.199219 156.152344 159.140625 154.511719 202.851562 Z M 154.511719 202.851562 C 154.511719 203.933594 154.566406 205.007812 154.671875 206.085938 C 154.777344 207.160156 154.933594 208.226562 155.144531 209.289062 C 155.355469 210.347656 155.617188 211.394531 155.933594 212.425781 C 156.246094 213.460938 156.609375 214.476562 157.023438 215.476562 C 157.4375 216.472656 157.898438 217.449219 158.40625 218.402344 C 158.917969 219.355469 159.472656 220.28125 160.070312 221.179688 C 160.671875 222.078125 161.3125 222.945312 162 223.777344 C 162.683594 224.613281 163.410156 225.414062 164.171875 226.179688 C 164.9375 226.941406 165.738281 227.667969 166.574219 228.351562 C 167.40625 229.039062 168.273438 229.679688 169.171875 230.28125 C 170.070312 230.878906 170.996094 231.433594 171.949219 231.945312 C 172.902344 232.453125 173.878906 232.914062 174.875 233.328125 C 175.875 233.742188 176.890625 234.105469 177.925781 234.417969 C 178.957031 234.734375 180.003906 234.996094 181.0625 235.207031 C 182.125 235.417969 183.191406 235.574219 184.265625 235.679688 C 185.339844 235.785156 186.417969 235.839844 187.5 235.839844 C 188.582031 235.839844 189.660156 235.785156 190.734375 235.679688 C 191.808594 235.574219 192.875 235.417969 193.9375 235.207031 C 194.996094 234.996094 196.042969 234.734375 197.074219 234.417969 C 198.109375 234.105469 199.125 233.742188 200.125 233.328125 C 201.121094 232.914062 202.097656 232.453125 203.050781 231.945312 C 204.003906 231.433594 204.929688 230.878906 205.828125 230.28125 C 206.726562 229.679688 207.59375 229.039062 208.425781 228.351562 C 209.261719 227.667969 210.0625 226.941406 210.828125 226.179688 C 211.589844 225.414062 212.316406 224.613281 213 223.777344 C 213.6875 222.945312 214.328125 222.078125 214.929688 221.179688 C 215.527344 220.28125 216.082031 219.355469 216.59375 218.402344 C 217.101562 217.449219 217.5625 216.472656 217.976562 215.476562 C 218.390625 214.476562 218.753906 213.460938 219.066406 212.425781 C 219.382812 211.394531 219.644531 210.347656 219.855469 209.289062 C 220.066406 208.226562 220.222656 207.160156 220.328125 206.085938 C 220.433594 205.007812 220.488281 203.933594 220.488281 202.851562 C 218.847656 159.199219 156.152344 159.140625 154.511719 202.851562 Z M 154.511719 202.851562 C 154.511719 203.933594 154.566406 205.007812 154.671875 206.085938 C 154.777344 207.160156 154.933594 208.226562 155.144531 209.289062 C 155.355469 210.347656 155.617188 211.394531 155.933594 212.425781 C 156.246094 213.460938 156.609375 214.476562 157.023438 215.476562 C 157.4375 216.472656 157.898438 217.449219 158.40625 218.402344 C 158.917969 219.355469 159.472656 220.28125 160.070312 221.179688 C 160.671875 222.078125 161.3125 222.945312 162 223.777344 C 162.683594 224.613281 163.410156 225.414062 164.171875 226.179688 C 164.9375 226.941406 165.738281 227.667969 166.574219 228.351562 C 167.40625 229.039062 168.273438 229.679688 169.171875 230.28125 C 170.070312 230.878906 170.996094 231.433594 171.949219 231.945312 C 172.902344 232.453125 173.878906 232.914062 174.875 233.328125 C 175.875 233.742188 176.890625 234.105469 177.925781 234.417969 C 178.957031 234.734375 180.003906 234.996094 181.0625 235.207031 C 182.125 235.417969 183.191406 235.574219 184.265625 235.679688 C 185.339844 235.785156 186.417969 235.839844 187.5 235.839844 C 188.582031 235.839844 189.660156 235.785156 190.734375 235.679688 C 191.808594 235.574219 192.875 235.417969 193.9375 235.207031 C 194.996094 234.996094 196.042969 234.734375 197.074219 234.417969 C 198.109375 234.105469 199.125 233.742188 200.125 233.328125 C 201.121094 232.914062 202.097656 232.453125 203.050781 231.945312 C 204.003906 231.433594 204.929688 230.878906 205.828125 230.28125 C 206.726562 229.679688 207.59375 229.039062 208.425781 228.351562 C 209.261719 227.667969 210.0625 226.941406 210.828125 226.179688 C 211.589844 225.414062 212.316406 224.613281 213 223.777344 C 213.6875 222.945312 214.328125 222.078125 214.929688 221.179688 C 215.527344 220.28125 216.082031 219.355469 216.59375 218.402344 C 217.101562 217.449219 217.5625 216.472656 217.976562 215.476562 C 218.390625 214.476562 218.753906 213.460938 219.066406 212.425781 C 219.382812 211.394531 219.644531 210.347656 219.855469 209.289062 C 220.066406 208.226562 220.222656 207.160156 220.328125 206.085938 C 220.433594 205.007812 220.488281 203.933594 220.488281 202.851562 C 218.847656 159.199219 156.152344 159.140625 154.511719 202.851562 Z M 154.511719 202.851562 C 154.511719 203.933594 154.566406 205.007812 154.671875 206.085938 C 154.777344 207.160156 154.933594 208.226562 155.144531 209.289062 C 155.355469 210.347656 155.617188 211.394531 155.933594 212.425781 C 156.246094 213.460938 156.609375 214.476562 157.023438 215.476562 C 157.4375 216.472656 157.898438 217.449219 158.40625 218.402344 C 158.917969 219.355469 159.472656 220.28125 160.070312 221.179688 C 160.671875 222.078125 161.3125 222.945312 162 223.777344 C 162.683594 224.613281 163.410156 225.414062 164.171875 226.179688 C 164.9375 226.941406 165.738281 227.667969 166.574219 228.351562 C 167.40625 229.039062 168.273438 229.679688 169.171875 230.28125 C 170.070312 230.878906 170.996094 231.433594 171.949219 231.945312 C 172.902344 232.453125 173.878906 232.914062 174.875 233.328125 C 175.875 233.742188 176.890625 234.105469 177.925781 234.417969 C 178.957031 234.734375 180.003906 234.996094 181.0625 235.207031 C 182.125 235.417969 183.191406 235.574219 184.265625 235.679688 C 185.339844 235.785156 186.417969 235.839844 187.5 235.839844 C 188.582031 235.839844 189.660156 235.785156 190.734375 235.679688 C 191.808594 235.574219 192.875 235.417969 193.9375 235.207031 C 194.996094 234.996094 196.042969 234.734375 197.074219 234.417969 C 198.109375 234.105469 199.125 233.742188 200.125 233.328125 C 201.121094 232.914062 202.097656 232.453125 203.050781 231.945312 C 204.003906 231.433594 204.929688 230.878906 205.828125 230.28125 C 206.726562 229.679688 207.59375 229.039062 208.425781 228.351562 C 209.261719 227.667969 210.0625 226.941406 210.828125 226.179688 C 211.589844 225.414062 212.316406 224.613281 213 223.777344 C 213.6875 222.945312 214.328125 222.078125 214.929688 221.179688 C 215.527344 220.28125 216.082031 219.355469 216.59375 218.402344 C 217.101562 217.449219 217.5625 216.472656 217.976562 215.476562 C 218.390625 214.476562 218.753906 213.460938 219.066406 212.425781 C 219.382812 211.394531 219.644531 210.347656 219.855469 209.289062 C 220.066406 208.226562 220.222656 207.160156 220.328125 206.085938 C 220.433594 205.007812 220.488281 203.933594 220.488281 202.851562 C 218.847656 159.199219 156.152344 159.140625 154.511719 202.851562 Z M 154.511719 202.851562 C 154.511719 203.933594 154.566406 205.007812 154.671875 206.085938 C 154.777344 207.160156 154.933594 208.226562 155.144531 209.289062 C 155.355469 210.347656 155.617188 211.394531 155.933594 212.425781 C 156.246094 213.460938 156.609375 214.476562 157.023438 215.476562 C 157.4375 216.472656 157.898438 217.449219 158.40625 218.402344 C 158.917969 219.355469 159.472656 220.28125 160.070312 221.179688 C 160.671875 222.078125 161.3125 222.945312 162 223.777344 C 162.683594 224.613281 163.410156 225.414062 164.171875 226.179688 C 164.9375 226.941406 165.738281 227.667969 166.574219 228.351562 C 167.40625 229.039062 168.273438 229.679688 169.171875 230.28125 C 170.070312 230.878906 170.996094 231.433594 171.949219 231.945312 C 172.902344 232.453125 173.878906 232.914062 174.875 233.328125 C 175.875 233.742188 176.890625 234.105469 177.925781 234.417969 C 178.957031 234.734375 180.003906 234.996094 181.0625 235.207031 C 182.125 235.417969 183.191406 235.574219 184.265625 235.679688 C 185.339844 235.785156 186.417969 235.839844 187.5 235.839844 C 188.582031 235.839844 189.660156 235.785156 190.734375 235.679688 C 191.808594 235.574219 192.875 235.417969 193.9375 235.207031 C 194.996094 234.996094 196.042969 234.734375 197.074219 234.417969 C 198.109375 234.105469 199.125 233.742188 200.125 233.328125 C 201.121094 232.914062 202.097656 232.453125 203.050781 231.945312 C 204.003906 231.433594 204.929688 230.878906 205.828125 230.28125 C 206.726562 229.679688 207.59375 229.039062 208.425781 228.351562 C 209.261719 227.667969 210.0625 226.941406 210.828125 226.179688 C 211.589844 225.414062 212.316406 224.613281 213 223.777344 C 213.6875 222.945312 214.328125 222.078125 214.929688 221.179688 C 215.527344 220.28125 216.082031 219.355469 216.59375 218.402344 C 217.101562 217.449219 217.5625 216.472656 217.976562 215.476562 C 218.390625 214.476562 218.753906 213.460938 219.066406 212.425781 C 219.382812 211.394531 219.644531 210.347656 219.855469 209.289062 C 220.066406 208.226562 220.222656 207.160156 220.328125 206.085938 C 220.433594 205.007812 220.488281 203.933594 220.488281 202.851562 C 218.847656 159.199219 156.152344 159.140625 154.511719 202.851562 Z M 154.511719 202.851562 C 154.511719 203.933594 154.566406 205.007812 154.671875 206.085938 C 154.777344 207.160156 154.933594 208.226562 155.144531 209.289062 C 155.355469 210.347656 155.617188 211.394531 155.933594 212.425781 C 156.246094 213.460938 156.609375 214.476562 157.023438 215.476562 C 157.4375 216.472656 157.898438 217.449219 158.40625 218.402344 C 158.917969 219.355469 159.472656 220.28125 160.070312 221.179688 C 160.671875 222.078125 161.3125 222.945312 162 223.777344 C 162.683594 224.613281 163.410156 225.414062 164.171875 226.179688 C 164.9375 226.941406 165.738281 227.667969 166.574219 228.351562 C 167.40625 229.039062 168.273438 229.679688 169.171875 230.28125 C 170.070312 230.878906 170.996094 231.433594 171.949219 231.945312 C 172.902344 232.453125 173.878906 232.914062 174.875 233.328125 C 175.875 233.742188 176.890625 234.105469 177.925781 234.417969 C 178.957031 234.734375 180.003906 234.996094 181.0625 235.207031 C 182.125 235.417969 183.191406 235.574219 184.265625 235.679688 C 185.339844 235.785156 186.417969 235.839844 187.5 235.839844 C 188.582031 235.839844 189.660156 235.785156 190.734375 235.679688 C 191.808594 235.574219 192.875 235.417969 193.9375 235.207031 C 194.996094 234.996094 196.042969 234.734375 197.074219 234.417969 C 198.109375 234.105469 199.125 233.742188 200.125 233.328125 C 201.121094 232.914062 202.097656 232.453125 203.050781 231.945312 C 204.003906 231.433594 204.929688 230.878906 205.828125 230.28125 C 206.726562 229.679688 207.59375 229.039062 208.425781 228.351562 C 209.261719 227.667969 210.0625 226.941406 210.828125 226.179688 C 211.589844 225.414062 212.316406 224.613281 213 223.777344 C 213.6875 222.945312 214.328125 222.078125 214.929688 221.179688 C 215.527344 220.28125 216.082031 219.355469 216.59375 218.402344 C 217.101562 217.449219 217.5625 216.472656 217.976562 215.476562 C 218.390625 214.476562 218.753906 213.460938 219.066406 212.425781 C 219.382812 211.394531 219.644531 210.347656 219.855469 209.289062 C 220.066406 208.226562 220.222656 207.160156 220.328125 206.085938 C 220.433594 205.007812 220.488281 203.933594 220.488281 202.851562 C 218.847656 159.199219 156.152344 159.140625 154.511719 202.851562 Z M 154.511719 202.851562 C 154.511719 203.933594 154.566406 205.007812 154.671875 206.085938 C 154.777344 207.160156 154.933594 208.226562 155.144531 209.289062 C 155.355469 210.347656 155.617188 211.394531 155.933594 212.425781 C 156.246094 213.460938 156.609375 214.476562 157.023438 215.476562 C 157.4375 216.472656 157.898438 217.449219 158.40625 218.402344 C 158.917969 219.355469 159.472656 220.28125 160.070312 221.179688 C 160.671875 222.078125 161.3125 222.945312 162 223.777344 C 162.683594 224.613281 163.410156 225.414062 164.171875 226.179688 C 164.9375 226.941406 165.738281 227.667969 166.574219 228.351562 C 167.40625 229.039062 168.273438 229.679688 169.171875 230.28125 C 170.070312 230.878906 170.996094 231.433594 171.949219 231.945312 C 172.902344 232.453125 173.878906 232.914062 174.875 233.328125 C 175.875 233.742188 176.890625 234.105469 177.925781 234.417969 C 178.957031 234.734375 180.003906 234.996094 181.0625 235.207031 C 182.125 235.417969 183.191406 235.574219 184.265625 235.679688 C 185.339844 235.785156 186.417969 235.839844 187.5 235.839844 C 188.582031 235.839844 189.660156 235.785156 190.734375 235.679688 C 191.808594 235.574219 192.875 235.417969 193.9375 235.207031 C 194.996094 234.996094 196.042969 234.734375 197.074219 234.417969 C 198.109375 234.105469 199.125 233.742188 200.125 233.328125 C 201.121094 232.914062 202.097656 232.453125 203.050781 231.945312 C 204.003906 231.433594 204.929688 230.878906 205.828125 230.28125 C 206.726562 229.679688 207.59375 229.039062 208.425781 228.351562 C 209.261719 227.667969 210.0625 226.941406 210.828125 226.179688 C 211.589844 225.414062 212.316406 224.613281 213 223.777344 C 213.6875 222.945312 214.328125 222.078125 214.929688 221.179688 C 215.527344 220.28125 216.082031 219.355469 216.59375 218.402344 C 217.101562 217.449219 217.5625 216.472656 217.976562 215.476562 C 218.390625 214.476562 218.753906 213.460938 219.066406 212.425781 C 219.382812 211.394531 219.644531 210.347656 219.855469 209.289062 C 220.066406 208.226562 220.222656 207.160156 220.328125 206.085938 C 220.433594 205.007812 220.488281 203.933594 220.488281 202.851562 C 218.847656 159.199219 156.152344 159.140625 154.511719 202.851562 Z M 154.511719 202.851562 C 154.511719 203.933594 154.566406 205.007812 154.671875 206.085938 C 154.777344 207.160156 154.933594 208.226562 155.144531 209.289062 C 155.355469 210.347656 155.617188 211.394531 155.933594 212.425781 C 156.246094 213.460938 156.609375 214.476562 157.023438 215.476562 C 157.4375 216.472656 157.898438 217.449219 158.40625 218.402344 C 158.917969 219.355469 159.472656 220.28125 160.070312 221.179688 C 160.671875 222.078125 161.3125 222.945312 162 223.777344 C 162.683594 224.613281 163.410156 225.414062 164.171875 226.179688 C 164.9375 226.941406 165.738281 227.667969 166.574219 228.351562 C 167.40625 229.039062 168.273438 229.679688 169.171875 230.28125 C 170.070312 230.878906 170.996094 231.433594 171.949219 231.945312 C 172.902344 232.453125 173.878906 232.914062 174.875 233.328125 C 175.875 233.742188 176.890625 234.105469 177.925781 234.417969 C 178.957031 234.734375 180.003906 234.996094 181.0625 235.207031 C 182.125 235.417969 183.191406 235.574219 184.265625 235.679688 C 185.339844 235.785156 186.417969 235.839844 187.5 235.839844 C 188.582031 235.839844 189.660156 235.785156 190.734375 235.679688 C 191.808594 235.574219 192.875 235.417969 193.9375 235.207031 C 194.996094 234.996094 196.042969 234.734375 197.074219 234.417969 C 198.109375 234.105469 199.125 233.742188 200.125 233.328125 C 201.121094 232.914062 202.097656 232.453125 203.050781 231.945312 C 204.003906 231.433594 204.929688 230.878906 205.828125 230.28125 C 206.726562 229.679688 207.59375 229.039062 208.425781 228.351562 C 209.261719 227.667969 210.0625 226.941406 210.828125 226.179688 C 211.589844 225.414062 212.316406 224.613281 213 223.777344 C 213.6875 222.945312 214.328125 222.078125 214.929688 221.179688 C 215.527344 220.28125 216.082031 219.355469 216.59375 218.402344 C 217.101562 217.449219 217.5625 216.472656 217.976562 215.476562 C 218.390625 214.476562 218.753906 213.460938 219.066406 212.425781 C 219.382812 211.394531 219.644531 210.347656 219.855469 209.289062 C 220.066406 208.226562 220.222656 207.160156 220.328125 206.085938 C 220.433594 205.007812 220.488281 203.933594 220.488281 202.851562 C 218.847656 159.199219 156.152344 159.140625 154.511719 202.851562 Z M 154.511719 202.851562 C 154.511719 203.933594 154.566406 205.007812 154.671875 206.085938 C 154.777344 207.160156 154.933594 208.226562 155.144531 209.289062 C 155.355469 210.347656 155.617188 211.394531 155.933594 212.425781 C 156.246094 213.460938 156.609375 214.476562 157.023438 215.476562 C 157.4375 216.472656 157.898438 217.449219 158.40625 218.402344 C 158.917969 219.355469 159.472656 220.28125 160.070312 221.179688 C 160.671875 222.078125 161.3125 222.945312 162 223.777344 C 162.683594 224.613281 163.410156 225.414062 164.171875 226.179688 C 164.9375 226.941406 165.738281 227.667969 166.574219 228.351562 C 167.40625 229.039062 168.273438 229.679688 169.171875 230.28125 C 170.070312 230.878906 170.996094 231.433594 171.949219 231.945312 C 172.902344 232.453125 173.878906 232.914062 174.875 233.328125 C 175.875 233.742188 176.890625 234.105469 177.925781 234.417969 C 178.957031 234.734375 180.003906 234.996094 181.0625 235.207031 C 182.125 235.417969 183.191406 235.574219 184.265625 235.679688 C 185.339844 235.785156 186.417969 235.839844 187.5 235.839844 C 188.582031 235.839844 189.660156 235.785156 190.734375 235.679688 C 191.808594 235.574219 192.875 235.417969 193.9375 235.207031 C 194.996094 234.996094 196.042969 234.734375 197.074219 234.417969 C 198.109375 234.105469 199.125 233.742188 200.125 233.328125 C 201.121094 232.914062 202.097656 232.453125 203.050781 231.945312 C 204.003906 231.433594 204.929688 230.878906 205.828125 230.28125 C 206.726562 229.679688 207.59375 229.039062 208.425781 228.351562 C 209.261719 227.667969 210.0625 226.941406 210.828125 226.179688 C 211.589844 225.414062 212.316406 224.613281 213 223.777344 C 213.6875 222.945312 214.328125 222.078125 214.929688 221.179688 C 215.527344 220.28125 216.082031 219.355469 216.59375 218.402344 C 217.101562 217.449219 217.5625 216.472656 217.976562 215.476562 C 218.390625 214.476562 218.753906 213.460938 219.066406 212.425781 C 219.382812 211.394531 219.644531 210.347656 219.855469 209.289062 C 220.066406 208.226562 220.222656 207.160156 220.328125 206.085938 C 220.433594 205.007812 220.488281 203.933594 220.488281 202.851562 C 218.847656 159.199219 156.152344 159.140625 154.511719 202.851562 Z M 154.511719 202.851562 C 154.511719 203.933594 154.566406 205.007812 154.671875 206.085938 C 154.777344 207.160156 154.933594 208.226562 155.144531 209.289062 C 155.355469 210.347656 155.617188 211.394531 155.933594 212.425781 C 156.246094 213.460938 156.609375 214.476562 157.023438 215.476562 C 157.4375 216.472656 157.898438 217.449219 158.40625 218.402344 C 158.917969 219.355469 159.472656 220.28125 160.070312 221.179688 C 160.671875 222.078125 161.3125 222.945312 162 223.777344 C 162.683594 224.613281 163.410156 225.414062 164.171875 226.179688 C 164.9375 226.941406 165.738281 227.667969 166.574219 228.351562 C 167.40625 229.039062 168.273438 229.679688 169.171875 230.28125 C 170.070312 230.878906 170.996094 231.433594 171.949219 231.945312 C 172.902344 232.453125 173.878906 232.914062 174.875 233.328125 C 175.875 233.742188 176.890625 234.105469 177.925781 234.417969 C 178.957031 234.734375 180.003906 234.996094 181.0625 235.207031 C 182.125 235.417969 183.191406 235.574219 184.265625 235.679688 C 185.339844 235.785156 186.417969 235.839844 187.5 235.839844 C 188.582031 235.839844 189.660156 235.785156 190.734375 235.679688 C 191.808594 235.574219 192.875 235.417969 193.9375 235.207031 C 194.996094 234.996094 196.042969 234.734375 197.074219 234.417969 C 198.109375 234.105469 199.125 233.742188 200.125 233.328125 C 201.121094 232.914062 202.097656 232.453125 203.050781 231.945312 C 204.003906 231.433594 204.929688 230.878906 205.828125 230.28125 C 206.726562 229.679688 207.59375 229.039062 208.425781 228.351562 C 209.261719 227.667969 210.0625 226.941406 210.828125 226.179688 C 211.589844 225.414062 212.316406 224.613281 213 223.777344 C 213.6875 222.945312 214.328125 222.078125 214.929688 221.179688 C 215.527344 220.28125 216.082031 219.355469 216.59375 218.402344 C 217.101562 217.449219 217.5625 216.472656 217.976562 215.476562 C 218.390625 214.476562 218.753906 213.460938 219.066406 212.425781 C 219.382812 211.394531 219.644531 210.347656 219.855469 209.289062 C 220.066406 208.226562 220.222656 207.160156 220.328125 206.085938 C 220.433594 205.007812 220.488281 203.933594 220.488281 202.851562 C 218.847656 159.199219 156.152344 159.140625 154.511719 202.851562 Z M 154.511719 202.851562 C 154.511719 203.933594 154.566406 205.007812 154.671875 206.085938 C 154.777344 207.160156 154.933594 208.226562 155.144531 209.289062 C 155.355469 210.347656 155.617188 211.394531 155.933594 212.425781 C 156.246094 213.460938 156.609375 214.476562 157.023438 215.476562 C 157.4375 216.472656 157.898438 217.449219 158.40625 218.402344 C 158.917969 219.355469 159.472656 220.28125 160.070312 221.179688 C 160.671875 222.078125 161.3125 222.945312 162 223.777344 C 162.683594 224.613281 163.410156 225.414062 164.171875 226.179688 C 164.9375 226.941406 165.738281 227.667969 166.574219 228.351562 C 167.40625 229.039062 168.273438 229.679688 169.171875 230.28125 C 170.070312 230.878906 170.996094 231.433594 171.949219 231.945312 C 172.902344 232.453125 173.878906 232.914062 174.875 233.328125 C 175.875 233.742188 176.890625 234.105469 177.925781 234.417969 C 178.957031 234.734375 180.003906 234.996094 181.0625 235.207031 C 182.125 235.417969 183.191406 235.574219 184.265625 235.679688 C 185.339844 235.785156 186.417969 235.839844 187.5 235.839844 C 188.582031 235.839844 189.660156 235.785156 190.734375 235.679688 C 191.808594 235.574219 192.875 235.417969 193.9375 235.207031 C 194.996094 234.996094 196.042969 234.734375 197.074219 234.417969 C 198.109375 234.105469 199.125 233.742188 200.125 233.328125 C 201.121094 232.914062 202.097656 232.453125 203.050781 231.945312 C 204.003906 231.433594 204.929688 230.878906 205.828125 230.28125 C 206.726562 229.679688 207.59375 229.039062 208.425781 228.351562 C 209.261719 227.667969 210.0625 226.941406 210.828125 226.179688 C 211.589844 225.414062 212.316406 224.613281 213 223.777344 C 213.6875 222.945312 214.328125 222.078125 214.929688 221.179688 C 215.527344 220.28125 216.082031 219.355469 216.59375 218.402344 C 217.101562 217.449219 217.5625 216.472656 217.976562 215.476562 C 218.390625 214.476562 218.753906 213.460938 219.066406 212.425781 C 219.382812 211.394531 219.644531 210.347656 219.855469 209.289062 C 220.066406 208.226562 220.222656 207.160156 220.328125 206.085938 C 220.433594 205.007812 220.488281 203.933594 220.488281 202.851562 C 218.847656 159.199219 156.152344 159.140625 154.511719 202.851562 Z M 154.511719 202.851562 C 154.511719 203.933594 154.566406 205.007812 154.671875 206.085938 C 154.777344 207.160156 154.933594 208.226562 155.144531 209.289062 C 155.355469 210.347656 155.617188 211.394531 155.933594 212.425781 C 156.246094 213.460938 156.609375 214.476562 157.023438 215.476562 C 157.4375 216.472656 157.898438 217.449219 158.40625 218.402344 C 158.917969 219.355469 159.472656 220.28125 160.070312 221.179688 C 160.671875 222.078125 161.3125 222.945312 162 223.777344 C 162.683594 224.613281 163.410156 225.414062 164.171875 226.179688 C 164.9375 226.941406 165.738281 227.667969 166.574219 228.351562 C 167.40625 229.039062 168.273438 229.679688 169.171875 230.28125 C 170.070312 230.878906 170.996094 231.433594 171.949219 231.945312 C 172.902344 232.453125 173.878906 232.914062 174.875 233.328125 C 175.875 233.742188 176.890625 234.105469 177.925781 234.417969 C 178.957031 234.734375 180.003906 234.996094 181.0625 235.207031 C 182.125 235.417969 183.191406 235.574219 184.265625 235.679688 C 185.339844 235.785156 186.417969 235.839844 187.5 235.839844 C 188.582031 235.839844 189.660156 235.785156 190.734375 235.679688 C 191.808594 235.574219 192.875 235.417969 193.9375 235.207031 C 194.996094 234.996094 196.042969 234.734375 197.074219 234.417969 C 198.109375 234.105469 199.125 233.742188 200.125 233.328125 C 201.121094 232.914062 202.097656 232.453125 203.050781 231.945312 C 204.003906 231.433594 204.929688 230.878906 205.828125 230.28125 C 206.726562 229.679688 207.59375 229.039062 208.425781 228.351562 C 209.261719 227.667969 210.0625 226.941406 210.828125 226.179688 C 211.589844 225.414062 212.316406 224.613281 213 223.777344 C 213.6875 222.945312 214.328125 222.078125 214.929688 221.179688 C 215.527344 220.28125 216.082031 219.355469 216.59375 218.402344 C 217.101562 217.449219 217.5625 216.472656 217.976562 215.476562 C 218.390625 214.476562 218.753906 213.460938 219.066406 212.425781 C 219.382812 211.394531 219.644531 210.347656 219.855469 209.289062 C 220.066406 208.226562 220.222656 207.160156 220.328125 206.085938 C 220.433594 205.007812 220.488281 203.933594 220.488281 202.851562 C 218.847656 159.199219 156.152344 159.140625 154.511719 202.851562 Z M 154.511719 202.851562 C 154.511719 203.933594 154.566406 205.007812 154.671875 206.085938 C 154.777344 207.160156 154.933594 208.226562 155.144531 209.289062 C 155.355469 210.347656 155.617188 211.394531 155.933594 212.425781 C 156.246094 213.460938 156.609375 214.476562 157.023438 215.476562 C 157.4375 216.472656 157.898438 217.449219 158.40625 218.402344 C 158.917969 219.355469 159.472656 220.28125 160.070312 221.179688 C 160.671875 222.078125 161.3125 222.945312 162 223.777344 C 162.683594 224.613281 163.410156 225.414062 164.171875 226.179688 C 164.9375 226.941406 165.738281 227.667969 166.574219 228.351562 C 167.40625 229.039062 168.273438 229.679688 169.171875 230.28125 C 170.070312 230.878906 170.996094 231.433594 171.949219 231.945312 C 172.902344 232.453125 173.878906 232.914062 174.875 233.328125 C 175.875 233.742188 176.890625 234.105469 177.925781 234.417969 C 178.957031 234.734375 180.003906 234.996094 181.0625 235.207031 C 182.125 235.417969 183.191406 235.574219 184.265625 235.679688 C 185.339844 235.785156 186.417969 235.839844 187.5 235.839844 C 188.582031 235.839844 189.660156 235.785156 190.734375 235.679688 C 191.808594 235.574219 192.875 235.417969 193.9375 235.207031 C 194.996094 234.996094 196.042969 234.734375 197.074219 234.417969 C 198.109375 234.105469 199.125 233.742188 200.125 233.328125 C 201.121094 232.914062 202.097656 232.453125 203.050781 231.945312 C 204.003906 231.433594 204.929688 230.878906 205.828125 230.28125 C 206.726562 229.679688 207.59375 229.039062 208.425781 228.351562 C 209.261719 227.667969 210.0625 226.941406 210.828125 226.179688 C 211.589844 225.414062 212.316406 224.613281 213 223.777344 C 213.6875 222.945312 214.328125 222.078125 214.929688 221.179688 C 215.527344 220.28125 216.082031 219.355469 216.59375 218.402344 C 217.101562 217.449219 217.5625 216.472656 217.976562 215.476562 C 218.390625 214.476562 218.753906 213.460938 219.066406 212.425781 C 219.382812 211.394531 219.644531 210.347656 219.855469 209.289062 C 220.066406 208.226562 220.222656 207.160156 220.328125 206.085938 C 220.433594 205.007812 220.488281 203.933594 220.488281 202.851562 C 218.847656 159.199219 156.152344 159.140625 154.511719 202.851562 Z M 154.511719 202.851562 C 154.511719 203.933594 154.566406 205.007812 154.671875 206.085938 C 154.777344 207.160156 154.933594 208.226562 155.144531 209.289062 C 155.355469 210.347656 155.617188 211.394531 155.933594 212.425781 C 156.246094 213.460938 156.609375 214.476562 157.023438 215.476562 C 157.4375 216.472656 157.898438 217.449219 158.40625 218.402344 C 158.917969 219.355469 159.472656 220.28125 160.070312 221.179688 C 160.671875 222.078125 161.3125 222.945312 162 223.777344 C 162.683594 224.613281 163.410156 225.414062 164.171875 226.179688 C 164.9375 226.941406 165.738281 227.667969 166.574219 228.351562 C 167.40625 229.039062 168.273438 229.679688 169.171875 230.28125 C 170.070312 230.878906 170.996094 231.433594 171.949219 231.945312 C 172.902344 232.453125 173.878906 232.914062 174.875 233.328125 C 175.875 233.742188 176.890625 234.105469 177.925781 234.417969 C 178.957031 234.734375 180.003906 234.996094 181.0625 235.207031 C 182.125 235.417969 183.191406 235.574219 184.265625 235.679688 C 185.339844 235.785156 186.417969 235.839844 187.5 235.839844 C 188.582031 235.839844 189.660156 235.785156 190.734375 235.679688 C 191.808594 235.574219 192.875 235.417969 193.9375 235.207031 C 194.996094 234.996094 196.042969 234.734375 197.074219 234.417969 C 198.109375 234.105469 199.125 233.742188 200.125 233.328125 C 201.121094 232.914062 202.097656 232.453125 203.050781 231.945312 C 204.003906 231.433594 204.929688 230.878906 205.828125 230.28125 C 206.726562 229.679688 207.59375 229.039062 208.425781 228.351562 C 209.261719 227.667969 210.0625 226.941406 210.828125 226.179688 C 211.589844 225.414062 212.316406 224.613281 213 223.777344 C 213.6875 222.945312 214.328125 222.078125 214.929688 221.179688 C 215.527344 220.28125 216.082031 219.355469 216.59375 218.402344 C 217.101562 217.449219 217.5625 216.472656 217.976562 215.476562 C 218.390625 214.476562 218.753906 213.460938 219.066406 212.425781 C 219.382812 211.394531 219.644531 210.347656 219.855469 209.289062 C 220.066406 208.226562 220.222656 207.160156 220.328125 206.085938 C 220.433594 205.007812 220.488281 203.933594 220.488281 202.851562 C 218.847656 159.199219 156.152344 159.140625 154.511719 202.851562 Z M 154.511719 202.851562 C 154.511719 203.933594 154.566406 205.007812 154.671875 206.085938 C 154.777344 207.160156 154.933594 208.226562 155.144531 209.289062 C 155.355469 210.347656 155.617188 211.394531 155.933594 212.425781 C 156.246094 213.460938 156.609375 214.476562 157.023438 215.476562 C 157.4375 216.472656 157.898438 217.449219 158.40625 218.402344 C 158.917969 219.355469 159.472656 220.28125 160.070312 221.179688 C 160.671875 222.078125 161.3125 222.945312 162 223.777344 C 162.683594 224.613281 163.410156 225.414062 164.171875 226.179688 C 164.9375 226.941406 165.738281 227.667969 166.574219 228.351562 C 167.40625 229.039062 168.273438 229.679688 169.171875 230.28125 C 170.070312 230.878906 170.996094 231.433594 171.949219 231.945312 C 172.902344 232.453125 173.878906 232.914062 174.875 233.328125 C 175.875 233.742188 176.890625 234.105469 177.925781 234.417969 C 178.957031 234.734375 180.003906 234.996094 181.0625 235.207031 C 182.125 235.417969 183.191406 235.574219 184.265625 235.679688 C 185.339844 235.785156 186.417969 235.839844 187.5 235.839844 C 188.582031 235.839844 189.660156 235.785156 190.734375 235.679688 C 191.808594 235.574219 192.875 235.417969 193.9375 235.207031 C 194.996094 234.996094 196.042969 234.734375 197.074219 234.417969 C 198.109375 234.105469 199.125 233.742188 200.125 233.328125 C 201.121094 232.914062 202.097656 232.453125 203.050781 231.945312 C 204.003906 231.433594 204.929688 230.878906 205.828125 230.28125 C 206.726562 229.679688 207.59375 229.039062 208.425781 228.351562 C 209.261719 227.667969 210.0625 226.941406 210.828125 226.179688 C 211.589844 225.414062 212.316406 224.613281 213 223.777344 C 213.6875 222.945312 214.328125 222.078125 214.929688 221.179688 C 215.527344 220.28125 216.082031 219.355469 216.59375 218.402344 C 217.101562 217.449219 217.5625 216.472656 217.976562 215.476562 C 218.390625 214.476562 218.753906 213.460938 219.066406 212.425781 C 219.382812 211.394531 219.644531 210.347656 219.855469 209.289062 C 220.066406 208.226562 220.222656 207.160156 220.328125 206.085938 C 220.433594 205.007812 220.488281 203.933594 220.488281 202.851562 C 218.847656 159.199219 156.152344 159.140625 154.511719 202.851562 Z M 154.511719 202.851562 C 154.511719 203.933594 154.566406 205.007812 154.671875 206.085938 C 154.777344 207.160156 154.933594 208.226562 155.144531 209.289062 C 155.355469 210.347656 155.617188 211.394531 155.933594 212.425781 C 156.246094 213.460938 156.609375 214.476562 157.023438 215.476562 C 157.4375 216.472656 157.898438 217.449219 158.40625 218.402344 C 158.917969 219.355469 159.472656 220.28125 160.070312 221.179688 C 160.671875 222.078125 161.3125 222.945312 162 223.777344 C 162.683594 224.613281 163.410156 225.414062 164.171875 226.179688 C 164.9375 226.941406 165.738281 227.667969 166.574219 228.351562 C 167.40625 229.039062 168.273438 229.679688 169.171875 230.28125 C 170.070312 230.878906 170.996094 231.433594 171.949219 231.945312 C 172.902344 232.453125 173.878906 232.914062 174.875 233.328125 C 175.875 233.742188 176.890625 234.105469 177.925781 234.417969 C 178.957031 234.734375 180.003906 234.996094 181.0625 235.207031 C 182.125 235.417969 183.191406 235.574219 184.265625 235.679688 C 185.339844 235.785156 186.417969 235.839844 187.5 235.839844 C 188.582031 235.839844 189.660156 235.785156 190.734375 235.679688 C 191.808594 235.574219 192.875 235.417969 193.9375 235.207031 C 194.996094 234.996094 196.042969 234.734375 197.074219 234.417969 C 198.109375 234.105469 199.125 233.742188 200.125 233.328125 C 201.121094 232.914062 202.097656 232.453125 203.050781 231.945312 C 204.003906 231.433594 204.929688 230.878906 205.828125 230.28125 C 206.726562 229.679688 207.59375 229.039062 208.425781 228.351562 C 209.261719 227.667969 210.0625 226.941406 210.828125 226.179688 C 211.589844 225.414062 212.316406 224.613281 213 223.777344 C 213.6875 222.945312 214.328125 222.078125 214.929688 221.179688 C 215.527344 220.28125 216.082031 219.355469 216.59375 218.402344 C 217.101562 217.449219 217.5625 216.472656 217.976562 215.476562 C 218.390625 214.476562 218.753906 213.460938 219.066406 212.425781 C 219.382812 211.394531 219.644531 210.347656 219.855469 209.289062 C 220.066406 208.226562 220.222656 207.160156 220.328125 206.085938 C 220.433594 205.007812 220.488281 203.933594 220.488281 202.851562 C 218.847656 159.199219 156.152344 159.140625 154.511719 202.851562 Z M 187.5 0 C 184.429688 0 181.363281 0.0742188 178.300781 0.226562 C 175.234375 0.375 172.175781 0.601562 169.121094 0.902344 C 166.066406 1.203125 163.023438 1.578125 159.988281 2.03125 C 156.953125 2.480469 153.929688 3.003906 150.921875 3.601562 C 147.910156 4.203125 144.917969 4.875 141.941406 5.617188 C 138.964844 6.363281 136.007812 7.183594 133.070312 8.074219 C 130.136719 8.964844 127.222656 9.925781 124.332031 10.960938 C 121.445312 11.996094 118.582031 13.097656 115.746094 14.273438 C 112.910156 15.445312 110.105469 16.691406 107.332031 18.003906 C 104.558594 19.3125 101.820312 20.691406 99.113281 22.140625 C 96.40625 23.585938 93.738281 25.097656 91.105469 26.675781 C 88.472656 28.253906 85.882812 29.894531 83.332031 31.597656 C 80.777344 33.304688 78.269531 35.070312 75.804688 36.898438 C 73.339844 38.726562 70.921875 40.613281 68.550781 42.558594 C 66.179688 44.507812 63.855469 46.511719 61.582031 48.570312 C 59.308594 50.632812 57.085938 52.746094 54.917969 54.917969 C 52.746094 57.085938 50.632812 59.308594 48.570312 61.582031 C 46.511719 63.855469 44.507812 66.179688 42.558594 68.550781 C 40.613281 70.921875 38.726562 73.339844 36.898438 75.804688 C 35.070312 78.269531 33.304688 80.777344 31.597656 83.332031 C 29.894531 85.882812 28.253906 88.472656 26.675781 91.105469 C 25.097656 93.738281 23.585938 96.40625 22.140625 99.113281 C 20.691406 101.820312 19.3125 104.558594 18.003906 107.332031 C 16.691406 110.105469 15.445312 112.910156 14.273438 115.746094 C 13.097656 118.582031 11.996094 121.445312 10.960938 124.332031 C 9.925781 127.222656 8.964844 130.136719 8.074219 133.070312 C 7.183594 136.007812 6.363281 138.964844 5.621094 141.941406 C 4.875 144.917969 4.203125 147.910156 3.601562 150.921875 C 3.003906 153.929688 2.480469 156.953125 2.03125 159.988281 C 1.578125 163.023438 1.203125 166.066406 0.902344 169.121094 C 0.601562 172.175781 0.375 175.234375 0.226562 178.300781 C 0.0742188 181.363281 0 184.429688 0 187.5 C 0 190.570312 0.0742188 193.636719 0.226562 196.699219 C 0.375 199.765625 0.601562 202.824219 0.902344 205.878906 C 1.203125 208.933594 1.578125 211.976562 2.03125 215.011719 C 2.480469 218.046875 3.003906 221.070312 3.601562 224.078125 C 4.203125 227.089844 4.875 230.082031 5.621094 233.058594 C 6.363281 236.035156 7.183594 238.992188 8.074219 241.929688 C 8.964844 244.863281 9.925781 247.777344 10.960938 250.667969 C 11.996094 253.554688 13.097656 256.417969 14.273438 259.253906 C 15.445312 262.089844 16.691406 264.894531 18.003906 267.667969 C 19.3125 270.441406 20.691406 273.179688 22.140625 275.886719 C 23.585938 278.59375 25.097656 281.261719 26.675781 283.894531 C 28.253906 286.527344 29.894531 289.117188 31.597656 291.667969 C 33.304688 294.222656 35.070312 296.730469 36.898438 299.195312 C 38.726562 301.660156 40.613281 304.078125 42.558594 306.449219 C 44.507812 308.820312 46.511719 311.144531 48.570312 313.417969 C 50.632812 315.691406 52.746094 317.914062 54.917969 320.082031 C 57.085938 322.253906 59.308594 324.367188 61.582031 326.429688 C 63.855469 328.488281 66.179688 330.492188 68.550781 332.441406 C 70.921875 334.386719 73.339844 336.273438 75.804688 338.101562 C 78.269531 339.929688 80.777344 341.695312 83.332031 343.402344 C 85.882812 345.105469 88.472656 346.746094 91.105469 348.324219 C 93.738281 349.902344 96.40625 351.414062 99.113281 352.859375 C 101.820312 354.308594 104.558594 355.6875 107.332031 356.996094 C 110.105469 358.308594 112.910156 359.554688 115.746094 360.726562 C 118.582031 361.902344 121.445312 363.003906 124.332031 364.039062 C 127.222656 365.074219 130.136719 366.035156 133.070312 366.925781 C 136.007812 367.816406 138.964844 368.636719 141.941406 369.378906 C 144.917969 370.125 147.910156 370.796875 150.921875 371.398438 C 153.929688 371.996094 156.953125 372.519531 159.988281 372.96875 C 163.023438 373.421875 166.066406 373.796875 169.121094 374.097656 C 172.175781 374.398438 175.234375 374.625 178.300781 374.773438 C 181.363281 374.925781 184.429688 375 187.5 375 C 190.570312 375 193.636719 374.925781 196.699219 374.773438 C 199.765625 374.625 202.824219 374.398438 205.878906 374.097656 C 208.933594 373.796875 211.976562 373.421875 215.011719 372.96875 C 218.046875 372.519531 221.070312 371.996094 224.078125 371.398438 C 227.089844 370.796875 230.082031 370.125 233.058594 369.378906 C 236.035156 368.636719 238.992188 367.816406 241.929688 366.925781 C 244.863281 366.035156 247.777344 365.074219 250.667969 364.039062 C 253.554688 363.003906 256.417969 361.902344 259.253906 360.726562 C 262.089844 359.554688 264.894531 358.308594 267.667969 356.996094 C 270.441406 355.6875 273.179688 354.308594 275.886719 352.859375 C 278.59375 351.414062 281.261719 349.902344 283.894531 348.324219 C 286.527344 346.746094 289.117188 345.105469 291.667969 343.402344 C 294.222656 341.695312 296.730469 339.929688 299.195312 338.101562 C 301.660156 336.273438 304.078125 334.386719 306.449219 332.4375 C 308.820312 330.492188 311.144531 328.488281 313.417969 326.429688 C 315.691406 324.367188 317.914062 322.253906 320.082031 320.082031 C 322.253906 317.914062 324.367188 315.691406 326.429688 313.417969 C 328.488281 311.144531 330.492188 308.820312 332.441406 306.449219 C 334.386719 304.078125 336.273438 301.660156 338.101562 299.195312 C 339.929688 296.730469 341.695312 294.222656 343.402344 291.667969 C 345.105469 289.117188 346.746094 286.527344 348.324219 283.894531 C 349.902344 281.261719 351.414062 278.59375 352.859375 275.886719 C 354.308594 273.179688 355.6875 270.441406 356.996094 267.667969 C 358.308594 264.894531 359.554688 262.089844 360.726562 259.253906 C 361.902344 256.417969 363.003906 253.554688 364.039062 250.667969 C 365.074219 247.777344 366.035156 244.863281 366.925781 241.929688 C 367.816406 238.992188 368.636719 236.035156 369.378906 233.058594 C 370.125 230.082031 370.796875 227.089844 371.398438 224.078125 C 371.996094 221.070312 372.519531 218.046875 372.96875 215.011719 C 373.421875 211.976562 373.796875 208.933594 374.097656 205.878906 C 374.398438 202.824219 374.625 199.765625 374.773438 196.699219 C 374.925781 193.636719 375 190.570312 375 187.5 C 375 184.429688 374.925781 181.363281 374.773438 178.300781 C 374.621094 175.234375 374.394531 172.175781 374.09375 169.121094 C 373.792969 166.070312 373.417969 163.023438 372.96875 159.988281 C 372.515625 156.953125 371.992188 153.933594 371.394531 150.921875 C 370.792969 147.914062 370.121094 144.917969 369.375 141.941406 C 368.628906 138.96875 367.8125 136.011719 366.921875 133.074219 C 366.03125 130.136719 365.066406 127.226562 364.035156 124.335938 C 363 121.445312 361.894531 118.585938 360.722656 115.75 C 359.546875 112.914062 358.304688 110.113281 356.992188 107.335938 C 355.679688 104.5625 354.300781 101.824219 352.851562 99.117188 C 351.40625 96.410156 349.894531 93.742188 348.316406 91.109375 C 346.738281 88.480469 345.097656 85.886719 343.394531 83.335938 C 341.6875 80.785156 339.921875 78.277344 338.09375 75.8125 C 336.265625 73.347656 334.378906 70.929688 332.433594 68.558594 C 330.484375 66.1875 328.480469 63.863281 326.421875 61.589844 C 324.359375 59.316406 322.246094 57.09375 320.074219 54.925781 C 317.90625 52.753906 315.683594 50.640625 313.410156 48.578125 C 311.136719 46.519531 308.8125 44.515625 306.441406 42.566406 C 304.070312 40.621094 301.652344 38.734375 299.1875 36.90625 C 296.722656 35.078125 294.214844 33.3125 291.664062 31.605469 C 289.113281 29.902344 286.519531 28.261719 283.890625 26.683594 C 281.257812 25.105469 278.589844 23.59375 275.882812 22.148438 C 273.175781 20.699219 270.4375 19.320312 267.664062 18.007812 C 264.886719 16.695312 262.085938 15.453125 259.25 14.277344 C 256.414062 13.105469 253.550781 12 250.664062 10.964844 C 247.773438 9.933594 244.863281 8.96875 241.925781 8.078125 C 238.988281 7.1875 236.03125 6.371094 233.058594 5.625 C 230.082031 4.878906 227.085938 4.207031 224.078125 3.605469 C 221.066406 3.007812 218.046875 2.484375 215.011719 2.03125 C 211.976562 1.582031 208.929688 1.207031 205.878906 0.90625 C 202.824219 0.605469 199.765625 0.378906 196.699219 0.226562 C 193.636719 0.0742188 190.570312 0 187.5 0 Z M 134.648438 202.851562 C 134.648438 201.121094 134.734375 199.394531 134.90625 197.671875 C 135.074219 195.949219 135.328125 194.242188 135.667969 192.542969 C 136.007812 190.847656 136.425781 189.171875 136.929688 187.515625 C 137.433594 185.859375 138.015625 184.234375 138.679688 182.632812 C 139.339844 181.035156 140.082031 179.472656 140.898438 177.949219 C 141.714844 176.421875 142.601562 174.941406 143.566406 173.5 C 144.527344 172.0625 145.554688 170.675781 146.65625 169.335938 C 147.753906 168 148.914062 166.71875 150.136719 165.496094 C 151.359375 164.273438 152.640625 163.113281 153.980469 162.015625 C 155.316406 160.917969 156.707031 159.886719 158.144531 158.925781 C 159.585938 157.964844 161.066406 157.078125 162.59375 156.261719 C 164.121094 155.445312 165.683594 154.707031 167.28125 154.046875 C 168.878906 153.382812 170.507812 152.800781 172.164062 152.300781 C 173.820312 151.796875 175.496094 151.378906 177.191406 151.039062 C 178.890625 150.703125 180.597656 150.449219 182.320312 150.28125 C 184.042969 150.109375 185.769531 150.027344 187.5 150.027344 C 189.230469 150.027344 190.957031 150.109375 192.679688 150.28125 C 194.402344 150.449219 196.109375 150.703125 197.808594 151.039062 C 199.503906 151.378906 201.179688 151.796875 202.835938 152.300781 C 204.492188 152.800781 206.121094 153.382812 207.71875 154.046875 C 209.316406 154.707031 210.878906 155.445312 212.40625 156.261719 C 213.933594 157.078125 215.414062 157.964844 216.855469 158.925781 C 218.292969 159.886719 219.683594 160.917969 221.019531 162.015625 C 222.359375 163.113281 223.640625 164.273438 224.863281 165.496094 C 226.085938 166.71875 227.246094 168 228.34375 169.335938 C 229.445312 170.675781 230.472656 172.0625 231.433594 173.5 C 232.398438 174.941406 233.285156 176.421875 234.101562 177.949219 C 234.917969 179.472656 235.660156 181.035156 236.320312 182.632812 C 236.984375 184.234375 237.566406 185.859375 238.070312 187.515625 C 238.574219 189.171875 238.992188 190.847656 239.332031 192.542969 C 239.671875 194.242188 239.925781 195.949219 240.09375 197.671875 C 240.265625 199.394531 240.351562 201.121094 240.351562 202.851562 C 237.480469 272.988281 137.519531 272.988281 134.648438 202.851562 Z M 233.554688 262.96875 C 233.09375 262.507812 232.683594 262.003906 232.324219 261.460938 C 231.960938 260.917969 231.65625 260.34375 231.40625 259.742188 C 231.160156 259.136719 230.972656 258.515625 230.84375 257.875 C 230.71875 257.234375 230.65625 256.589844 230.65625 255.9375 C 230.65625 255.285156 230.71875 254.640625 230.84375 254 C 230.972656 253.359375 231.160156 252.738281 231.40625 252.132812 C 231.65625 251.53125 231.960938 250.957031 232.324219 250.414062 C 232.683594 249.871094 233.09375 249.367188 233.554688 248.90625 C 274.570312 208.652344 244.921875 137.34375 187.5 137.695312 C 130.078125 137.285156 100.429688 208.652344 141.445312 248.90625 C 141.90625 249.367188 142.316406 249.871094 142.675781 250.414062 C 143.039062 250.957031 143.34375 251.53125 143.59375 252.132812 C 143.839844 252.738281 144.027344 253.359375 144.15625 254 C 144.28125 254.640625 144.34375 255.285156 144.34375 255.9375 C 144.34375 256.589844 144.28125 257.234375 144.15625 257.875 C 144.027344 258.515625 143.839844 259.136719 143.59375 259.742188 C 143.34375 260.34375 143.039062 260.917969 142.675781 261.460938 C 142.316406 262.003906 141.90625 262.507812 141.445312 262.96875 C 140.976562 263.414062 140.46875 263.816406 139.921875 264.164062 C 139.375 264.515625 138.800781 264.8125 138.199219 265.050781 C 137.597656 265.292969 136.980469 265.476562 136.34375 265.597656 C 135.707031 265.71875 135.0625 265.78125 134.414062 265.78125 C 133.765625 265.78125 133.121094 265.71875 132.484375 265.597656 C 131.847656 265.476562 131.230469 265.292969 130.628906 265.050781 C 130.027344 264.8125 129.453125 264.515625 128.90625 264.164062 C 128.359375 263.816406 127.851562 263.414062 127.382812 262.96875 C 73.945312 210.058594 112.324219 117.65625 187.5 117.832031 C 262.675781 117.65625 301.054688 210.058594 247.617188 262.96875 C 247.15625 263.429688 246.652344 263.839844 246.109375 264.199219 C 245.566406 264.5625 244.992188 264.867188 244.390625 265.117188 C 243.785156 265.363281 243.164062 265.550781 242.523438 265.679688 C 241.882812 265.804688 241.238281 265.867188 240.585938 265.867188 C 239.933594 265.867188 239.289062 265.804688 238.648438 265.679688 C 238.007812 265.550781 237.386719 265.363281 236.78125 265.117188 C 236.179688 264.867188 235.605469 264.5625 235.0625 264.199219 C 234.519531 263.839844 234.015625 263.429688 233.554688 262.96875 Z M 271.171875 284.941406 C 270.714844 285.402344 270.21875 285.816406 269.679688 286.183594 C 269.140625 286.546875 268.574219 286.859375 267.972656 287.113281 C 267.375 287.367188 266.757812 287.558594 266.121094 287.691406 C 265.484375 287.824219 264.839844 287.894531 264.1875 287.898438 C 263.539062 287.90625 262.894531 287.847656 262.253906 287.726562 C 261.617188 287.605469 260.992188 287.425781 260.390625 287.183594 C 259.785156 286.941406 259.210938 286.640625 258.667969 286.289062 C 258.121094 285.933594 257.617188 285.527344 257.152344 285.074219 C 256.6875 284.621094 256.269531 284.125 255.902344 283.589844 C 255.53125 283.054688 255.21875 282.484375 254.960938 281.890625 C 254.703125 281.292969 254.507812 280.675781 254.371094 280.039062 C 254.234375 279.402344 254.160156 278.757812 254.152344 278.109375 C 254.140625 277.457031 254.195312 276.8125 254.3125 276.175781 C 254.425781 275.535156 254.605469 274.910156 254.84375 274.304688 C 255.082031 273.703125 255.378906 273.125 255.730469 272.578125 C 256.082031 272.03125 256.480469 271.523438 256.933594 271.054688 C 317.226562 210.175781 273.164062 105.292969 187.5 105.46875 C 100.957031 105.292969 57.246094 212.050781 119.355469 272.34375 C 119.824219 272.800781 120.242188 273.296875 120.613281 273.835938 C 120.984375 274.375 121.296875 274.941406 121.554688 275.542969 C 121.816406 276.144531 122.011719 276.761719 122.148438 277.402344 C 122.285156 278.042969 122.355469 278.6875 122.363281 279.339844 C 122.371094 279.996094 122.316406 280.640625 122.199219 281.285156 C 122.078125 281.925781 121.898438 282.550781 121.65625 283.160156 C 121.414062 283.765625 121.113281 284.34375 120.757812 284.890625 C 120.402344 285.4375 119.996094 285.945312 119.539062 286.414062 C 119.082031 286.882812 118.585938 287.300781 118.046875 287.671875 C 117.507812 288.039062 116.9375 288.355469 116.339844 288.613281 C 115.738281 288.867188 115.117188 289.066406 114.476562 289.199219 C 113.839844 289.335938 113.191406 289.40625 112.539062 289.414062 C 111.886719 289.421875 111.238281 289.367188 110.59375 289.246094 C 109.953125 289.125 109.328125 288.945312 108.722656 288.703125 C 108.117188 288.460938 107.539062 288.160156 106.992188 287.800781 C 106.445312 287.445312 105.9375 287.039062 105.46875 286.582031 C 30.703125 213.925781 83.261719 85.429688 187.5 85.605469 C 290.625 85.371094 343.710938 211.640625 271.171875 284.941406 Z M 154.511719 202.851562 C 154.511719 203.933594 154.566406 205.007812 154.671875 206.085938 C 154.777344 207.160156 154.933594 208.226562 155.144531 209.289062 C 155.355469 210.347656 155.617188 211.394531 155.933594 212.425781 C 156.246094 213.460938 156.609375 214.476562 157.023438 215.476562 C 157.4375 216.472656 157.898438 217.449219 158.40625 218.402344 C 158.917969 219.355469 159.472656 220.28125 160.070312 221.179688 C 160.671875 222.078125 161.3125 222.945312 162 223.777344 C 162.683594 224.613281 163.410156 225.414062 164.171875 226.179688 C 164.9375 226.941406 165.738281 227.667969 166.574219 228.351562 C 167.40625 229.039062 168.273438 229.679688 169.171875 230.28125 C 170.070312 230.878906 170.996094 231.433594 171.949219 231.945312 C 172.902344 232.453125 173.878906 232.914062 174.875 233.328125 C 175.875 233.742188 176.890625 234.105469 177.925781 234.417969 C 178.957031 234.734375 180.003906 234.996094 181.0625 235.207031 C 182.125 235.417969 183.191406 235.574219 184.265625 235.679688 C 185.339844 235.785156 186.417969 235.839844 187.5 235.839844 C 188.582031 235.839844 189.660156 235.785156 190.734375 235.679688 C 191.808594 235.574219 192.875 235.417969 193.9375 235.207031 C 194.996094 234.996094 196.042969 234.734375 197.074219 234.417969 C 198.109375 234.105469 199.125 233.742188 200.125 233.328125 C 201.121094 232.914062 202.097656 232.453125 203.050781 231.945312 C 204.003906 231.433594 204.929688 230.878906 205.828125 230.28125 C 206.726562 229.679688 207.59375 229.039062 208.425781 228.351562 C 209.261719 227.667969 210.0625 226.941406 210.828125 226.179688 C 211.589844 225.414062 212.316406 224.613281 213 223.777344 C 213.6875 222.945312 214.328125 222.078125 214.929688 221.179688 C 215.527344 220.28125 216.082031 219.355469 216.59375 218.402344 C 217.101562 217.449219 217.5625 216.472656 217.976562 215.476562 C 218.390625 214.476562 218.753906 213.460938 219.066406 212.425781 C 219.382812 211.394531 219.644531 210.347656 219.855469 209.289062 C 220.066406 208.226562 220.222656 207.160156 220.328125 206.085938 C 220.433594 205.007812 220.488281 203.933594 220.488281 202.851562 C 218.847656 159.199219 156.152344 159.140625 154.511719 202.851562 Z M 154.511719 202.851562 C 154.511719 203.933594 154.566406 205.007812 154.671875 206.085938 C 154.777344 207.160156 154.933594 208.226562 155.144531 209.289062 C 155.355469 210.347656 155.617188 211.394531 155.933594 212.425781 C 156.246094 213.460938 156.609375 214.476562 157.023438 215.476562 C 157.4375 216.472656 157.898438 217.449219 158.40625 218.402344 C 158.917969 219.355469 159.472656 220.28125 160.070312 221.179688 C 160.671875 222.078125 161.3125 222.945312 162 223.777344 C 162.683594 224.613281 163.410156 225.414062 164.171875 226.179688 C 164.9375 226.941406 165.738281 227.667969 166.574219 228.351562 C 167.40625 229.039062 168.273438 229.679688 169.171875 230.28125 C 170.070312 230.878906 170.996094 231.433594 171.949219 231.945312 C 172.902344 232.453125 173.878906 232.914062 174.875 233.328125 C 175.875 233.742188 176.890625 234.105469 177.925781 234.417969 C 178.957031 234.734375 180.003906 234.996094 181.0625 235.207031 C 182.125 235.417969 183.191406 235.574219 184.265625 235.679688 C 185.339844 235.785156 186.417969 235.839844 187.5 235.839844 C 188.582031 235.839844 189.660156 235.785156 190.734375 235.679688 C 191.808594 235.574219 192.875 235.417969 193.9375 235.207031 C 194.996094 234.996094 196.042969 234.734375 197.074219 234.417969 C 198.109375 234.105469 199.125 233.742188 200.125 233.328125 C 201.121094 232.914062 202.097656 232.453125 203.050781 231.945312 C 204.003906 231.433594 204.929688 230.878906 205.828125 230.28125 C 206.726562 229.679688 207.59375 229.039062 208.425781 228.351562 C 209.261719 227.667969 210.0625 226.941406 210.828125 226.179688 C 211.589844 225.414062 212.316406 224.613281 213 223.777344 C 213.6875 222.945312 214.328125 222.078125 214.929688 221.179688 C 215.527344 220.28125 216.082031 219.355469 216.59375 218.402344 C 217.101562 217.449219 217.5625 216.472656 217.976562 215.476562 C 218.390625 214.476562 218.753906 213.460938 219.066406 212.425781 C 219.382812 211.394531 219.644531 210.347656 219.855469 209.289062 C 220.066406 208.226562 220.222656 207.160156 220.328125 206.085938 C 220.433594 205.007812 220.488281 203.933594 220.488281 202.851562 C 218.847656 159.199219 156.152344 159.140625 154.511719 202.851562 Z M 154.511719 202.851562 C 154.511719 203.933594 154.566406 205.007812 154.671875 206.085938 C 154.777344 207.160156 154.933594 208.226562 155.144531 209.289062 C 155.355469 210.347656 155.617188 211.394531 155.933594 212.425781 C 156.246094 213.460938 156.609375 214.476562 157.023438 215.476562 C 157.4375 216.472656 157.898438 217.449219 158.40625 218.402344 C 158.917969 219.355469 159.472656 220.28125 160.070312 221.179688 C 160.671875 222.078125 161.3125 222.945312 162 223.777344 C 162.683594 224.613281 163.410156 225.414062 164.171875 226.179688 C 164.9375 226.941406 165.738281 227.667969 166.574219 228.351562 C 167.40625 229.039062 168.273438 229.679688 169.171875 230.28125 C 170.070312 230.878906 170.996094 231.433594 171.949219 231.945312 C 172.902344 232.453125 173.878906 232.914062 174.875 233.328125 C 175.875 233.742188 176.890625 234.105469 177.925781 234.417969 C 178.957031 234.734375 180.003906 234.996094 181.0625 235.207031 C 182.125 235.417969 183.191406 235.574219 184.265625 235.679688 C 185.339844 235.785156 186.417969 235.839844 187.5 235.839844 C 188.582031 235.839844 189.660156 235.785156 190.734375 235.679688 C 191.808594 235.574219 192.875 235.417969 193.9375 235.207031 C 194.996094 234.996094 196.042969 234.734375 197.074219 234.417969 C 198.109375 234.105469 199.125 233.742188 200.125 233.328125 C 201.121094 232.914062 202.097656 232.453125 203.050781 231.945312 C 204.003906 231.433594 204.929688 230.878906 205.828125 230.28125 C 206.726562 229.679688 207.59375 229.039062 208.425781 228.351562 C 209.261719 227.667969 210.0625 226.941406 210.828125 226.179688 C 211.589844 225.414062 212.316406 224.613281 213 223.777344 C 213.6875 222.945312 214.328125 222.078125 214.929688 221.179688 C 215.527344 220.28125 216.082031 219.355469 216.59375 218.402344 C 217.101562 217.449219 217.5625 216.472656 217.976562 215.476562 C 218.390625 214.476562 218.753906 213.460938 219.066406 212.425781 C 219.382812 211.394531 219.644531 210.347656 219.855469 209.289062 C 220.066406 208.226562 220.222656 207.160156 220.328125 206.085938 C 220.433594 205.007812 220.488281 203.933594 220.488281 202.851562 C 218.847656 159.199219 156.152344 159.140625 154.511719 202.851562 Z M 154.511719 202.851562 C 154.511719 203.933594 154.566406 205.007812 154.671875 206.085938 C 154.777344 207.160156 154.933594 208.226562 155.144531 209.289062 C 155.355469 210.347656 155.617188 211.394531 155.933594 212.425781 C 156.246094 213.460938 156.609375 214.476562 157.023438 215.476562 C 157.4375 216.472656 157.898438 217.449219 158.40625 218.402344 C 158.917969 219.355469 159.472656 220.28125 160.070312 221.179688 C 160.671875 222.078125 161.3125 222.945312 162 223.777344 C 162.683594 224.613281 163.410156 225.414062 164.171875 226.179688 C 164.9375 226.941406 165.738281 227.667969 166.574219 228.351562 C 167.40625 229.039062 168.273438 229.679688 169.171875 230.28125 C 170.070312 230.878906 170.996094 231.433594 171.949219 231.945312 C 172.902344 232.453125 173.878906 232.914062 174.875 233.328125 C 175.875 233.742188 176.890625 234.105469 177.925781 234.417969 C 178.957031 234.734375 180.003906 234.996094 181.0625 235.207031 C 182.125 235.417969 183.191406 235.574219 184.265625 235.679688 C 185.339844 235.785156 186.417969 235.839844 187.5 235.839844 C 188.582031 235.839844 189.660156 235.785156 190.734375 235.679688 C 191.808594 235.574219 192.875 235.417969 193.9375 235.207031 C 194.996094 234.996094 196.042969 234.734375 197.074219 234.417969 C 198.109375 234.105469 199.125 233.742188 200.125 233.328125 C 201.121094 232.914062 202.097656 232.453125 203.050781 231.945312 C 204.003906 231.433594 204.929688 230.878906 205.828125 230.28125 C 206.726562 229.679688 207.59375 229.039062 208.425781 228.351562 C 209.261719 227.667969 210.0625 226.941406 210.828125 226.179688 C 211.589844 225.414062 212.316406 224.613281 213 223.777344 C 213.6875 222.945312 214.328125 222.078125 214.929688 221.179688 C 215.527344 220.28125 216.082031 219.355469 216.59375 218.402344 C 217.101562 217.449219 217.5625 216.472656 217.976562 215.476562 C 218.390625 214.476562 218.753906 213.460938 219.066406 212.425781 C 219.382812 211.394531 219.644531 210.347656 219.855469 209.289062 C 220.066406 208.226562 220.222656 207.160156 220.328125 206.085938 C 220.433594 205.007812 220.488281 203.933594 220.488281 202.851562 C 218.847656 159.199219 156.152344 159.140625 154.511719 202.851562 Z M 154.511719 202.851562 C 154.511719 203.933594 154.566406 205.007812 154.671875 206.085938 C 154.777344 207.160156 154.933594 208.226562 155.144531 209.289062 C 155.355469 210.347656 155.617188 211.394531 155.933594 212.425781 C 156.246094 213.460938 156.609375 214.476562 157.023438 215.476562 C 157.4375 216.472656 157.898438 217.449219 158.40625 218.402344 C 158.917969 219.355469 159.472656 220.28125 160.070312 221.179688 C 160.671875 222.078125 161.3125 222.945312 162 223.777344 C 162.683594 224.613281 163.410156 225.414062 164.171875 226.179688 C 164.9375 226.941406 165.738281 227.667969 166.574219 228.351562 C 167.40625 229.039062 168.273438 229.679688 169.171875 230.28125 C 170.070312 230.878906 170.996094 231.433594 171.949219 231.945312 C 172.902344 232.453125 173.878906 232.914062 174.875 233.328125 C 175.875 233.742188 176.890625 234.105469 177.925781 234.417969 C 178.957031 234.734375 180.003906 234.996094 181.0625 235.207031 C 182.125 235.417969 183.191406 235.574219 184.265625 235.679688 C 185.339844 235.785156 186.417969 235.839844 187.5 235.839844 C 188.582031 235.839844 189.660156 235.785156 190.734375 235.679688 C 191.808594 235.574219 192.875 235.417969 193.9375 235.207031 C 194.996094 234.996094 196.042969 234.734375 197.074219 234.417969 C 198.109375 234.105469 199.125 233.742188 200.125 233.328125 C 201.121094 232.914062 202.097656 232.453125 203.050781 231.945312 C 204.003906 231.433594 204.929688 230.878906 205.828125 230.28125 C 206.726562 229.679688 207.59375 229.039062 208.425781 228.351562 C 209.261719 227.667969 210.0625 226.941406 210.828125 226.179688 C 211.589844 225.414062 212.316406 224.613281 213 223.777344 C 213.6875 222.945312 214.328125 222.078125 214.929688 221.179688 C 215.527344 220.28125 216.082031 219.355469 216.59375 218.402344 C 217.101562 217.449219 217.5625 216.472656 217.976562 215.476562 C 218.390625 214.476562 218.753906 213.460938 219.066406 212.425781 C 219.382812 211.394531 219.644531 210.347656 219.855469 209.289062 C 220.066406 208.226562 220.222656 207.160156 220.328125 206.085938 C 220.433594 205.007812 220.488281 203.933594 220.488281 202.851562 C 218.847656 159.199219 156.152344 159.140625 154.511719 202.851562 Z M 154.511719 202.851562 C 154.511719 203.933594 154.566406 205.007812 154.671875 206.085938 C 154.777344 207.160156 154.933594 208.226562 155.144531 209.289062 C 155.355469 210.347656 155.617188 211.394531 155.933594 212.425781 C 156.246094 213.460938 156.609375 214.476562 157.023438 215.476562 C 157.4375 216.472656 157.898438 217.449219 158.40625 218.402344 C 158.917969 219.355469 159.472656 220.28125 160.070312 221.179688 C 160.671875 222.078125 161.3125 222.945312 162 223.777344 C 162.683594 224.613281 163.410156 225.414062 164.171875 226.179688 C 164.9375 226.941406 165.738281 227.667969 166.574219 228.351562 C 167.40625 229.039062 168.273438 229.679688 169.171875 230.28125 C 170.070312 230.878906 170.996094 231.433594 171.949219 231.945312 C 172.902344 232.453125 173.878906 232.914062 174.875 233.328125 C 175.875 233.742188 176.890625 234.105469 177.925781 234.417969 C 178.957031 234.734375 180.003906 234.996094 181.0625 235.207031 C 182.125 235.417969 183.191406 235.574219 184.265625 235.679688 C 185.339844 235.785156 186.417969 235.839844 187.5 235.839844 C 188.582031 235.839844 189.660156 235.785156 190.734375 235.679688 C 191.808594 235.574219 192.875 235.417969 193.9375 235.207031 C 194.996094 234.996094 196.042969 234.734375 197.074219 234.417969 C 198.109375 234.105469 199.125 233.742188 200.125 233.328125 C 201.121094 232.914062 202.097656 232.453125 203.050781 231.945312 C 204.003906 231.433594 204.929688 230.878906 205.828125 230.28125 C 206.726562 229.679688 207.59375 229.039062 208.425781 228.351562 C 209.261719 227.667969 210.0625 226.941406 210.828125 226.179688 C 211.589844 225.414062 212.316406 224.613281 213 223.777344 C 213.6875 222.945312 214.328125 222.078125 214.929688 221.179688 C 215.527344 220.28125 216.082031 219.355469 216.59375 218.402344 C 217.101562 217.449219 217.5625 216.472656 217.976562 215.476562 C 218.390625 214.476562 218.753906 213.460938 219.066406 212.425781 C 219.382812 211.394531 219.644531 210.347656 219.855469 209.289062 C 220.066406 208.226562 220.222656 207.160156 220.328125 206.085938 C 220.433594 205.007812 220.488281 203.933594 220.488281 202.851562 C 218.847656 159.199219 156.152344 159.140625 154.511719 202.851562 Z M 154.511719 202.851562 C 154.511719 203.933594 154.566406 205.007812 154.671875 206.085938 C 154.777344 207.160156 154.933594 208.226562 155.144531 209.289062 C 155.355469 210.347656 155.617188 211.394531 155.933594 212.425781 C 156.246094 213.460938 156.609375 214.476562 157.023438 215.476562 C 157.4375 216.472656 157.898438 217.449219 158.40625 218.402344 C 158.917969 219.355469 159.472656 220.28125 160.070312 221.179688 C 160.671875 222.078125 161.3125 222.945312 162 223.777344 C 162.683594 224.613281 163.410156 225.414062 164.171875 226.179688 C 164.9375 226.941406 165.738281 227.667969 166.574219 228.351562 C 167.40625 229.039062 168.273438 229.679688 169.171875 230.28125 C 170.070312 230.878906 170.996094 231.433594 171.949219 231.945312 C 172.902344 232.453125 173.878906 232.914062 174.875 233.328125 C 175.875 233.742188 176.890625 234.105469 177.925781 234.417969 C 178.957031 234.734375 180.003906 234.996094 181.0625 235.207031 C 182.125 235.417969 183.191406 235.574219 184.265625 235.679688 C 185.339844 235.785156 186.417969 235.839844 187.5 235.839844 C 188.582031 235.839844 189.660156 235.785156 190.734375 235.679688 C 191.808594 235.574219 192.875 235.417969 193.9375 235.207031 C 194.996094 234.996094 196.042969 234.734375 197.074219 234.417969 C 198.109375 234.105469 199.125 233.742188 200.125 233.328125 C 201.121094 232.914062 202.097656 232.453125 203.050781 231.945312 C 204.003906 231.433594 204.929688 230.878906 205.828125 230.28125 C 206.726562 229.679688 207.59375 229.039062 208.425781 228.351562 C 209.261719 227.667969 210.0625 226.941406 210.828125 226.179688 C 211.589844 225.414062 212.316406 224.613281 213 223.777344 C 213.6875 222.945312 214.328125 222.078125 214.929688 221.179688 C 215.527344 220.28125 216.082031 219.355469 216.59375 218.402344 C 217.101562 217.449219 217.5625 216.472656 217.976562 215.476562 C 218.390625 214.476562 218.753906 213.460938 219.066406 212.425781 C 219.382812 211.394531 219.644531 210.347656 219.855469 209.289062 C 220.066406 208.226562 220.222656 207.160156 220.328125 206.085938 C 220.433594 205.007812 220.488281 203.933594 220.488281 202.851562 C 218.847656 159.199219 156.152344 159.140625 154.511719 202.851562 Z M 154.511719 202.851562 C 154.511719 203.933594 154.566406 205.007812 154.671875 206.085938 C 154.777344 207.160156 154.933594 208.226562 155.144531 209.289062 C 155.355469 210.347656 155.617188 211.394531 155.933594 212.425781 C 156.246094 213.460938 156.609375 214.476562 157.023438 215.476562 C 157.4375 216.472656 157.898438 217.449219 158.40625 218.402344 C 158.917969 219.355469 159.472656 220.28125 160.070312 221.179688 C 160.671875 222.078125 161.3125 222.945312 162 223.777344 C 162.683594 224.613281 163.410156 225.414062 164.171875 226.179688 C 164.9375 226.941406 165.738281 227.667969 166.574219 228.351562 C 167.40625 229.039062 168.273438 229.679688 169.171875 230.28125 C 170.070312 230.878906 170.996094 231.433594 171.949219 231.945312 C 172.902344 232.453125 173.878906 232.914062 174.875 233.328125 C 175.875 233.742188 176.890625 234.105469 177.925781 234.417969 C 178.957031 234.734375 180.003906 234.996094 181.0625 235.207031 C 182.125 235.417969 183.191406 235.574219 184.265625 235.679688 C 185.339844 235.785156 186.417969 235.839844 187.5 235.839844 C 188.582031 235.839844 189.660156 235.785156 190.734375 235.679688 C 191.808594 235.574219 192.875 235.417969 193.9375 235.207031 C 194.996094 234.996094 196.042969 234.734375 197.074219 234.417969 C 198.109375 234.105469 199.125 233.742188 200.125 233.328125 C 201.121094 232.914062 202.097656 232.453125 203.050781 231.945312 C 204.003906 231.433594 204.929688 230.878906 205.828125 230.28125 C 206.726562 229.679688 207.59375 229.039062 208.425781 228.351562 C 209.261719 227.667969 210.0625 226.941406 210.828125 226.179688 C 211.589844 225.414062 212.316406 224.613281 213 223.777344 C 213.6875 222.945312 214.328125 222.078125 214.929688 221.179688 C 215.527344 220.28125 216.082031 219.355469 216.59375 218.402344 C 217.101562 217.449219 217.5625 216.472656 217.976562 215.476562 C 218.390625 214.476562 218.753906 213.460938 219.066406 212.425781 C 219.382812 211.394531 219.644531 210.347656 219.855469 209.289062 C 220.066406 208.226562 220.222656 207.160156 220.328125 206.085938 C 220.433594 205.007812 220.488281 203.933594 220.488281 202.851562 C 218.847656 159.199219 156.152344 159.140625 154.511719 202.851562 Z M 154.511719 202.851562 C 154.511719 203.933594 154.566406 205.007812 154.671875 206.085938 C 154.777344 207.160156 154.933594 208.226562 155.144531 209.289062 C 155.355469 210.347656 155.617188 211.394531 155.933594 212.425781 C 156.246094 213.460938 156.609375 214.476562 157.023438 215.476562 C 157.4375 216.472656 157.898438 217.449219 158.40625 218.402344 C 158.917969 219.355469 159.472656 220.28125 160.070312 221.179688 C 160.671875 222.078125 161.3125 222.945312 162 223.777344 C 162.683594 224.613281 163.410156 225.414062 164.171875 226.179688 C 164.9375 226.941406 165.738281 227.667969 166.574219 228.351562 C 167.40625 229.039062 168.273438 229.679688 169.171875 230.28125 C 170.070312 230.878906 170.996094 231.433594 171.949219 231.945312 C 172.902344 232.453125 173.878906 232.914062 174.875 233.328125 C 175.875 233.742188 176.890625 234.105469 177.925781 234.417969 C 178.957031 234.734375 180.003906 234.996094 181.0625 235.207031 C 182.125 235.417969 183.191406 235.574219 184.265625 235.679688 C 185.339844 235.785156 186.417969 235.839844 187.5 235.839844 C 188.582031 235.839844 189.660156 235.785156 190.734375 235.679688 C 191.808594 235.574219 192.875 235.417969 193.9375 235.207031 C 194.996094 234.996094 196.042969 234.734375 197.074219 234.417969 C 198.109375 234.105469 199.125 233.742188 200.125 233.328125 C 201.121094 232.914062 202.097656 232.453125 203.050781 231.945312 C 204.003906 231.433594 204.929688 230.878906 205.828125 230.28125 C 206.726562 229.679688 207.59375 229.039062 208.425781 228.351562 C 209.261719 227.667969 210.0625 226.941406 210.828125 226.179688 C 211.589844 225.414062 212.316406 224.613281 213 223.777344 C 213.6875 222.945312 214.328125 222.078125 214.929688 221.179688 C 215.527344 220.28125 216.082031 219.355469 216.59375 218.402344 C 217.101562 217.449219 217.5625 216.472656 217.976562 215.476562 C 218.390625 214.476562 218.753906 213.460938 219.066406 212.425781 C 219.382812 211.394531 219.644531 210.347656 219.855469 209.289062 C 220.066406 208.226562 220.222656 207.160156 220.328125 206.085938 C 220.433594 205.007812 220.488281 203.933594 220.488281 202.851562 C 218.847656 159.199219 156.152344 159.140625 154.511719 202.851562 Z M 154.511719 202.851562 C 154.511719 203.933594 154.566406 205.007812 154.671875 206.085938 C 154.777344 207.160156 154.933594 208.226562 155.144531 209.289062 C 155.355469 210.347656 155.617188 211.394531 155.933594 212.425781 C 156.246094 213.460938 156.609375 214.476562 157.023438 215.476562 C 157.4375 216.472656 157.898438 217.449219 158.40625 218.402344 C 158.917969 219.355469 159.472656 220.28125 160.070312 221.179688 C 160.671875 222.078125 161.3125 222.945312 162 223.777344 C 162.683594 224.613281 163.410156 225.414062 164.171875 226.179688 C 164.9375 226.941406 165.738281 227.667969 166.574219 228.351562 C 167.40625 229.039062 168.273438 229.679688 169.171875 230.28125 C 170.070312 230.878906 170.996094 231.433594 171.949219 231.945312 C 172.902344 232.453125 173.878906 232.914062 174.875 233.328125 C 175.875 233.742188 176.890625 234.105469 177.925781 234.417969 C 178.957031 234.734375 180.003906 234.996094 181.0625 235.207031 C 182.125 235.417969 183.191406 235.574219 184.265625 235.679688 C 185.339844 235.785156 186.417969 235.839844 187.5 235.839844 C 188.582031 235.839844 189.660156 235.785156 190.734375 235.679688 C 191.808594 235.574219 192.875 235.417969 193.9375 235.207031 C 194.996094 234.996094 196.042969 234.734375 197.074219 234.417969 C 198.109375 234.105469 199.125 233.742188 200.125 233.328125 C 201.121094 232.914062 202.097656 232.453125 203.050781 231.945312 C 204.003906 231.433594 204.929688 230.878906 205.828125 230.28125 C 206.726562 229.679688 207.59375 229.039062 208.425781 228.351562 C 209.261719 227.667969 210.0625 226.941406 210.828125 226.179688 C 211.589844 225.414062 212.316406 224.613281 213 223.777344 C 213.6875 222.945312 214.328125 222.078125 214.929688 221.179688 C 215.527344 220.28125 216.082031 219.355469 216.59375 218.402344 C 217.101562 217.449219 217.5625 216.472656 217.976562 215.476562 C 218.390625 214.476562 218.753906 213.460938 219.066406 212.425781 C 219.382812 211.394531 219.644531 210.347656 219.855469 209.289062 C 220.066406 208.226562 220.222656 207.160156 220.328125 206.085938 C 220.433594 205.007812 220.488281 203.933594 220.488281 202.851562 C 218.847656 159.199219 156.152344 159.140625 154.511719 202.851562 Z M 154.511719 202.851562 C 154.511719 203.933594 154.566406 205.007812 154.671875 206.085938 C 154.777344 207.160156 154.933594 208.226562 155.144531 209.289062 C 155.355469 210.347656 155.617188 211.394531 155.933594 212.425781 C 156.246094 213.460938 156.609375 214.476562 157.023438 215.476562 C 157.4375 216.472656 157.898438 217.449219 158.40625 218.402344 C 158.917969 219.355469 159.472656 220.28125 160.070312 221.179688 C 160.671875 222.078125 161.3125 222.945312 162 223.777344 C 162.683594 224.613281 163.410156 225.414062 164.171875 226.179688 C 164.9375 226.941406 165.738281 227.667969 166.574219 228.351562 C 167.40625 229.039062 168.273438 229.679688 169.171875 230.28125 C 170.070312 230.878906 170.996094 231.433594 171.949219 231.945312 C 172.902344 232.453125 173.878906 232.914062 174.875 233.328125 C 175.875 233.742188 176.890625 234.105469 177.925781 234.417969 C 178.957031 234.734375 180.003906 234.996094 181.0625 235.207031 C 182.125 235.417969 183.191406 235.574219 184.265625 235.679688 C 185.339844 235.785156 186.417969 235.839844 187.5 235.839844 C 188.582031 235.839844 189.660156 235.785156 190.734375 235.679688 C 191.808594 235.574219 192.875 235.417969 193.9375 235.207031 C 194.996094 234.996094 196.042969 234.734375 197.074219 234.417969 C 198.109375 234.105469 199.125 233.742188 200.125 233.328125 C 201.121094 232.914062 202.097656 232.453125 203.050781 231.945312 C 204.003906 231.433594 204.929688 230.878906 205.828125 230.28125 C 206.726562 229.679688 207.59375 229.039062 208.425781 228.351562 C 209.261719 227.667969 210.0625 226.941406 210.828125 226.179688 C 211.589844 225.414062 212.316406 224.613281 213 223.777344 C 213.6875 222.945312 214.328125 222.078125 214.929688 221.179688 C 215.527344 220.28125 216.082031 219.355469 216.59375 218.402344 C 217.101562 217.449219 217.5625 216.472656 217.976562 215.476562 C 218.390625 214.476562 218.753906 213.460938 219.066406 212.425781 C 219.382812 211.394531 219.644531 210.347656 219.855469 209.289062 C 220.066406 208.226562 220.222656 207.160156 220.328125 206.085938 C 220.433594 205.007812 220.488281 203.933594 220.488281 202.851562 C 218.847656 159.199219 156.152344 159.140625 154.511719 202.851562 Z M 154.511719 202.851562 C 154.511719 203.933594 154.566406 205.007812 154.671875 206.085938 C 154.777344 207.160156 154.933594 208.226562 155.144531 209.289062 C 155.355469 210.347656 155.617188 211.394531 155.933594 212.425781 C 156.246094 213.460938 156.609375 214.476562 157.023438 215.476562 C 157.4375 216.472656 157.898438 217.449219 158.40625 218.402344 C 158.917969 219.355469 159.472656 220.28125 160.070312 221.179688 C 160.671875 222.078125 161.3125 222.945312 162 223.777344 C 162.683594 224.613281 163.410156 225.414062 164.171875 226.179688 C 164.9375 226.941406 165.738281 227.667969 166.574219 228.351562 C 167.40625 229.039062 168.273438 229.679688 169.171875 230.28125 C 170.070312 230.878906 170.996094 231.433594 171.949219 231.945312 C 172.902344 232.453125 173.878906 232.914062 174.875 233.328125 C 175.875 233.742188 176.890625 234.105469 177.925781 234.417969 C 178.957031 234.734375 180.003906 234.996094 181.0625 235.207031 C 182.125 235.417969 183.191406 235.574219 184.265625 235.679688 C 185.339844 235.785156 186.417969 235.839844 187.5 235.839844 C 188.582031 235.839844 189.660156 235.785156 190.734375 235.679688 C 191.808594 235.574219 192.875 235.417969 193.9375 235.207031 C 194.996094 234.996094 196.042969 234.734375 197.074219 234.417969 C 198.109375 234.105469 199.125 233.742188 200.125 233.328125 C 201.121094 232.914062 202.097656 232.453125 203.050781 231.945312 C 204.003906 231.433594 204.929688 230.878906 205.828125 230.28125 C 206.726562 229.679688 207.59375 229.039062 208.425781 228.351562 C 209.261719 227.667969 210.0625 226.941406 210.828125 226.179688 C 211.589844 225.414062 212.316406 224.613281 213 223.777344 C 213.6875 222.945312 214.328125 222.078125 214.929688 221.179688 C 215.527344 220.28125 216.082031 219.355469 216.59375 218.402344 C 217.101562 217.449219 217.5625 216.472656 217.976562 215.476562 C 218.390625 214.476562 218.753906 213.460938 219.066406 212.425781 C 219.382812 211.394531 219.644531 210.347656 219.855469 209.289062 C 220.066406 208.226562 220.222656 207.160156 220.328125 206.085938 C 220.433594 205.007812 220.488281 203.933594 220.488281 202.851562 C 218.847656 159.199219 156.152344 159.140625 154.511719 202.851562 Z M 154.511719 202.851562 C 154.511719 203.933594 154.566406 205.007812 154.671875 206.085938 C 154.777344 207.160156 154.933594 208.226562 155.144531 209.289062 C 155.355469 210.347656 155.617188 211.394531 155.933594 212.425781 C 156.246094 213.460938 156.609375 214.476562 157.023438 215.476562 C 157.4375 216.472656 157.898438 217.449219 158.40625 218.402344 C 158.917969 219.355469 159.472656 220.28125 160.070312 221.179688 C 160.671875 222.078125 161.3125 222.945312 162 223.777344 C 162.683594 224.613281 163.410156 225.414062 164.171875 226.179688 C 164.9375 226.941406 165.738281 227.667969 166.574219 228.351562 C 167.40625 229.039062 168.273438 229.679688 169.171875 230.28125 C 170.070312 230.878906 170.996094 231.433594 171.949219 231.945312 C 172.902344 232.453125 173.878906 232.914062 174.875 233.328125 C 175.875 233.742188 176.890625 234.105469 177.925781 234.417969 C 178.957031 234.734375 180.003906 234.996094 181.0625 235.207031 C 182.125 235.417969 183.191406 235.574219 184.265625 235.679688 C 185.339844 235.785156 186.417969 235.839844 187.5 235.839844 C 188.582031 235.839844 189.660156 235.785156 190.734375 235.679688 C 191.808594 235.574219 192.875 235.417969 193.9375 235.207031 C 194.996094 234.996094 196.042969 234.734375 197.074219 234.417969 C 198.109375 234.105469 199.125 233.742188 200.125 233.328125 C 201.121094 232.914062 202.097656 232.453125 203.050781 231.945312 C 204.003906 231.433594 204.929688 230.878906 205.828125 230.28125 C 206.726562 229.679688 207.59375 229.039062 208.425781 228.351562 C 209.261719 227.667969 210.0625 226.941406 210.828125 226.179688 C 211.589844 225.414062 212.316406 224.613281 213 223.777344 C 213.6875 222.945312 214.328125 222.078125 214.929688 221.179688 C 215.527344 220.28125 216.082031 219.355469 216.59375 218.402344 C 217.101562 217.449219 217.5625 216.472656 217.976562 215.476562 C 218.390625 214.476562 218.753906 213.460938 219.066406 212.425781 C 219.382812 211.394531 219.644531 210.347656 219.855469 209.289062 C 220.066406 208.226562 220.222656 207.160156 220.328125 206.085938 C 220.433594 205.007812 220.488281 203.933594 220.488281 202.851562 C 218.847656 159.199219 156.152344 159.140625 154.511719 202.851562 Z M 154.511719 202.851562 C 154.511719 203.933594 154.566406 205.007812 154.671875 206.085938 C 154.777344 207.160156 154.933594 208.226562 155.144531 209.289062 C 155.355469 210.347656 155.617188 211.394531 155.933594 212.425781 C 156.246094 213.460938 156.609375 214.476562 157.023438 215.476562 C 157.4375 216.472656 157.898438 217.449219 158.40625 218.402344 C 158.917969 219.355469 159.472656 220.28125 160.070312 221.179688 C 160.671875 222.078125 161.3125 222.945312 162 223.777344 C 162.683594 224.613281 163.410156 225.414062 164.171875 226.179688 C 164.9375 226.941406 165.738281 227.667969 166.574219 228.351562 C 167.40625 229.039062 168.273438 229.679688 169.171875 230.28125 C 170.070312 230.878906 170.996094 231.433594 171.949219 231.945312 C 172.902344 232.453125 173.878906 232.914062 174.875 233.328125 C 175.875 233.742188 176.890625 234.105469 177.925781 234.417969 C 178.957031 234.734375 180.003906 234.996094 181.0625 235.207031 C 182.125 235.417969 183.191406 235.574219 184.265625 235.679688 C 185.339844 235.785156 186.417969 235.839844 187.5 235.839844 C 188.582031 235.839844 189.660156 235.785156 190.734375 235.679688 C 191.808594 235.574219 192.875 235.417969 193.9375 235.207031 C 194.996094 234.996094 196.042969 234.734375 197.074219 234.417969 C 198.109375 234.105469 199.125 233.742188 200.125 233.328125 C 201.121094 232.914062 202.097656 232.453125 203.050781 231.945312 C 204.003906 231.433594 204.929688 230.878906 205.828125 230.28125 C 206.726562 229.679688 207.59375 229.039062 208.425781 228.351562 C 209.261719 227.667969 210.0625 226.941406 210.828125 226.179688 C 211.589844 225.414062 212.316406 224.613281 213 223.777344 C 213.6875 222.945312 214.328125 222.078125 214.929688 221.179688 C 215.527344 220.28125 216.082031 219.355469 216.59375 218.402344 C 217.101562 217.449219 217.5625 216.472656 217.976562 215.476562 C 218.390625 214.476562 218.753906 213.460938 219.066406 212.425781 C 219.382812 211.394531 219.644531 210.347656 219.855469 209.289062 C 220.066406 208.226562 220.222656 207.160156 220.328125 206.085938 C 220.433594 205.007812 220.488281 203.933594 220.488281 202.851562 C 218.847656 159.199219 156.152344 159.140625 154.511719 202.851562 Z M 154.511719 202.851562 C 154.511719 203.933594 154.566406 205.007812 154.671875 206.085938 C 154.777344 207.160156 154.933594 208.226562 155.144531 209.289062 C 155.355469 210.347656 155.617188 211.394531 155.933594 212.425781 C 156.246094 213.460938 156.609375 214.476562 157.023438 215.476562 C 157.4375 216.472656 157.898438 217.449219 158.40625 218.402344 C 158.917969 219.355469 159.472656 220.28125 160.070312 221.179688 C 160.671875 222.078125 161.3125 222.945312 162 223.777344 C 162.683594 224.613281 163.410156 225.414062 164.171875 226.179688 C 164.9375 226.941406 165.738281 227.667969 166.574219 228.351562 C 167.40625 229.039062 168.273438 229.679688 169.171875 230.28125 C 170.070312 230.878906 170.996094 231.433594 171.949219 231.945312 C 172.902344 232.453125 173.878906 232.914062 174.875 233.328125 C 175.875 233.742188 176.890625 234.105469 177.925781 234.417969 C 178.957031 234.734375 180.003906 234.996094 181.0625 235.207031 C 182.125 235.417969 183.191406 235.574219 184.265625 235.679688 C 185.339844 235.785156 186.417969 235.839844 187.5 235.839844 C 188.582031 235.839844 189.660156 235.785156 190.734375 235.679688 C 191.808594 235.574219 192.875 235.417969 193.9375 235.207031 C 194.996094 234.996094 196.042969 234.734375 197.074219 234.417969 C 198.109375 234.105469 199.125 233.742188 200.125 233.328125 C 201.121094 232.914062 202.097656 232.453125 203.050781 231.945312 C 204.003906 231.433594 204.929688 230.878906 205.828125 230.28125 C 206.726562 229.679688 207.59375 229.039062 208.425781 228.351562 C 209.261719 227.667969 210.0625 226.941406 210.828125 226.179688 C 211.589844 225.414062 212.316406 224.613281 213 223.777344 C 213.6875 222.945312 214.328125 222.078125 214.929688 221.179688 C 215.527344 220.28125 216.082031 219.355469 216.59375 218.402344 C 217.101562 217.449219 217.5625 216.472656 217.976562 215.476562 C 218.390625 214.476562 218.753906 213.460938 219.066406 212.425781 C 219.382812 211.394531 219.644531 210.347656 219.855469 209.289062 C 220.066406 208.226562 220.222656 207.160156 220.328125 206.085938 C 220.433594 205.007812 220.488281 203.933594 220.488281 202.851562 C 218.847656 159.199219 156.152344 159.140625 154.511719 202.851562 Z M 154.511719 202.851562 C 154.511719 203.933594 154.566406 205.007812 154.671875 206.085938 C 154.777344 207.160156 154.933594 208.226562 155.144531 209.289062 C 155.355469 210.347656 155.617188 211.394531 155.933594 212.425781 C 156.246094 213.460938 156.609375 214.476562 157.023438 215.476562 C 157.4375 216.472656 157.898438 217.449219 158.40625 218.402344 C 158.917969 219.355469 159.472656 220.28125 160.070312 221.179688 C 160.671875 222.078125 161.3125 222.945312 162 223.777344 C 162.683594 224.613281 163.410156 225.414062 164.171875 226.179688 C 164.9375 226.941406 165.738281 227.667969 166.574219 228.351562 C 167.40625 229.039062 168.273438 229.679688 169.171875 230.28125 C 170.070312 230.878906 170.996094 231.433594 171.949219 231.945312 C 172.902344 232.453125 173.878906 232.914062 174.875 233.328125 C 175.875 233.742188 176.890625 234.105469 177.925781 234.417969 C 178.957031 234.734375 180.003906 234.996094 181.0625 235.207031 C 182.125 235.417969 183.191406 235.574219 184.265625 235.679688 C 185.339844 235.785156 186.417969 235.839844 187.5 235.839844 C 188.582031 235.839844 189.660156 235.785156 190.734375 235.679688 C 191.808594 235.574219 192.875 235.417969 193.9375 235.207031 C 194.996094 234.996094 196.042969 234.734375 197.074219 234.417969 C 198.109375 234.105469 199.125 233.742188 200.125 233.328125 C 201.121094 232.914062 202.097656 232.453125 203.050781 231.945312 C 204.003906 231.433594 204.929688 230.878906 205.828125 230.28125 C 206.726562 229.679688 207.59375 229.039062 208.425781 228.351562 C 209.261719 227.667969 210.0625 226.941406 210.828125 226.179688 C 211.589844 225.414062 212.316406 224.613281 213 223.777344 C 213.6875 222.945312 214.328125 222.078125 214.929688 221.179688 C 215.527344 220.28125 216.082031 219.355469 216.59375 218.402344 C 217.101562 217.449219 217.5625 216.472656 217.976562 215.476562 C 218.390625 214.476562 218.753906 213.460938 219.066406 212.425781 C 219.382812 211.394531 219.644531 210.347656 219.855469 209.289062 C 220.066406 208.226562 220.222656 207.160156 220.328125 206.085938 C 220.433594 205.007812 220.488281 203.933594 220.488281 202.851562 C 218.847656 159.199219 156.152344 159.140625 154.511719 202.851562 Z M 154.511719 202.851562 C 154.511719 203.933594 154.566406 205.007812 154.671875 206.085938 C 154.777344 207.160156 154.933594 208.226562 155.144531 209.289062 C 155.355469 210.347656 155.617188 211.394531 155.933594 212.425781 C 156.246094 213.460938 156.609375 214.476562 157.023438 215.476562 C 157.4375 216.472656 157.898438 217.449219 158.40625 218.402344 C 158.917969 219.355469 159.472656 220.28125 160.070312 221.179688 C 160.671875 222.078125 161.3125 222.945312 162 223.777344 C 162.683594 224.613281 163.410156 225.414062 164.171875 226.179688 C 164.9375 226.941406 165.738281 227.667969 166.574219 228.351562 C 167.40625 229.039062 168.273438 229.679688 169.171875 230.28125 C 170.070312 230.878906 170.996094 231.433594 171.949219 231.945312 C 172.902344 232.453125 173.878906 232.914062 174.875 233.328125 C 175.875 233.742188 176.890625 234.105469 177.925781 234.417969 C 178.957031 234.734375 180.003906 234.996094 181.0625 235.207031 C 182.125 235.417969 183.191406 235.574219 184.265625 235.679688 C 185.339844 235.785156 186.417969 235.839844 187.5 235.839844 C 188.582031 235.839844 189.660156 235.785156 190.734375 235.679688 C 191.808594 235.574219 192.875 235.417969 193.9375 235.207031 C 194.996094 234.996094 196.042969 234.734375 197.074219 234.417969 C 198.109375 234.105469 199.125 233.742188 200.125 233.328125 C 201.121094 232.914062 202.097656 232.453125 203.050781 231.945312 C 204.003906 231.433594 204.929688 230.878906 205.828125 230.28125 C 206.726562 229.679688 207.59375 229.039062 208.425781 228.351562 C 209.261719 227.667969 210.0625 226.941406 210.828125 226.179688 C 211.589844 225.414062 212.316406 224.613281 213 223.777344 C 213.6875 222.945312 214.328125 222.078125 214.929688 221.179688 C 215.527344 220.28125 216.082031 219.355469 216.59375 218.402344 C 217.101562 217.449219 217.5625 216.472656 217.976562 215.476562 C 218.390625 214.476562 218.753906 213.460938 219.066406 212.425781 C 219.382812 211.394531 219.644531 210.347656 219.855469 209.289062 C 220.066406 208.226562 220.222656 207.160156 220.328125 206.085938 C 220.433594 205.007812 220.488281 203.933594 220.488281 202.851562 C 218.847656 159.199219 156.152344 159.140625 154.511719 202.851562 Z M 154.511719 202.851562 C 154.511719 203.933594 154.566406 205.007812 154.671875 206.085938 C 154.777344 207.160156 154.933594 208.226562 155.144531 209.289062 C 155.355469 210.347656 155.617188 211.394531 155.933594 212.425781 C 156.246094 213.460938 156.609375 214.476562 157.023438 215.476562 C 157.4375 216.472656 157.898438 217.449219 158.40625 218.402344 C 158.917969 219.355469 159.472656 220.28125 160.070312 221.179688 C 160.671875 222.078125 161.3125 222.945312 162 223.777344 C 162.683594 224.613281 163.410156 225.414062 164.171875 226.179688 C 164.9375 226.941406 165.738281 227.667969 166.574219 228.351562 C 167.40625 229.039062 168.273438 229.679688 169.171875 230.28125 C 170.070312 230.878906 170.996094 231.433594 171.949219 231.945312 C 172.902344 232.453125 173.878906 232.914062 174.875 233.328125 C 175.875 233.742188 176.890625 234.105469 177.925781 234.417969 C 178.957031 234.734375 180.003906 234.996094 181.0625 235.207031 C 182.125 235.417969 183.191406 235.574219 184.265625 235.679688 C 185.339844 235.785156 186.417969 235.839844 187.5 235.839844 C 188.582031 235.839844 189.660156 235.785156 190.734375 235.679688 C 191.808594 235.574219 192.875 235.417969 193.9375 235.207031 C 194.996094 234.996094 196.042969 234.734375 197.074219 234.417969 C 198.109375 234.105469 199.125 233.742188 200.125 233.328125 C 201.121094 232.914062 202.097656 232.453125 203.050781 231.945312 C 204.003906 231.433594 204.929688 230.878906 205.828125 230.28125 C 206.726562 229.679688 207.59375 229.039062 208.425781 228.351562 C 209.261719 227.667969 210.0625 226.941406 210.828125 226.179688 C 211.589844 225.414062 212.316406 224.613281 213 223.777344 C 213.6875 222.945312 214.328125 222.078125 214.929688 221.179688 C 215.527344 220.28125 216.082031 219.355469 216.59375 218.402344 C 217.101562 217.449219 217.5625 216.472656 217.976562 215.476562 C 218.390625 214.476562 218.753906 213.460938 219.066406 212.425781 C 219.382812 211.394531 219.644531 210.347656 219.855469 209.289062 C 220.066406 208.226562 220.222656 207.160156 220.328125 206.085938 C 220.433594 205.007812 220.488281 203.933594 220.488281 202.851562 C 218.847656 159.199219 156.152344 159.140625 154.511719 202.851562 Z M 154.511719 202.851562 C 154.511719 203.933594 154.566406 205.007812 154.671875 206.085938 C 154.777344 207.160156 154.933594 208.226562 155.144531 209.289062 C 155.355469 210.347656 155.617188 211.394531 155.933594 212.425781 C 156.246094 213.460938 156.609375 214.476562 157.023438 215.476562 C 157.4375 216.472656 157.898438 217.449219 158.40625 218.402344 C 158.917969 219.355469 159.472656 220.28125 160.070312 221.179688 C 160.671875 222.078125 161.3125 222.945312 162 223.777344 C 162.683594 224.613281 163.410156 225.414062 164.171875 226.179688 C 164.9375 226.941406 165.738281 227.667969 166.574219 228.351562 C 167.40625 229.039062 168.273438 229.679688 169.171875 230.28125 C 170.070312 230.878906 170.996094 231.433594 171.949219 231.945312 C 172.902344 232.453125 173.878906 232.914062 174.875 233.328125 C 175.875 233.742188 176.890625 234.105469 177.925781 234.417969 C 178.957031 234.734375 180.003906 234.996094 181.0625 235.207031 C 182.125 235.417969 183.191406 235.574219 184.265625 235.679688 C 185.339844 235.785156 186.417969 235.839844 187.5 235.839844 C 188.582031 235.839844 189.660156 235.785156 190.734375 235.679688 C 191.808594 235.574219 192.875 235.417969 193.9375 235.207031 C 194.996094 234.996094 196.042969 234.734375 197.074219 234.417969 C 198.109375 234.105469 199.125 233.742188 200.125 233.328125 C 201.121094 232.914062 202.097656 232.453125 203.050781 231.945312 C 204.003906 231.433594 204.929688 230.878906 205.828125 230.28125 C 206.726562 229.679688 207.59375 229.039062 208.425781 228.351562 C 209.261719 227.667969 210.0625 226.941406 210.828125 226.179688 C 211.589844 225.414062 212.316406 224.613281 213 223.777344 C 213.6875 222.945312 214.328125 222.078125 214.929688 221.179688 C 215.527344 220.28125 216.082031 219.355469 216.59375 218.402344 C 217.101562 217.449219 217.5625 216.472656 217.976562 215.476562 C 218.390625 214.476562 218.753906 213.460938 219.066406 212.425781 C 219.382812 211.394531 219.644531 210.347656 219.855469 209.289062 C 220.066406 208.226562 220.222656 207.160156 220.328125 206.085938 C 220.433594 205.007812 220.488281 203.933594 220.488281 202.851562 C 218.847656 159.199219 156.152344 159.140625 154.511719 202.851562 Z M 154.511719 202.851562 " fill-opacity="1" fill-rule="nonzero"/><g clip-path="url(#9bf792c59d)"><g clip-path="url(#b0ef5c5cde)"><path fill="#ffffff" d="M 166.8125 187.5 L 208.1875 187.5 L 208.1875 228.878906 L 166.8125 228.878906 Z M 166.8125 187.5 " fill-opacity="1" fill-rule="nonzero"/></g></g></svg>