<?xml version="1.0" encoding="UTF-8"?>
<svg version="1.1" xmlns="http://www.w3.org/2000/svg" width="200" height="200">
<path d="M0 0 C0.65468262 0.23605957 1.30936523 0.47211914 1.98388672 0.71533203 C27.0471339 10.004005 44.04161323 28.24667273 55.18554688 52.20849609 C58.2545152 58.95912245 60.35731453 65.50866786 59 73 C57.00832478 76.11199254 55.72909499 77.61304528 52.0625 78.43359375 C48.39799851 78.66262509 46.59878867 78.36862366 43.3984375 76.3984375 C40.42697655 73.42697655 39.75012473 71.093492 38.625 67.0625 C32.82310167 48.07804144 20.94513811 33.25409935 3.37573242 23.87402344 C-4.5206592 19.81136686 -12.36204403 17.05151454 -21 15 C-20.95359375 15.88042969 -20.9071875 16.76085937 -20.859375 17.66796875 C-20.82328125 18.82941406 -20.7871875 19.99085937 -20.75 21.1875 C-20.70359375 22.33605469 -20.6571875 23.48460938 -20.609375 24.66796875 C-21.07803292 28.66562083 -22.13908667 30.22039149 -25 33 C-28.91908586 34.14009771 -31.03158504 34.40888632 -34.8125 32.8125 C-37.16733018 30.86135499 -37.91981628 29.82397808 -39 27 C-39.1953125 23.984375 -39.1953125 23.984375 -39.125 20.75 C-39.10695313 19.67234375 -39.08890625 18.5946875 -39.0703125 17.484375 C-39.04710938 16.66453125 -39.02390625 15.8446875 -39 15 C-57.41965879 19.62574942 -57.41965879 19.62574942 -73 30 C-72.50628906 30.55429687 -72.01257813 31.10859375 -71.50390625 31.6796875 C-70.86324219 32.40414062 -70.22257812 33.12859375 -69.5625 33.875 C-68.92441406 34.59429687 -68.28632812 35.31359375 -67.62890625 36.0546875 C-65.59117471 38.4882374 -65.0411561 39.62959513 -64.6875 42.8125 C-65.07164358 46.7307645 -66.29256317 48.21293267 -69 51 C-72.01778937 52.50889469 -73.62322637 52.50026276 -77 52 C-79.23169129 50.38845733 -81.18163121 48.63062571 -83.16796875 46.7265625 C-85.08821784 44.82059101 -85.08821784 44.82059101 -88 43 C-88.26039062 43.69480469 -88.52078125 44.38960937 -88.7890625 45.10546875 C-90.12550914 48.30000733 -91.73402667 51.26344258 -93.375 54.3125 C-97.32222626 61.88632388 -99.26050504 69.68067629 -101 78 C-100.11957031 77.94199219 -99.23914063 77.88398437 -98.33203125 77.82421875 C-88.89810017 77.45775084 -88.89810017 77.45775084 -84.6875 80 C-82.34009077 84.17317196 -82.32078022 86.24546155 -83 91 C-84.87015094 93.43119623 -86.28138345 94.64069173 -89 96 C-91.04055005 96.07065617 -93.08334257 96.08421976 -95.125 96.0625 C-96.22070312 96.05347656 -97.31640625 96.04445313 -98.4453125 96.03515625 C-99.70988281 96.01775391 -99.70988281 96.01775391 -101 96 C-99.2267717 104.77281371 -96.9662771 112.84696066 -92.9375 120.875 C-92.5971875 121.55820313 -92.256875 122.24140625 -91.90625 122.9453125 C-90.20328674 126.20546006 -89.11432332 127.92378446 -86 130 C-85.27683594 129.25943359 -85.27683594 129.25943359 -84.5390625 128.50390625 C-83.90742187 127.86324219 -83.27578125 127.22257813 -82.625 126.5625 C-81.68527344 125.60537109 -81.68527344 125.60537109 -80.7265625 124.62890625 C-78.25655853 122.29860838 -77.13990453 122.01583825 -73.6875 121.625 C-70 122 -70 122 -67.0625 124.0625 C-65 127 -65 127 -64.25 130.3125 C-65.3402722 135.67300499 -68.1882747 138.22090933 -72 142 C-72.94904202 142.97155825 -73.89689139 143.94428248 -74.84375 144.91796875 C-83.62110181 153.86991527 -83.62110181 153.86991527 -88.3125 154.3125 C-93.65821865 153.859473 -95.89075961 151.23771685 -99.39453125 147.328125 C-116.23748508 125.88669104 -122.72289662 102.18602559 -121 75 C-118.01347923 51.08478974 -104.83138217 28.83764803 -86 14 C-61.54772126 -3.83473243 -29.0113142 -10.54672372 0 0 Z " fill="#ffffff" transform="translate(127,6)"/>
<path d="M0 0 C4.08446233 7.28099806 0.55097015 18.60413056 -0.75 26.375 C-0.94871768 27.6972431 -1.14728639 29.01950859 -1.34570312 30.34179688 C-1.55517578 31.59669922 -1.76464844 32.85160156 -1.98046875 34.14453125 C-2.16375732 35.28124268 -2.3470459 36.4179541 -2.53588867 37.58911133 C-3.80904149 41.27656154 -5.26631363 42.54295138 -8.5625 44.5625 C-14.61866846 44.67261215 -17.37749021 42.54336297 -21.5625 38.5625 C-24.73688293 39.96417237 -26.85648359 41.61625327 -29.28955078 44.07836914 C-30.00354034 44.79573746 -30.71752991 45.51310577 -31.45315552 46.25221252 C-32.59396072 47.41320717 -32.59396072 47.41320717 -33.7578125 48.59765625 C-34.54646698 49.3915123 -35.33512146 50.18536835 -36.14767456 51.00328064 C-38.66573945 53.5391574 -41.17701787 56.08161792 -43.6875 58.625 C-46.20598364 61.17107229 -48.72589659 63.71568721 -51.24874878 66.25743103 C-52.81850012 67.83946976 -54.38557105 69.42417331 -55.94973755 71.01173401 C-56.65742279 71.72595016 -57.36510803 72.44016632 -58.09423828 73.17602539 C-58.71726837 73.8073085 -59.34029846 74.43859161 -59.98220825 75.08900452 C-62.35650147 77.30284277 -63.50411588 77.55688614 -66.8125 77.875 C-74.70441222 77.21734065 -79.67214296 70.70163578 -84.9375 65.3125 C-85.67355469 64.56742187 -86.40960938 63.82234375 -87.16796875 63.0546875 C-88.97080047 61.22844238 -90.76876978 59.39767795 -92.5625 57.5625 C-95.82635402 58.99176588 -97.97476394 60.73535923 -100.47314453 63.26196289 C-101.2271756 64.01937271 -101.98120667 64.77678253 -102.75808716 65.55714417 C-103.9645137 66.78376015 -103.9645137 66.78376015 -105.1953125 68.03515625 C-106.02835907 68.87340439 -106.86140564 69.71165253 -107.71969604 70.57530212 C-110.38041527 73.25383845 -113.03435594 75.93896175 -115.6875 78.625 C-118.34864491 81.31373024 -121.01121799 84.00100579 -123.67672729 86.68540955 C-125.3355062 88.3564792 -126.99160518 90.03021399 -128.64480591 91.70680237 C-129.39253265 92.46106003 -130.1402594 93.21531769 -130.91064453 93.99243164 C-131.56920441 94.65924454 -132.22776428 95.32605743 -132.90628052 96.01307678 C-136.1368119 99.03529719 -139.05131212 98.88968348 -143.30078125 98.85546875 C-146.6167278 98.42594199 -148.31237627 96.95325646 -150.5625 94.5625 C-152.19273814 91.30202371 -152.0298535 89.18448965 -151.5625 85.5625 C-150.34785461 83.81530762 -150.34785461 83.81530762 -148.6809082 81.99804688 C-148.04214752 81.29848877 -147.40338684 80.59893066 -146.74526978 79.87817383 C-145.66479874 78.73191528 -145.66479874 78.73191528 -144.5625 77.5625 C-143.79005951 76.74225342 -143.01761902 75.92200684 -142.22177124 75.0769043 C-137.04131969 69.63443832 -131.78516433 64.2657174 -126.51273632 58.91248322 C-123.85566926 56.21427049 -121.20940699 53.50705735 -118.58569336 50.77636719 C-116.02561357 48.11235966 -113.4415855 45.47391396 -110.83907509 42.85136414 C-109.85879859 41.85522475 -108.88715399 40.8505083 -107.92485619 39.83699036 C-99.50524951 30.99052925 -99.50524951 30.99052925 -93.22241211 30.67773438 C-88.74059621 31.1702956 -86.32762964 32.61302838 -83.2109375 35.9375 C-82.34082031 36.83984375 -81.47070312 37.7421875 -80.57421875 38.671875 C-79.70410156 39.62578125 -78.83398438 40.5796875 -77.9375 41.5625 C-77.02871094 42.51640625 -76.11992188 43.4703125 -75.18359375 44.453125 C-72.95223962 46.80191882 -70.74755267 49.17071017 -68.5625 51.5625 C-64.36624091 49.92471955 -61.57573215 46.82926818 -58.484375 43.6796875 C-57.91293762 43.10542023 -57.34150024 42.53115295 -56.75274658 41.93948364 C-54.93457055 40.1101419 -53.12348508 38.27395807 -51.3125 36.4375 C-50.07858671 35.19355226 -48.84421678 33.9500573 -47.609375 32.70703125 C-44.58843257 29.66407633 -41.57382908 26.61496746 -38.5625 23.5625 C-39.78380549 20.9817323 -40.97284594 19.03491236 -42.75 16.75 C-44.5625 13.5625 -44.5625 13.5625 -44.5 9.875 C-43.5441868 6.49779337 -43.26661879 5.59400429 -40.5625 3.5625 C-37.70263672 2.76293945 -37.70263672 2.76293945 -34.2421875 2.17578125 C-32.9840625 1.95986328 -31.7259375 1.74394531 -30.4296875 1.52148438 C-29.77323242 1.41537842 -29.11677734 1.30927246 -28.44042969 1.19995117 C-26.46304958 0.87914511 -24.48927128 0.53638853 -22.515625 0.19335938 C-4.91200619 -2.75551567 -4.91200619 -2.75551567 0 0 Z " fill="#ffffff" transform="translate(192.5625,99.4375)"/>
<path d="M0 0 C2.79087765 2.50463379 3.81343809 4.16047141 4.625 7.8125 C3.98528089 11.07506744 3.35257075 12.13747455 1.375 14.6875 C0.83182129 15.39044189 0.28864258 16.09338379 -0.27099609 16.81762695 C-3.02791536 20.29744923 -5.81173256 23.75307889 -8.625 27.1875 C-10.27080395 29.20304101 -11.91636363 31.21859393 -13.5534668 33.24121094 C-14.77002412 34.72038038 -16.03420419 36.16019861 -17.30859375 37.58984375 C-19.36097036 40.51436192 -19.83361013 42.86827398 -20.4375 46.375 C-21.81487498 52.85891948 -23.37084837 57.23886869 -28.71484375 61.3046875 C-34.18452163 64.54846375 -39.78521239 64.8878268 -46 64 C-52.86331277 61.92937343 -56.74698107 57.86231817 -60.3125 51.75 C-61.97534434 45.09862266 -61.81520001 38.81430383 -58.30859375 32.8203125 C-55.93034954 29.51206831 -53.64359214 26.92116676 -50 25 C-48.21492166 24.77341111 -46.42084004 24.61316252 -44.625 24.5 C-35.58108748 23.42334375 -29.57869383 16.56381839 -23.03466797 10.76367188 C-20.14751155 8.26105393 -17.13500048 5.95613753 -14.0625 3.6875 C-13.12535156 2.99011719 -12.18820313 2.29273438 -11.22265625 1.57421875 C-7.10551955 -1.34178492 -4.95986474 -1.19720873 0 0 Z " fill="#ffffff" transform="translate(138,49)"/>
</svg>
