<svg width="49" height="49" viewBox="0 0 49 49" fill="none" xmlns="http://www.w3.org/2000/svg">
  <path d="M15.9594 23.6549C15.2966 23.6549 14.7594 24.1921 14.7594 24.8549C14.7594 25.5176 15.2966 26.0549 15.9594 26.0549H32.7594C33.4221 26.0549 33.9594 25.5176 33.9594 24.8549C33.9594 24.1921 33.4221 23.6549 32.7594 23.6549H15.9594Z" fill="#696969"/>
  <path d="M12.3594 18.8549C12.3594 19.5176 11.8221 20.0549 11.1594 20.0549C10.4966 20.0549 9.95938 19.5176 9.95938 18.8549C9.95938 18.1921 10.4966 17.6549 11.1594 17.6549C11.8221 17.6549 12.3594 18.1921 12.3594 18.8549Z" fill="#696969"/>
  <path d="M37.5594 20.0549C38.2221 20.0549 38.7594 19.5176 38.7594 18.8549C38.7594 18.1921 38.2221 17.6549 37.5594 17.6549C36.8966 17.6549 36.3594 18.1921 36.3594 18.8549C36.3594 19.5176 36.8966 20.0549 37.5594 20.0549Z" fill="#696969"/>
  <path d="M12.3594 30.8549C12.3594 31.5176 11.8221 32.0549 11.1594 32.0549C10.4966 32.0549 9.95938 31.5176 9.95938 30.8549C9.95938 30.1921 10.4966 29.6549 11.1594 29.6549C11.8221 29.6549 12.3594 30.1921 12.3594 30.8549Z" fill="#696969"/>
  <path d="M37.5594 32.0549C38.2221 32.0549 38.7594 31.5176 38.7594 30.8549C38.7594 30.1921 38.2221 29.6549 37.5594 29.6549C36.8966 29.6549 36.3594 30.1921 36.3594 30.8549C36.3594 31.5176 36.8966 32.0549 37.5594 32.0549Z" fill="#696969"/>
  <path fill-rule="evenodd" clip-rule="evenodd" d="M5.15938 15.2549C5.15938 13.9294 6.23389 12.8549 7.55938 12.8549H41.1594C42.4849 12.8549 43.5594 13.9294 43.5594 15.2549V34.4549C43.5594 35.7803 42.4849 36.8549 41.1594 36.8549H7.55938C6.23389 36.8549 5.15938 35.7803 5.15938 34.4549V15.2549ZM7.55938 15.2549H41.1594V34.4549H7.55938V15.2549Z" fill="#696969"/>
</svg>
