<svg width="49" height="49" viewBox="0 0 49 49" fill="none" xmlns="http://www.w3.org/2000/svg">
<path fill-rule="evenodd" clip-rule="evenodd" d="M13.0892 14.5149C13.0892 13.8522 13.6265 13.3149 14.2892 13.3149H33.0092C33.0488 13.3149 33.088 13.3169 33.1266 13.3206C39.0586 13.5091 43.8095 18.3772 43.8095 24.3549C43.8095 30.3332 39.0577 35.2016 33.125 35.3893C33.0869 35.393 33.0484 35.3948 33.0094 35.3948H32.8208L32.7695 35.3949L32.7182 35.3948H16.2094C15.5466 35.3948 15.0094 34.8576 15.0094 34.1948C15.0094 33.5321 15.5466 32.9948 16.2094 32.9948H25.8961C24.4695 31.8584 23.3307 30.3761 22.6067 28.6749H17.6494C16.9866 28.6749 16.4494 28.1376 16.4494 27.4749C16.4494 26.8121 16.9866 26.2749 17.6494 26.2749H21.8958C21.7865 25.6513 21.7295 25.0098 21.7295 24.3549C21.7295 20.8562 23.357 17.7376 25.8962 15.7149H14.2892C13.6265 15.7149 13.0892 15.1777 13.0892 14.5149ZM32.7241 32.9948C27.9732 32.9704 24.1295 29.1115 24.1295 24.3549C24.1295 19.5832 27.9977 15.7149 32.7695 15.7149C37.5412 15.7149 41.4095 19.5832 41.4095 24.3549C41.4095 29.1115 37.5657 32.9704 32.8149 32.9948H32.7241Z" fill="#696969"/>
<path d="M7.80936 20.9948C7.80936 20.3321 8.34662 19.7948 9.00936 19.7948H18.1294C18.7921 19.7948 19.3294 20.3321 19.3294 20.9948C19.3294 21.6576 18.7921 22.1948 18.1294 22.1948H9.00936C8.34662 22.1948 7.80936 21.6576 7.80936 20.9948Z" fill="#696969"/>
<path d="M5.40936 27.475C5.40936 26.8122 5.94662 26.275 6.60936 26.275H12.8494C13.5121 26.275 14.0494 26.8122 14.0494 27.475C14.0494 28.1377 13.5121 28.675 12.8494 28.675H6.60936C5.94662 28.675 5.40936 28.1377 5.40936 27.475Z" fill="#696969"/>
</svg>
