<svg width="49" height="49" viewBox="0 0 49 49" fill="none" xmlns="http://www.w3.org/2000/svg">
<path fill-rule="evenodd" clip-rule="evenodd" d="M30.1394 12.1148C30.1394 15.0309 27.7754 17.3948 24.8594 17.3948C21.9433 17.3948 19.5794 15.0309 19.5794 12.1148C19.5794 9.19878 21.9433 6.83484 24.8594 6.83484C27.7754 6.83484 30.1394 9.19878 30.1394 12.1148ZM27.7394 12.1148C27.7394 13.7054 26.45 14.9948 24.8594 14.9948C23.2688 14.9948 21.9794 13.7054 21.9794 12.1148C21.9794 10.5243 23.2688 9.23484 24.8594 9.23484C26.45 9.23484 27.7394 10.5243 27.7394 12.1148Z" fill="#696969"/>
<path d="M12.8586 13.7549C12.8366 13.0925 12.2817 12.5735 11.6193 12.5955C10.957 12.6176 10.4379 13.1725 10.46 13.8349C10.5281 15.8778 11.1658 17.4772 12.1309 18.7006C13.0847 19.9097 14.309 20.6902 15.4708 21.1954C16.6319 21.7002 17.7695 21.9472 18.6068 22.0697C19.0283 22.1314 19.3812 22.1626 19.6329 22.1784C19.7589 22.1864 19.8601 22.1905 19.9324 22.1926C19.9685 22.1937 19.9975 22.1942 20.0188 22.1945L20.045 22.1948L20.0536 22.1949L20.0569 22.1949C20.0574 22.1949 20.0593 22.1949 20.0593 20.9949V22.1949H23.6593V26.8943L18.8901 30.6699C18.3649 31.0857 17.9661 31.6397 17.7386 32.2697L14.8506 40.2672C14.6256 40.8905 14.9484 41.5783 15.5717 41.8034C16.1951 42.0285 16.8829 41.7057 17.108 41.0824L19.996 33.0849C20.0718 32.8749 20.2047 32.6902 20.3798 32.5516L24.4715 29.3123L30.7578 41.2346C31.0669 41.8208 31.7927 42.0455 32.379 41.7363C32.9652 41.4272 33.1899 40.7014 32.8808 40.1152L26.0593 27.178V22.1949H27.258C29.4452 22.1949 31.3021 23.1796 32.904 24.6295C34.5165 26.0891 35.7952 27.9522 36.8038 29.5542C37.1569 30.1151 37.8978 30.2835 38.4587 29.9304C39.0195 29.5772 39.1879 28.8363 38.8348 28.2755C37.8034 26.6375 36.3821 24.5407 34.5146 22.8502C32.6365 21.1502 30.2321 19.7949 27.2593 19.7949H20.0616L20.053 19.7948L20.0028 19.7936C19.9555 19.7922 19.8811 19.7893 19.7835 19.7832C19.588 19.7709 19.3015 19.7458 18.9543 19.695C18.2541 19.5926 17.3367 19.3896 16.4278 18.9944C15.5196 18.5995 14.6589 18.0301 14.0152 17.2141C13.3828 16.4126 12.9105 15.312 12.8586 13.7549Z" fill="#696969"/>
</svg>
