<svg xmlns="http://www.w3.org/2000/svg" xmlns:xlink="http://www.w3.org/1999/xlink" width="500" zoomAndPan="magnify" viewBox="0 0 375 374.999991" height="500" preserveAspectRatio="xMidYMid meet" version="1.0"><defs><clipPath id="0acb8af05c"><path d="M 22.195312 22.195312 L 352.945312 22.195312 L 352.945312 352.945312 L 22.195312 352.945312 Z M 22.195312 22.195312 " clip-rule="nonzero"/></clipPath><clipPath id="d0a40d9de7"><path d="M 57.972656 122.558594 L 120.222656 122.558594 L 120.222656 205.058594 L 57.972656 205.058594 Z M 57.972656 122.558594 " clip-rule="nonzero"/></clipPath></defs><g clip-path="url(#0acb8af05c)"><path fill="#025ed9" d="M 187.496094 22.195312 C 184.789062 22.195312 182.085938 22.261719 179.386719 22.394531 C 176.683594 22.527344 173.984375 22.726562 171.292969 22.992188 C 168.601562 23.257812 165.917969 23.589844 163.242188 23.984375 C 160.566406 24.382812 157.902344 24.84375 155.246094 25.375 C 152.59375 25.902344 149.957031 26.492188 147.332031 27.152344 C 144.707031 27.808594 142.101562 28.53125 139.511719 29.316406 C 136.921875 30.101562 134.355469 30.949219 131.808594 31.859375 C 129.261719 32.769531 126.738281 33.746094 124.238281 34.78125 C 121.738281 35.816406 119.265625 36.910156 116.820312 38.066406 C 114.375 39.222656 111.960938 40.441406 109.574219 41.714844 C 107.1875 42.992188 104.835938 44.324219 102.515625 45.714844 C 100.195312 47.105469 97.910156 48.550781 95.660156 50.054688 C 93.410156 51.558594 91.199219 53.113281 89.027344 54.726562 C 86.855469 56.339844 84.722656 58.003906 82.632812 59.71875 C 80.539062 61.433594 78.492188 63.199219 76.488281 65.019531 C 74.484375 66.835938 72.523438 68.699219 70.613281 70.613281 C 68.699219 72.523438 66.835938 74.484375 65.019531 76.488281 C 63.199219 78.492188 61.433594 80.539062 59.71875 82.632812 C 58.003906 84.722656 56.339844 86.855469 54.726562 89.027344 C 53.113281 91.199219 51.558594 93.410156 50.054688 95.660156 C 48.550781 97.910156 47.105469 100.195312 45.714844 102.515625 C 44.324219 104.835938 42.992188 107.1875 41.714844 109.574219 C 40.441406 111.960938 39.222656 114.375 38.066406 116.820312 C 36.910156 119.265625 35.816406 121.738281 34.78125 124.238281 C 33.746094 126.738281 32.769531 129.261719 31.859375 131.808594 C 30.949219 134.355469 30.101562 136.921875 29.316406 139.511719 C 28.53125 142.101562 27.808594 144.707031 27.152344 147.332031 C 26.492188 149.957031 25.902344 152.59375 25.375 155.246094 C 24.84375 157.902344 24.382812 160.566406 23.984375 163.242188 C 23.589844 165.917969 23.257812 168.601562 22.992188 171.292969 C 22.726562 173.984375 22.527344 176.683594 22.394531 179.386719 C 22.261719 182.085938 22.195312 184.789062 22.195312 187.496094 C 22.195312 190.199219 22.261719 192.90625 22.394531 195.605469 C 22.527344 198.308594 22.726562 201.003906 22.992188 203.699219 C 23.257812 206.390625 23.589844 209.074219 23.984375 211.75 C 24.382812 214.425781 24.84375 217.089844 25.375 219.742188 C 25.902344 222.398438 26.492188 225.035156 27.152344 227.660156 C 27.808594 230.285156 28.53125 232.890625 29.316406 235.480469 C 30.101562 238.070312 30.949219 240.636719 31.859375 243.183594 C 32.769531 245.730469 33.746094 248.253906 34.78125 250.753906 C 35.816406 253.253906 36.910156 255.726562 38.066406 258.171875 C 39.222656 260.617188 40.441406 263.03125 41.714844 265.417969 C 42.992188 267.804688 44.324219 270.15625 45.714844 272.476562 C 47.105469 274.796875 48.550781 277.082031 50.054688 279.332031 C 51.558594 281.582031 53.113281 283.792969 54.726562 285.964844 C 56.339844 288.136719 58.003906 290.269531 59.71875 292.359375 C 61.433594 294.453125 63.199219 296.5 65.019531 298.503906 C 66.835938 300.507812 68.699219 302.46875 70.613281 304.378906 C 72.523438 306.292969 74.484375 308.15625 76.488281 309.972656 C 78.492188 311.789062 80.539062 313.558594 82.632812 315.273438 C 84.722656 316.988281 86.855469 318.652344 89.027344 320.265625 C 91.199219 321.875 93.410156 323.433594 95.660156 324.9375 C 97.910156 326.441406 100.195312 327.886719 102.515625 329.277344 C 104.835938 330.667969 107.1875 332 109.574219 333.277344 C 111.960938 334.550781 114.375 335.769531 116.820312 336.925781 C 119.265625 338.082031 121.738281 339.175781 124.238281 340.210938 C 126.738281 341.246094 129.261719 342.21875 131.808594 343.132812 C 134.355469 344.042969 136.921875 344.890625 139.511719 345.675781 C 142.101562 346.460938 144.707031 347.183594 147.332031 347.839844 C 149.957031 348.5 152.59375 349.089844 155.246094 349.617188 C 157.902344 350.144531 160.566406 350.609375 163.242188 351.003906 C 165.917969 351.402344 168.601562 351.734375 171.292969 352 C 173.984375 352.265625 176.683594 352.464844 179.386719 352.59375 C 182.085938 352.726562 184.789062 352.792969 187.496094 352.792969 C 190.203125 352.792969 192.90625 352.726562 195.605469 352.59375 C 198.308594 352.464844 201.003906 352.265625 203.699219 352 C 206.390625 351.734375 209.074219 351.402344 211.75 351.003906 C 214.425781 350.609375 217.089844 350.144531 219.742188 349.617188 C 222.398438 349.089844 225.035156 348.5 227.660156 347.839844 C 230.285156 347.183594 232.890625 346.460938 235.480469 345.675781 C 238.070312 344.890625 240.636719 344.042969 243.183594 343.132812 C 245.730469 342.21875 248.253906 341.246094 250.753906 340.210938 C 253.253906 339.175781 255.726562 338.082031 258.171875 336.925781 C 260.617188 335.769531 263.03125 334.550781 265.417969 333.277344 C 267.804688 332 270.15625 330.667969 272.476562 329.277344 C 274.796875 327.886719 277.082031 326.441406 279.332031 324.9375 C 281.582031 323.433594 283.792969 321.875 285.964844 320.265625 C 288.136719 318.652344 290.269531 316.988281 292.359375 315.273438 C 294.453125 313.558594 296.5 311.789062 298.503906 309.972656 C 300.507812 308.15625 302.46875 306.292969 304.378906 304.378906 C 306.292969 302.46875 308.15625 300.507812 309.972656 298.503906 C 311.792969 296.5 313.558594 294.453125 315.273438 292.359375 C 316.988281 290.269531 318.652344 288.136719 320.265625 285.964844 C 321.875 283.792969 323.433594 281.582031 324.9375 279.332031 C 326.441406 277.082031 327.886719 274.796875 329.277344 272.476562 C 330.667969 270.15625 332 267.804688 333.277344 265.417969 C 334.550781 263.03125 335.769531 260.617188 336.925781 258.171875 C 338.082031 255.726562 339.175781 253.253906 340.210938 250.753906 C 341.246094 248.253906 342.21875 245.730469 343.132812 243.183594 C 344.042969 240.636719 344.890625 238.070312 345.675781 235.480469 C 346.460938 232.890625 347.183594 230.285156 347.839844 227.660156 C 348.5 225.035156 349.089844 222.398438 349.617188 219.742188 C 350.144531 217.089844 350.609375 214.425781 351.003906 211.75 C 351.402344 209.074219 351.734375 206.390625 352 203.699219 C 352.265625 201.003906 352.464844 198.308594 352.59375 195.605469 C 352.726562 192.90625 352.792969 190.199219 352.792969 187.496094 C 352.792969 184.792969 352.722656 182.089844 352.589844 179.386719 C 352.453125 176.6875 352.25 173.988281 351.984375 171.296875 C 351.71875 168.609375 351.382812 165.925781 350.984375 163.25 C 350.585938 160.574219 350.121094 157.910156 349.59375 155.257812 C 349.0625 152.605469 348.46875 149.96875 347.808594 147.347656 C 347.152344 144.722656 346.429688 142.117188 345.640625 139.53125 C 344.855469 136.941406 344.003906 134.375 343.09375 131.828125 C 342.179688 129.285156 341.207031 126.761719 340.171875 124.261719 C 339.132812 121.765625 338.039062 119.292969 336.878906 116.847656 C 335.722656 114.40625 334.507812 111.992188 333.230469 109.605469 C 331.953125 107.222656 330.621094 104.867188 329.230469 102.550781 C 327.839844 100.230469 326.390625 97.945312 324.886719 95.699219 C 323.386719 93.449219 321.828125 91.238281 320.214844 89.066406 C 318.605469 86.894531 316.941406 84.765625 315.226562 82.671875 C 313.507812 80.582031 311.742188 78.535156 309.925781 76.53125 C 308.109375 74.527344 306.246094 72.570312 304.332031 70.65625 C 302.421875 68.746094 300.464844 66.882812 298.460938 65.066406 C 296.457031 63.25 294.410156 61.480469 292.316406 59.765625 C 290.226562 58.050781 288.097656 56.386719 285.925781 54.773438 C 283.753906 53.164062 281.542969 51.605469 279.292969 50.101562 C 277.046875 48.601562 274.761719 47.152344 272.441406 45.761719 C 270.121094 44.371094 267.769531 43.039062 265.386719 41.761719 C 263 40.484375 260.585938 39.269531 258.140625 38.113281 C 255.699219 36.953125 253.226562 35.859375 250.730469 34.820312 C 248.230469 33.785156 245.707031 32.8125 243.164062 31.898438 C 240.617188 30.984375 238.050781 30.136719 235.460938 29.351562 C 232.875 28.5625 230.269531 27.839844 227.644531 27.183594 C 225.023438 26.523438 222.386719 25.929688 219.734375 25.398438 C 217.082031 24.871094 214.417969 24.40625 211.742188 24.007812 C 209.066406 23.609375 206.382812 23.273438 203.691406 23.007812 C 201 22.738281 198.304688 22.539062 195.605469 22.402344 C 192.902344 22.269531 190.199219 22.199219 187.496094 22.195312 Z M 269.832031 194.421875 L 143.886719 260.699219 C 142.734375 261.207031 141.527344 261.46875 140.269531 261.488281 C 138.796875 261.519531 137.433594 261.152344 136.175781 260.386719 C 135.59375 260.03125 135.070312 259.609375 134.597656 259.121094 C 134.125 258.632812 133.726562 258.089844 133.394531 257.496094 C 133.0625 256.90625 132.8125 256.277344 132.644531 255.621094 C 132.476562 254.964844 132.390625 254.292969 132.394531 253.617188 L 132.394531 121.375 C 132.390625 120.695312 132.476562 120.027344 132.644531 119.371094 C 132.8125 118.714844 133.0625 118.085938 133.394531 117.496094 C 133.726562 116.902344 134.125 116.359375 134.597656 115.871094 C 135.070312 115.382812 135.59375 114.960938 136.175781 114.605469 C 136.761719 114.277344 137.382812 114.023438 138.039062 113.855469 C 138.691406 113.683594 139.355469 113.597656 140.03125 113.597656 C 140.707031 113.597656 141.371094 113.683594 142.023438 113.855469 C 142.679688 114.023438 143.300781 114.277344 143.886719 114.605469 L 269.832031 180.882812 C 270.476562 181.203125 271.070312 181.601562 271.605469 182.085938 C 272.140625 182.570312 272.601562 183.117188 272.980469 183.730469 C 273.363281 184.339844 273.652344 184.996094 273.851562 185.6875 C 274.050781 186.382812 274.148438 187.089844 274.148438 187.8125 C 274.148438 188.53125 274.050781 189.238281 273.851562 189.933594 C 273.652344 190.628906 273.363281 191.28125 272.980469 191.890625 C 272.601562 192.503906 272.140625 193.050781 271.605469 193.535156 C 271.070312 194.019531 270.476562 194.421875 269.832031 194.738281 Z M 269.832031 194.421875 " fill-opacity="1" fill-rule="nonzero"/></g><g clip-path="url(#d0a40d9de7)"><path fill="#025ed9" d="M 63.527344 205.363281 C 65.335938 205.363281 67.402344 204.589844 69.535156 203.105469 L 115.53125 171.644531 C 118.503906 169.640625 120.117188 166.863281 120.117188 163.957031 C 120.117188 161.050781 118.503906 158.273438 115.53125 156.269531 L 69.601562 124.808594 C 67.46875 123.324219 65.335938 122.613281 63.527344 122.613281 C 60.105469 122.613281 57.972656 125.390625 57.972656 129.976562 L 57.972656 198 C 57.972656 202.585938 60.105469 205.363281 63.527344 205.363281 Z M 63.527344 205.363281 " fill-opacity="1" fill-rule="nonzero"/></g></svg>