<svg width="49" height="49" viewBox="0 0 49 49" fill="none" xmlns="http://www.w3.org/2000/svg">
<path fill-rule="evenodd" clip-rule="evenodd" d="M17.6084 5.50879C18.2711 5.50879 18.8084 6.04605 18.8084 6.70879V7.90879H20.0084C20.6711 7.90879 21.2084 8.44605 21.2084 9.10879V10.3088H22.4084C23.0711 10.3088 23.6084 10.846 23.6084 11.5088V22.3088C23.6084 22.9715 23.0711 23.5088 22.4084 23.5088H6.8084C6.14566 23.5088 5.6084 22.9715 5.6084 22.3088L5.6084 11.5088C5.6084 10.846 6.14566 10.3088 6.8084 10.3088H8.0084V9.10879C8.0084 8.44605 8.54566 7.90879 9.2084 7.90879H10.4084V6.70879C10.4084 6.04605 10.9457 5.50879 11.6084 5.50879L17.6084 5.50879ZM21.2084 21.1088V12.7088H18.8084V10.3088H16.4084V7.90879H12.8084V10.3088H10.4084V12.7088H8.0084L8.0084 21.1088H21.2084ZM17.6084 17.5088V19.9088H11.3684V17.5088H17.6084ZM17.6084 25.9088C18.2711 25.9088 18.8084 26.446 18.8084 27.1088V28.3088H20.0084C20.6711 28.3088 21.2084 28.846 21.2084 29.5088V30.7088H22.4084C23.0711 30.7088 23.6084 31.246 23.6084 31.9088V42.7088C23.6084 43.3715 23.0711 43.9088 22.4084 43.9088H6.8084C6.14566 43.9088 5.6084 43.3715 5.6084 42.7088L5.6084 31.9088C5.6084 31.246 6.14566 30.7088 6.8084 30.7088H8.0084V29.5088C8.0084 28.846 8.54566 28.3088 9.2084 28.3088H10.4084V27.1088C10.4084 26.446 10.9457 25.9088 11.6084 25.9088H17.6084ZM21.2084 41.5088V33.1088H18.8084V30.7088H16.4084V28.3088H12.8084V30.7088H10.4084V33.1088H8.0084L8.0084 41.5088H21.2084ZM17.6084 37.9088V40.3088H11.3684V37.9088H17.6084ZM39.2084 6.70879C39.2084 6.04605 38.6711 5.50879 38.0084 5.50879L32.0084 5.50879C31.3457 5.50879 30.8084 6.04605 30.8084 6.70879V7.90879H29.6084C28.9457 7.90879 28.4084 8.44605 28.4084 9.10879V10.3088H27.2084C26.5457 10.3088 26.0084 10.846 26.0084 11.5088V22.3088C26.0084 22.9715 26.5457 23.5088 27.2084 23.5088H42.8084C43.4711 23.5088 44.0084 22.9715 44.0084 22.3088V11.5088C44.0084 10.846 43.4711 10.3088 42.8084 10.3088H41.6084V9.10879C41.6084 8.44605 41.0711 7.90879 40.4084 7.90879H39.2084V6.70879ZM41.6084 12.7088V21.1088H28.4084V12.7088H30.8084V10.3088H33.2084V7.90879H36.8084V10.3088H39.2084V12.7088H41.6084ZM38.0084 19.9088V17.5088H31.7684V19.9088H38.0084ZM38.0084 25.9088C38.6711 25.9088 39.2084 26.446 39.2084 27.1088V28.3088H40.4084C41.0711 28.3088 41.6084 28.846 41.6084 29.5088V30.7088H42.8084C43.4711 30.7088 44.0084 31.246 44.0084 31.9088V42.7088C44.0084 43.3715 43.4711 43.9088 42.8084 43.9088H27.2084C26.5457 43.9088 26.0084 43.3715 26.0084 42.7088V31.9088C26.0084 31.246 26.5457 30.7088 27.2084 30.7088H28.4084V29.5088C28.4084 28.846 28.9457 28.3088 29.6084 28.3088H30.8084V27.1088C30.8084 26.446 31.3457 25.9088 32.0084 25.9088H38.0084ZM41.6084 41.5088V33.1088H39.2084V30.7088H36.8084V28.3088H33.2084V30.7088H30.8084V33.1088H28.4084V41.5088H41.6084ZM38.0084 37.9088V40.3088H31.7684V37.9088H38.0084Z" fill="#696969"/>
</svg>
