<svg width="49" height="49" viewBox="0 0 49 49" fill="none" xmlns="http://www.w3.org/2000/svg">
<path d="M34.6694 14.7549C34.1606 14.7549 33.6734 14.8533 33.2294 15.0357V11.3949C33.2294 9.27331 31.511 7.55491 29.3894 7.55491C28.8182 7.55491 28.2782 7.67971 27.791 7.90531C27.323 6.31411 25.8518 5.15491 24.1094 5.15491C22.3694 5.15491 20.8982 6.31411 20.4278 7.90291C19.9406 7.67971 19.4006 7.55491 18.8294 7.55491C16.7102 7.55491 14.9894 9.27331 14.9894 11.3949V12.6357C14.5454 12.4533 14.0582 12.3549 13.5494 12.3549C11.4302 12.3549 9.70938 14.0733 9.70938 16.1949V29.1549C9.70938 29.9733 9.77658 30.7749 9.91098 31.5549C11.051 38.3661 16.9742 43.5549 24.1094 43.5549C30.3806 43.5549 35.7134 39.5493 37.6886 33.9549C37.9622 33.1821 38.171 32.3805 38.3078 31.5549C38.4422 30.7749 38.5094 29.9733 38.5094 29.1549V18.5949C38.5094 16.4733 36.791 14.7549 34.6694 14.7549ZM36.1094 29.1549C36.1094 29.9757 36.0254 30.7797 35.867 31.5549C35.6966 32.3901 35.4398 33.1941 35.1062 33.9549C33.251 38.1909 29.0198 41.1549 24.1094 41.1549C18.3158 41.1549 13.4654 37.0269 12.3518 31.5549C12.1934 30.7797 12.1094 29.9757 12.1094 29.1549V16.1949C12.1094 15.4005 12.755 14.7549 13.5494 14.7549C14.3438 14.7549 14.9894 15.4005 14.9894 16.1949V25.7549C14.9894 26.3072 15.4371 26.7549 15.9894 26.7549H16.3894C16.9417 26.7549 17.3894 26.3072 17.3894 25.7549V11.3949C17.3894 10.6005 18.035 9.95491 18.8294 9.95491C19.6238 9.95491 20.2694 10.6005 20.2694 11.3949V23.3549C20.2694 23.9072 20.7171 24.3549 21.2694 24.3549H21.6694C22.2217 24.3549 22.6694 23.9072 22.6694 23.3549V8.99491C22.6694 8.20051 23.315 7.55491 24.1094 7.55491C24.9038 7.55491 25.5494 8.20051 25.5494 8.99491V23.3549C25.5494 23.9072 25.9971 24.3549 26.5494 24.3549H26.9494C27.5017 24.3549 27.9494 23.9072 27.9494 23.3549V11.3949C27.9494 10.6005 28.595 9.95491 29.3894 9.95491C30.1838 9.95491 30.8294 10.6005 30.8294 11.3949V28.1549C30.8294 28.7072 31.2771 29.1549 31.8294 29.1549H32.2294C32.7817 29.1549 33.2294 28.7072 33.2294 28.1549V18.5949C33.2294 18.4149 33.263 18.2445 33.323 18.0861C33.527 17.5437 34.0526 17.1549 34.6694 17.1549C35.4638 17.1549 36.1094 17.8005 36.1094 18.5949V29.1549Z" fill="#696969"/>
</svg>
