<svg xmlns="http://www.w3.org/2000/svg" xmlns:xlink="http://www.w3.org/1999/xlink" width="722" zoomAndPan="magnify" viewBox="0 0 541.5 675.000002" height="900" preserveAspectRatio="xMidYMid meet" version="1.0"><defs><clipPath id="3785e712d4"><path d="M 27.1875 91 L 513.964844 91 L 513.964844 545 L 27.1875 545 Z M 27.1875 91 " clip-rule="nonzero"/></clipPath><clipPath id="757d34f374"><path d="M 44.320312 382.222656 L 105.726562 382.222656 L 105.726562 443.632812 L 44.320312 443.632812 Z M 44.320312 382.222656 " clip-rule="nonzero"/></clipPath></defs><path fill="#025ed9" d="M 183.480469 225.238281 C 183.992188 225.441406 184.519531 225.59375 185.058594 225.695312 C 185.601562 225.796875 186.148438 225.84375 186.699219 225.835938 C 187.25 225.832031 187.792969 225.769531 188.332031 225.65625 C 188.871094 225.542969 189.394531 225.378906 189.902344 225.160156 C 190.40625 224.945312 190.886719 224.679688 191.34375 224.367188 C 191.796875 224.054688 192.214844 223.703125 192.601562 223.308594 C 192.984375 222.914062 193.328125 222.488281 193.628906 222.027344 C 193.929688 221.5625 194.183594 221.078125 194.386719 220.566406 C 205.179688 193.609375 235.765625 175.496094 270.5 175.496094 C 305.234375 175.496094 335.820312 193.609375 346.609375 220.566406 C 346.8125 221.078125 347.066406 221.566406 347.367188 222.03125 C 347.664062 222.496094 348.007812 222.925781 348.390625 223.320312 C 348.777344 223.71875 349.195312 224.074219 349.652344 224.386719 C 350.105469 224.699219 350.585938 224.964844 351.09375 225.183594 C 351.601562 225.402344 352.125 225.570312 352.664062 225.683594 C 353.207031 225.796875 353.75 225.859375 354.304688 225.867188 C 354.855469 225.875 355.402344 225.828125 355.945312 225.726562 C 356.488281 225.625 357.015625 225.472656 357.53125 225.265625 C 358.042969 225.0625 358.53125 224.808594 358.992188 224.507812 C 359.457031 224.203125 359.882812 223.859375 360.277344 223.476562 C 360.675781 223.089844 361.027344 222.667969 361.339844 222.210938 C 361.648438 221.757812 361.914062 221.273438 362.132812 220.765625 C 362.347656 220.257812 362.511719 219.734375 362.625 219.191406 C 362.738281 218.652344 362.796875 218.105469 362.800781 217.554688 C 362.808594 217 362.757812 216.453125 362.65625 215.910156 C 362.550781 215.367188 362.398438 214.84375 362.191406 214.328125 C 348.875 181.066406 312.03125 158.71875 270.5 158.71875 C 228.96875 158.71875 192.125 181.066406 178.808594 214.328125 C 178.605469 214.839844 178.453125 215.367188 178.351562 215.910156 C 178.25 216.449219 178.203125 216.996094 178.207031 217.546875 C 178.214844 218.097656 178.277344 218.644531 178.390625 219.183594 C 178.503906 219.722656 178.667969 220.246094 178.886719 220.75 C 179.101562 221.257812 179.367188 221.738281 179.679688 222.191406 C 179.988281 222.648438 180.34375 223.066406 180.738281 223.449219 C 181.128906 223.835938 181.558594 224.179688 182.019531 224.480469 C 182.480469 224.78125 182.96875 225.03125 183.480469 225.238281 Z M 183.480469 225.238281 " fill-opacity="1" fill-rule="nonzero"/><path fill="#025ed9" d="M 321.496094 237.480469 C 321.707031 237.988281 321.96875 238.46875 322.277344 238.925781 C 322.585938 239.382812 322.9375 239.804688 323.328125 240.191406 C 323.71875 240.578125 324.144531 240.925781 324.605469 241.230469 C 325.066406 241.53125 325.550781 241.789062 326.058594 241.996094 C 326.570312 242.203125 327.09375 242.359375 327.636719 242.464844 C 328.175781 242.570312 328.722656 242.621094 329.273438 242.617188 C 329.824219 242.617188 330.371094 242.558594 330.910156 242.449219 C 331.449219 242.339844 331.972656 242.175781 332.480469 241.960938 C 332.988281 241.75 333.472656 241.488281 333.925781 241.179688 C 334.382812 240.871094 334.804688 240.519531 335.195312 240.128906 C 335.582031 239.738281 335.925781 239.3125 336.230469 238.851562 C 336.535156 238.394531 336.789062 237.910156 337 237.398438 C 337.207031 236.886719 337.363281 236.363281 337.46875 235.820312 C 337.570312 235.28125 337.621094 234.734375 337.621094 234.183594 C 337.617188 233.632812 337.558594 233.089844 337.449219 232.546875 C 337.339844 232.007812 337.179688 231.484375 336.964844 230.976562 C 327.238281 207.828125 300.523438 192.277344 270.5 192.277344 C 240.472656 192.277344 213.761719 207.828125 204.035156 230.976562 C 203.820312 231.484375 203.660156 232.007812 203.550781 232.546875 C 203.441406 233.085938 203.382812 233.632812 203.378906 234.183594 C 203.378906 234.734375 203.429688 235.28125 203.535156 235.820312 C 203.640625 236.359375 203.796875 236.886719 204.003906 237.394531 C 204.210938 237.90625 204.46875 238.390625 204.773438 238.847656 C 205.074219 239.308594 205.421875 239.734375 205.808594 240.125 C 206.195312 240.515625 206.617188 240.867188 207.074219 241.175781 C 207.53125 241.484375 208.011719 241.742188 208.519531 241.957031 C 209.027344 242.171875 209.550781 242.332031 210.089844 242.441406 C 210.628906 242.550781 211.175781 242.609375 211.726562 242.613281 C 212.277344 242.613281 212.820312 242.5625 213.363281 242.460938 C 213.902344 242.355469 214.429688 242.199219 214.9375 241.992188 C 215.449219 241.785156 215.933594 241.527344 216.390625 241.226562 C 216.851562 240.921875 217.277344 240.578125 217.667969 240.1875 C 218.0625 239.800781 218.410156 239.378906 218.71875 238.925781 C 219.027344 238.46875 219.289062 237.988281 219.503906 237.480469 C 226.648438 220.480469 247.140625 209.058594 270.5 209.058594 C 293.855469 209.058594 314.351562 220.480469 321.496094 237.480469 Z M 321.496094 237.480469 " fill-opacity="1" fill-rule="nonzero"/><path fill="#025ed9" d="M 296.460938 254.566406 C 296.699219 255.0625 296.980469 255.527344 297.308594 255.964844 C 297.636719 256.40625 298.003906 256.808594 298.410156 257.175781 C 298.816406 257.542969 299.257812 257.867188 299.726562 258.148438 C 300.195312 258.425781 300.691406 258.660156 301.207031 258.84375 C 301.722656 259.027344 302.25 259.160156 302.792969 259.242188 C 303.335938 259.324219 303.878906 259.351562 304.425781 259.324219 C 304.972656 259.296875 305.511719 259.21875 306.046875 259.085938 C 306.578125 258.957031 307.089844 258.773438 307.585938 258.542969 C 308.082031 258.308594 308.550781 258.03125 308.992188 257.707031 C 309.4375 257.382812 309.839844 257.019531 310.210938 256.613281 C 310.582031 256.210938 310.910156 255.773438 311.195312 255.308594 C 311.480469 254.839844 311.714844 254.347656 311.90625 253.832031 C 312.09375 253.320312 312.230469 252.792969 312.316406 252.25 C 312.402344 251.707031 312.433594 251.164062 312.414062 250.617188 C 312.390625 250.070312 312.316406 249.53125 312.191406 248.996094 C 312.0625 248.464844 311.886719 247.949219 311.65625 247.449219 C 305.484375 234.265625 288.941406 225.40625 270.5 225.40625 C 252.054688 225.40625 235.515625 234.265625 229.339844 247.449219 C 229.113281 247.949219 228.933594 248.464844 228.808594 248.996094 C 228.679688 249.53125 228.605469 250.070312 228.585938 250.617188 C 228.5625 251.164062 228.59375 251.707031 228.679688 252.25 C 228.765625 252.792969 228.902344 253.320312 229.089844 253.832031 C 229.28125 254.347656 229.515625 254.839844 229.800781 255.304688 C 230.085938 255.773438 230.414062 256.210938 230.785156 256.613281 C 231.15625 257.019531 231.5625 257.382812 232.003906 257.707031 C 232.445312 258.03125 232.914062 258.308594 233.410156 258.539062 C 233.90625 258.773438 234.417969 258.953125 234.953125 259.085938 C 235.484375 259.21875 236.023438 259.296875 236.570312 259.324219 C 237.117188 259.347656 237.660156 259.320312 238.203125 259.242188 C 238.746094 259.160156 239.273438 259.027344 239.789062 258.84375 C 240.304688 258.660156 240.800781 258.425781 241.269531 258.144531 C 241.738281 257.863281 242.179688 257.542969 242.585938 257.175781 C 242.992188 256.808594 243.359375 256.40625 243.6875 255.964844 C 244.015625 255.527344 244.296875 255.0625 244.535156 254.566406 C 247.949219 247.277344 258.625 242.191406 270.496094 242.191406 C 282.367188 242.191406 293.046875 247.277344 296.460938 254.566406 Z M 296.460938 254.566406 " fill-opacity="1" fill-rule="nonzero"/><g clip-path="url(#3785e712d4)"><path fill="#025ed9" d="M 471.863281 360.078125 L 389.996094 360.078125 L 446.496094 101.777344 C 446.617188 101.242188 446.679688 100.695312 446.691406 100.144531 C 446.699219 99.59375 446.65625 99.046875 446.558594 98.503906 C 446.460938 97.964844 446.3125 97.4375 446.113281 96.921875 C 445.910156 96.410156 445.660156 95.921875 445.363281 95.457031 C 445.066406 94.992188 444.726562 94.5625 444.34375 94.167969 C 443.964844 93.769531 443.546875 93.414062 443.09375 93.097656 C 442.640625 92.785156 442.164062 92.515625 441.660156 92.296875 C 441.152344 92.074219 440.632812 91.90625 440.09375 91.789062 C 439.554688 91.671875 439.011719 91.605469 438.460938 91.597656 C 437.910156 91.585938 437.363281 91.628906 436.820312 91.726562 C 436.277344 91.824219 435.75 91.972656 435.238281 92.175781 C 434.726562 92.375 434.238281 92.625 433.773438 92.921875 C 433.308594 93.21875 432.878906 93.558594 432.480469 93.941406 C 432.085938 94.324219 431.730469 94.742188 431.414062 95.191406 C 431.097656 95.644531 430.832031 96.125 430.613281 96.628906 C 430.390625 97.132812 430.222656 97.65625 430.105469 98.191406 L 372.816406 360.078125 L 168.179688 360.078125 L 110.894531 98.195312 C 110.773438 97.65625 110.605469 97.132812 110.386719 96.628906 C 110.164062 96.125 109.898438 95.644531 109.582031 95.195312 C 109.269531 94.742188 108.914062 94.324219 108.515625 93.941406 C 108.117188 93.558594 107.6875 93.21875 107.222656 92.921875 C 106.761719 92.625 106.273438 92.375 105.757812 92.175781 C 105.246094 91.972656 104.71875 91.824219 104.175781 91.726562 C 103.632812 91.632812 103.085938 91.585938 102.535156 91.597656 C 101.984375 91.609375 101.441406 91.671875 100.902344 91.789062 C 100.367188 91.90625 99.84375 92.078125 99.339844 92.296875 C 98.832031 92.519531 98.355469 92.785156 97.902344 93.101562 C 97.449219 93.414062 97.035156 93.769531 96.652344 94.167969 C 96.269531 94.566406 95.929688 94.996094 95.632812 95.457031 C 95.335938 95.921875 95.085938 96.410156 94.886719 96.921875 C 94.683594 97.4375 94.535156 97.964844 94.4375 98.507812 C 94.339844 99.046875 94.296875 99.59375 94.308594 100.144531 C 94.316406 100.695312 94.382812 101.242188 94.5 101.78125 L 151.003906 360.078125 L 69.136719 360.078125 C 67.761719 360.082031 66.394531 360.148438 65.027344 360.285156 C 63.660156 360.421875 62.300781 360.625 60.957031 360.894531 C 59.609375 361.164062 58.277344 361.496094 56.964844 361.898438 C 55.648438 362.296875 54.359375 362.757812 53.089844 363.285156 C 51.820312 363.8125 50.582031 364.398438 49.371094 365.046875 C 48.160156 365.695312 46.984375 366.402344 45.839844 367.164062 C 44.699219 367.925781 43.597656 368.746094 42.535156 369.617188 C 41.472656 370.488281 40.457031 371.410156 39.488281 372.378906 C 38.515625 373.351562 37.59375 374.367188 36.722656 375.429688 C 35.851562 376.492188 35.035156 377.59375 34.269531 378.734375 C 33.507812 379.875 32.800781 381.054688 32.152344 382.265625 C 31.503906 383.476562 30.917969 384.714844 30.390625 385.984375 C 29.867188 387.253906 29.402344 388.542969 29.003906 389.859375 C 28.601562 391.171875 28.269531 392.503906 28 393.847656 C 27.730469 395.195312 27.527344 396.554688 27.390625 397.921875 C 27.257812 399.285156 27.1875 400.65625 27.1875 402.03125 L 27.1875 469.152344 C 27.1875 470.523438 27.257812 471.894531 27.390625 473.261719 C 27.527344 474.628906 27.730469 475.984375 28 477.332031 C 28.269531 478.679688 28.601562 480.007812 29.003906 481.324219 C 29.402344 482.636719 29.867188 483.929688 30.390625 485.199219 C 30.917969 486.464844 31.503906 487.707031 32.152344 488.917969 C 32.800781 490.128906 33.507812 491.304688 34.269531 492.445312 C 35.035156 493.589844 35.851562 494.691406 36.722656 495.75 C 37.59375 496.8125 38.515625 497.828125 39.488281 498.800781 C 40.457031 499.773438 41.472656 500.695312 42.535156 501.566406 C 43.597656 502.4375 44.699219 503.253906 45.839844 504.015625 C 46.984375 504.78125 48.160156 505.488281 49.371094 506.132812 C 50.582031 506.78125 51.820312 507.371094 53.089844 507.894531 C 54.359375 508.421875 55.648438 508.886719 56.964844 509.285156 C 58.277344 509.683594 59.609375 510.019531 60.957031 510.289062 C 62.300781 510.558594 63.660156 510.757812 65.027344 510.894531 C 66.394531 511.03125 67.761719 511.101562 69.136719 511.101562 L 73.332031 511.101562 L 95.984375 541.304688 C 96.777344 542.363281 97.765625 543.1875 98.945312 543.777344 C 100.125 544.367188 101.375 544.664062 102.695312 544.664062 L 446.691406 544.664062 C 448.011719 544.664062 449.261719 544.367188 450.445312 543.777344 C 451.625 543.1875 452.613281 542.363281 453.402344 541.304688 L 476.226562 510.875 C 477.503906 510.738281 478.769531 510.546875 480.027344 510.296875 C 481.28125 510.042969 482.527344 509.738281 483.753906 509.371094 C 484.984375 509.007812 486.195312 508.585938 487.386719 508.109375 C 488.578125 507.636719 489.742188 507.105469 490.886719 506.523438 C 492.027344 505.941406 493.140625 505.308594 494.226562 504.625 C 495.308594 503.941406 496.359375 503.207031 497.378906 502.425781 C 498.394531 501.644531 499.375 500.820312 500.316406 499.949219 C 501.257812 499.078125 502.15625 498.167969 503.015625 497.214844 C 503.875 496.261719 504.6875 495.273438 505.453125 494.246094 C 506.222656 493.21875 506.941406 492.160156 507.609375 491.066406 C 508.28125 489.972656 508.902344 488.851562 509.46875 487.703125 C 510.035156 486.550781 510.550781 485.378906 511.011719 484.183594 C 511.472656 482.984375 511.875 481.769531 512.226562 480.539062 C 512.574219 479.304688 512.867188 478.054688 513.101562 476.796875 C 513.335938 475.535156 513.511719 474.265625 513.632812 472.988281 C 513.75 471.714844 513.8125 470.433594 513.8125 469.152344 L 513.8125 402.03125 C 513.8125 400.65625 513.742188 399.285156 513.605469 397.921875 C 513.46875 396.554688 513.269531 395.195312 513 393.847656 C 512.730469 392.503906 512.394531 391.171875 511.996094 389.859375 C 511.597656 388.542969 511.132812 387.253906 510.605469 385.984375 C 510.082031 384.714844 509.492188 383.476562 508.84375 382.265625 C 508.195312 381.054688 507.492188 379.878906 506.726562 378.734375 C 505.964844 377.59375 505.148438 376.492188 504.277344 375.429688 C 503.402344 374.367188 502.484375 373.351562 501.511719 372.378906 C 500.539062 371.410156 499.523438 370.488281 498.460938 369.617188 C 497.402344 368.746094 496.300781 367.929688 495.15625 367.164062 C 494.015625 366.402344 492.839844 365.695312 491.628906 365.046875 C 490.417969 364.398438 489.175781 363.8125 487.910156 363.285156 C 486.640625 362.757812 485.347656 362.296875 484.035156 361.898438 C 482.71875 361.496094 481.390625 361.164062 480.042969 360.894531 C 478.695312 360.625 477.339844 360.421875 475.972656 360.285156 C 474.605469 360.148438 473.234375 360.082031 471.863281 360.078125 Z M 392.15625 427.199219 C 392.980469 427.199219 393.800781 427.28125 394.609375 427.441406 C 395.421875 427.605469 396.207031 427.84375 396.972656 428.160156 C 397.734375 428.476562 398.460938 428.863281 399.148438 429.320312 C 399.835938 429.78125 400.46875 430.300781 401.054688 430.886719 C 401.640625 431.472656 402.160156 432.105469 402.621094 432.792969 C 403.078125 433.480469 403.464844 434.207031 403.78125 434.96875 C 404.097656 435.734375 404.339844 436.519531 404.5 437.332031 C 404.660156 438.140625 404.742188 438.960938 404.742188 439.785156 C 404.742188 440.613281 404.660156 441.429688 404.5 442.242188 C 404.339844 443.050781 404.097656 443.839844 403.78125 444.601562 C 403.464844 445.367188 403.078125 446.089844 402.621094 446.777344 C 402.160156 447.464844 401.640625 448.101562 401.054688 448.683594 C 400.46875 449.269531 399.835938 449.792969 399.148438 450.25 C 398.460938 450.710938 397.734375 451.097656 396.972656 451.414062 C 396.207031 451.730469 395.421875 451.96875 394.609375 452.128906 C 393.800781 452.289062 392.980469 452.371094 392.15625 452.371094 C 391.328125 452.371094 390.511719 452.289062 389.699219 452.128906 C 388.890625 451.96875 388.101562 451.730469 387.339844 451.414062 C 386.578125 451.097656 385.851562 450.710938 385.164062 450.25 C 384.476562 449.792969 383.839844 449.269531 383.257812 448.683594 C 382.671875 448.101562 382.152344 447.464844 381.691406 446.777344 C 381.234375 446.089844 380.84375 445.367188 380.527344 444.601562 C 380.210938 443.839844 379.972656 443.050781 379.8125 442.242188 C 379.652344 441.429688 379.570312 440.613281 379.570312 439.785156 C 379.570312 438.960938 379.652344 438.140625 379.816406 437.332031 C 379.976562 436.523438 380.214844 435.734375 380.53125 434.972656 C 380.847656 434.210938 381.238281 433.484375 381.695312 432.796875 C 382.15625 432.109375 382.675781 431.476562 383.261719 430.890625 C 383.84375 430.308594 384.480469 429.785156 385.167969 429.328125 C 385.855469 428.867188 386.578125 428.480469 387.34375 428.164062 C 388.105469 427.847656 388.890625 427.605469 389.703125 427.445312 C 390.511719 427.28125 391.328125 427.203125 392.15625 427.199219 Z M 308.253906 427.199219 C 309.082031 427.199219 309.898438 427.28125 310.710938 427.441406 C 311.519531 427.605469 312.308594 427.84375 313.070312 428.160156 C 313.835938 428.476562 314.558594 428.863281 315.246094 429.320312 C 315.933594 429.78125 316.570312 430.300781 317.152344 430.886719 C 317.738281 431.472656 318.257812 432.105469 318.71875 432.792969 C 319.179688 433.480469 319.566406 434.207031 319.882812 434.96875 C 320.199219 435.734375 320.4375 436.519531 320.597656 437.332031 C 320.757812 438.140625 320.839844 438.960938 320.839844 439.785156 C 320.839844 440.613281 320.757812 441.429688 320.597656 442.242188 C 320.4375 443.050781 320.199219 443.839844 319.882812 444.601562 C 319.566406 445.367188 319.179688 446.089844 318.71875 446.777344 C 318.257812 447.464844 317.738281 448.101562 317.152344 448.683594 C 316.570312 449.269531 315.933594 449.792969 315.246094 450.25 C 314.558594 450.710938 313.835938 451.097656 313.070312 451.414062 C 312.308594 451.730469 311.519531 451.96875 310.710938 452.128906 C 309.898438 452.289062 309.082031 452.371094 308.253906 452.371094 C 307.429688 452.371094 306.609375 452.289062 305.800781 452.128906 C 304.988281 451.96875 304.203125 451.730469 303.4375 451.414062 C 302.675781 451.097656 301.949219 450.710938 301.261719 450.25 C 300.574219 449.792969 299.941406 449.269531 299.355469 448.683594 C 298.769531 448.101562 298.25 447.464844 297.789062 446.777344 C 297.332031 446.089844 296.945312 445.367188 296.628906 444.601562 C 296.3125 443.839844 296.074219 443.050781 295.910156 442.242188 C 295.75 441.429688 295.667969 440.613281 295.667969 439.785156 C 295.671875 438.960938 295.75 438.140625 295.914062 437.332031 C 296.074219 436.523438 296.316406 435.734375 296.632812 434.972656 C 296.949219 434.210938 297.335938 433.484375 297.796875 432.796875 C 298.253906 432.109375 298.777344 431.476562 299.359375 430.890625 C 299.945312 430.308594 300.578125 429.785156 301.265625 429.328125 C 301.953125 428.867188 302.679688 428.480469 303.441406 428.164062 C 304.203125 427.847656 304.992188 427.605469 305.800781 427.445312 C 306.609375 427.28125 307.429688 427.203125 308.253906 427.199219 Z M 224.355469 427.199219 C 225.179688 427.199219 226 427.28125 226.808594 427.441406 C 227.621094 427.605469 228.40625 427.84375 229.167969 428.160156 C 229.933594 428.476562 230.660156 428.863281 231.34375 429.320312 C 232.03125 429.78125 232.667969 430.300781 233.253906 430.886719 C 233.835938 431.472656 234.359375 432.105469 234.816406 432.792969 C 235.277344 433.480469 235.664062 434.207031 235.980469 434.96875 C 236.296875 435.734375 236.535156 436.519531 236.695312 437.332031 C 236.859375 438.140625 236.9375 438.960938 236.9375 439.785156 C 236.9375 440.613281 236.859375 441.429688 236.695312 442.242188 C 236.535156 443.050781 236.296875 443.839844 235.980469 444.601562 C 235.664062 445.367188 235.277344 446.089844 234.816406 446.777344 C 234.359375 447.464844 233.835938 448.101562 233.253906 448.683594 C 232.667969 449.269531 232.03125 449.792969 231.34375 450.25 C 230.660156 450.710938 229.933594 451.097656 229.167969 451.414062 C 228.40625 451.730469 227.621094 451.96875 226.808594 452.128906 C 226 452.289062 225.179688 452.371094 224.355469 452.371094 C 223.527344 452.371094 222.707031 452.289062 221.898438 452.128906 C 221.085938 451.96875 220.300781 451.730469 219.539062 451.414062 C 218.773438 451.097656 218.046875 450.710938 217.363281 450.25 C 216.675781 449.792969 216.039062 449.269531 215.453125 448.683594 C 214.871094 448.101562 214.347656 447.464844 213.890625 446.777344 C 213.429688 446.089844 213.042969 445.367188 212.726562 444.601562 C 212.410156 443.839844 212.171875 443.050781 212.011719 442.242188 C 211.847656 441.429688 211.769531 440.613281 211.769531 439.785156 C 211.769531 438.960938 211.851562 438.140625 212.011719 437.332031 C 212.175781 436.523438 212.414062 435.734375 212.730469 434.972656 C 213.046875 434.210938 213.433594 433.484375 213.894531 432.796875 C 214.351562 432.109375 214.875 431.476562 215.457031 430.890625 C 216.042969 430.308594 216.679688 429.785156 217.363281 429.328125 C 218.050781 428.867188 218.777344 428.480469 219.539062 428.164062 C 220.300781 427.847656 221.089844 427.605469 221.898438 427.445312 C 222.710938 427.28125 223.527344 427.203125 224.355469 427.199219 Z M 140.453125 427.199219 C 141.277344 427.199219 142.097656 427.28125 142.90625 427.441406 C 143.71875 427.605469 144.503906 427.84375 145.269531 428.160156 C 146.03125 428.476562 146.757812 428.863281 147.445312 429.320312 C 148.132812 429.78125 148.765625 430.300781 149.351562 430.886719 C 149.9375 431.472656 150.457031 432.105469 150.917969 432.792969 C 151.375 433.480469 151.761719 434.207031 152.078125 434.96875 C 152.394531 435.734375 152.632812 436.519531 152.796875 437.332031 C 152.957031 438.140625 153.039062 438.960938 153.039062 439.785156 C 153.039062 440.613281 152.957031 441.429688 152.796875 442.242188 C 152.632812 443.050781 152.394531 443.839844 152.078125 444.601562 C 151.761719 445.367188 151.375 446.089844 150.917969 446.777344 C 150.457031 447.464844 149.9375 448.101562 149.351562 448.683594 C 148.765625 449.269531 148.132812 449.792969 147.445312 450.25 C 146.757812 450.710938 146.03125 451.097656 145.269531 451.414062 C 144.503906 451.730469 143.71875 451.96875 142.90625 452.128906 C 142.097656 452.289062 141.277344 452.371094 140.453125 452.371094 C 139.625 452.371094 138.808594 452.289062 137.996094 452.128906 C 137.1875 451.96875 136.398438 451.730469 135.636719 451.414062 C 134.871094 451.097656 134.148438 450.710938 133.460938 450.25 C 132.773438 449.792969 132.136719 449.269531 131.554688 448.683594 C 130.96875 448.101562 130.449219 447.464844 129.988281 446.777344 C 129.527344 446.089844 129.140625 445.367188 128.824219 444.601562 C 128.507812 443.839844 128.269531 443.050781 128.109375 442.242188 C 127.949219 441.429688 127.867188 440.613281 127.867188 439.785156 C 127.867188 438.960938 127.949219 438.140625 128.113281 437.332031 C 128.273438 436.523438 128.511719 435.734375 128.828125 434.972656 C 129.144531 434.210938 129.535156 433.484375 129.992188 432.796875 C 130.453125 432.109375 130.972656 431.476562 131.558594 430.890625 C 132.140625 430.308594 132.777344 429.785156 133.464844 429.328125 C 134.152344 428.867188 134.875 428.480469 135.636719 428.164062 C 136.402344 427.847656 137.1875 427.605469 138 427.445312 C 138.808594 427.28125 139.625 427.203125 140.453125 427.199219 Z M 442.496094 527.882812 L 106.890625 527.882812 L 94.308594 511.101562 L 455.082031 511.101562 Z M 442.496094 527.882812 " fill-opacity="1" fill-rule="nonzero"/></g><path fill="#025ed9" d="M 278.890625 267.789062 C 278.890625 268.339844 278.835938 268.886719 278.726562 269.425781 C 278.621094 269.964844 278.460938 270.492188 278.25 271 C 278.039062 271.507812 277.78125 271.992188 277.476562 272.449219 C 277.167969 272.90625 276.820312 273.332031 276.433594 273.722656 C 276.042969 274.109375 275.617188 274.457031 275.160156 274.765625 C 274.703125 275.070312 274.21875 275.328125 273.710938 275.539062 C 273.199219 275.75 272.675781 275.910156 272.136719 276.015625 C 271.59375 276.125 271.050781 276.179688 270.5 276.179688 C 269.949219 276.179688 269.402344 276.125 268.863281 276.015625 C 268.320312 275.910156 267.796875 275.75 267.289062 275.539062 C 266.78125 275.328125 266.296875 275.070312 265.835938 274.765625 C 265.378906 274.457031 264.957031 274.109375 264.566406 273.722656 C 264.175781 273.332031 263.828125 272.90625 263.523438 272.449219 C 263.21875 271.992188 262.957031 271.507812 262.746094 271 C 262.535156 270.492188 262.378906 269.964844 262.269531 269.425781 C 262.164062 268.886719 262.109375 268.339844 262.109375 267.789062 C 262.109375 267.238281 262.164062 266.691406 262.269531 266.152344 C 262.378906 265.613281 262.535156 265.085938 262.746094 264.578125 C 262.957031 264.070312 263.21875 263.585938 263.523438 263.128906 C 263.828125 262.667969 264.175781 262.246094 264.566406 261.855469 C 264.957031 261.464844 265.378906 261.117188 265.835938 260.8125 C 266.296875 260.507812 266.78125 260.246094 267.289062 260.039062 C 267.796875 259.828125 268.320312 259.667969 268.863281 259.558594 C 269.402344 259.453125 269.949219 259.398438 270.5 259.398438 C 271.050781 259.398438 271.59375 259.453125 272.136719 259.558594 C 272.675781 259.667969 273.199219 259.828125 273.710938 260.039062 C 274.21875 260.246094 274.703125 260.507812 275.160156 260.8125 C 275.617188 261.117188 276.042969 261.464844 276.433594 261.855469 C 276.820312 262.246094 277.167969 262.667969 277.476562 263.128906 C 277.78125 263.585938 278.039062 264.070312 278.25 264.578125 C 278.460938 265.085938 278.621094 265.613281 278.726562 266.152344 C 278.835938 266.691406 278.890625 267.238281 278.890625 267.789062 Z M 278.890625 267.789062 " fill-opacity="1" fill-rule="nonzero"/><g clip-path="url(#757d34f374)"><path fill="#025ed9" d="M 105.832031 412.980469 C 105.832031 413.988281 105.785156 414.992188 105.683594 415.996094 C 105.585938 416.996094 105.4375 417.992188 105.242188 418.980469 C 105.046875 419.96875 104.800781 420.945312 104.507812 421.90625 C 104.214844 422.871094 103.878906 423.820312 103.492188 424.75 C 103.105469 425.679688 102.675781 426.589844 102.203125 427.476562 C 101.726562 428.367188 101.210938 429.230469 100.648438 430.066406 C 100.089844 430.90625 99.492188 431.714844 98.851562 432.492188 C 98.210938 433.269531 97.535156 434.015625 96.824219 434.726562 C 96.113281 435.441406 95.367188 436.117188 94.589844 436.753906 C 93.808594 437.394531 93 437.992188 92.164062 438.554688 C 91.328125 439.113281 90.464844 439.628906 89.574219 440.105469 C 88.6875 440.578125 87.777344 441.011719 86.847656 441.394531 C 85.914062 441.78125 84.96875 442.121094 84.003906 442.414062 C 83.039062 442.703125 82.0625 442.949219 81.078125 443.144531 C 80.089844 443.34375 79.09375 443.488281 78.089844 443.589844 C 77.089844 443.6875 76.082031 443.738281 75.074219 443.738281 C 74.070312 443.738281 73.0625 443.6875 72.0625 443.589844 C 71.058594 443.488281 70.0625 443.34375 69.074219 443.144531 C 68.085938 442.949219 67.113281 442.703125 66.148438 442.414062 C 65.183594 442.121094 64.238281 441.78125 63.304688 441.394531 C 62.375 441.011719 61.464844 440.578125 60.578125 440.105469 C 59.6875 439.628906 58.824219 439.113281 57.988281 438.554688 C 57.152344 437.992188 56.34375 437.394531 55.5625 436.753906 C 54.785156 436.117188 54.039062 435.441406 53.328125 434.726562 C 52.613281 434.015625 51.9375 433.269531 51.300781 432.492188 C 50.660156 431.714844 50.0625 430.90625 49.503906 430.066406 C 48.941406 429.230469 48.425781 428.367188 47.949219 427.476562 C 47.476562 426.589844 47.046875 425.679688 46.660156 424.75 C 46.273438 423.820312 45.9375 422.871094 45.644531 421.90625 C 45.351562 420.945312 45.105469 419.96875 44.910156 418.980469 C 44.714844 417.992188 44.566406 416.996094 44.46875 415.996094 C 44.367188 414.992188 44.320312 413.988281 44.320312 412.980469 C 44.320312 411.972656 44.367188 410.96875 44.46875 409.964844 C 44.566406 408.960938 44.714844 407.96875 44.910156 406.980469 C 45.105469 405.992188 45.351562 405.015625 45.644531 404.050781 C 45.9375 403.085938 46.273438 402.140625 46.660156 401.210938 C 47.046875 400.277344 47.476562 399.367188 47.949219 398.480469 C 48.425781 397.59375 48.941406 396.730469 49.503906 395.890625 C 50.0625 395.054688 50.660156 394.246094 51.300781 393.46875 C 51.9375 392.6875 52.613281 391.941406 53.328125 391.230469 C 54.039062 390.519531 54.785156 389.84375 55.5625 389.203125 C 56.34375 388.566406 57.152344 387.964844 57.988281 387.40625 C 58.824219 386.847656 59.6875 386.328125 60.578125 385.855469 C 61.464844 385.378906 62.375 384.949219 63.304688 384.5625 C 64.238281 384.179688 65.183594 383.839844 66.148438 383.546875 C 67.113281 383.253906 68.085938 383.011719 69.074219 382.8125 C 70.0625 382.617188 71.058594 382.46875 72.0625 382.371094 C 73.0625 382.273438 74.070312 382.222656 75.074219 382.222656 C 76.082031 382.222656 77.089844 382.273438 78.089844 382.371094 C 79.09375 382.46875 80.089844 382.617188 81.078125 382.8125 C 82.0625 383.011719 83.039062 383.253906 84.003906 383.546875 C 84.96875 383.839844 85.914062 384.179688 86.847656 384.5625 C 87.777344 384.949219 88.6875 385.378906 89.574219 385.855469 C 90.464844 386.328125 91.328125 386.847656 92.164062 387.40625 C 93 387.964844 93.808594 388.566406 94.589844 389.203125 C 95.367188 389.84375 96.113281 390.519531 96.824219 391.230469 C 97.535156 391.941406 98.210938 392.6875 98.851562 393.46875 C 99.492188 394.246094 100.089844 395.054688 100.648438 395.890625 C 101.210938 396.730469 101.726562 397.59375 102.203125 398.480469 C 102.675781 399.367188 103.105469 400.277344 103.492188 401.210938 C 103.878906 402.140625 104.214844 403.085938 104.507812 404.050781 C 104.800781 405.015625 105.046875 405.992188 105.242188 406.980469 C 105.4375 407.96875 105.585938 408.960938 105.683594 409.964844 C 105.785156 410.96875 105.832031 411.972656 105.832031 412.980469 Z M 105.832031 412.980469 " fill-opacity="1" fill-rule="nonzero"/></g></svg>