<?xml version="1.0" encoding="UTF-8"?>
<svg version="1.1" xmlns="http://www.w3.org/2000/svg" width="270" height="270">
<path d="M0 0 C1.33749641 -0.01064158 1.33749641 -0.01064158 2.70201296 -0.02149814 C5.6902436 -0.0391023 8.67717772 -0.02096094 11.66539001 -0.00291443 C13.80739942 -0.00805227 15.94940461 -0.01533253 18.09140015 -0.02459717 C23.90952768 -0.04313523 29.72719786 -0.03015757 35.54530644 -0.01050687 C41.62932079 0.00585879 47.71330569 -0.00293027 53.79733276 -0.00802612 C64.01384299 -0.01254905 74.23017024 0.00333611 84.44664001 0.03126526 C96.26591758 0.06332649 108.08486526 0.06329867 119.90416628 0.04605049 C131.2658287 0.03019952 142.62736992 0.03690923 153.98902702 0.0539875 C158.82828933 0.06086823 163.6674548 0.05981507 168.50671577 0.05244255 C174.2023049 0.04479435 179.89751751 0.05685818 185.59304237 0.08429146 C187.68606702 0.09119141 189.77912672 0.09125612 191.87215042 0.08407593 C194.72386548 0.07541862 197.57440858 0.09127408 200.42602539 0.11352539 C201.25919015 0.10528462 202.09235492 0.09704386 202.9507671 0.08855337 C206.33150744 0.13742328 208.72754473 0.37850997 211.66257286 2.1151371 C213.82440671 5.76879601 213.70498334 9.22681424 213.66418457 13.35168457 C213.6711301 14.24178886 213.67807563 15.13189314 213.68523163 16.04897028 C213.70355842 19.03778809 213.69322148 22.02581723 213.68296814 25.0146637 C213.69002374 27.15490312 213.69876723 29.29513755 213.70907593 31.43536377 C213.73162002 37.25354032 213.72861838 43.07144549 213.71975446 48.88964915 C213.71465231 53.74324352 213.72193086 58.59678654 213.72922653 63.45037562 C213.74624156 74.89860824 213.74264356 86.34670763 213.72593689 97.79493713 C213.70901283 109.61364029 213.72485065 121.43197418 213.75715977 133.25063699 C213.78383243 143.39086709 213.79113797 153.53098207 213.78264469 163.67124373 C213.77770885 169.73060872 213.77996676 175.78975146 213.80043221 181.84908867 C213.81875269 187.54634932 213.81287469 193.24307769 213.7882328 198.94030952 C213.78321344 201.03292193 213.78674367 203.12557464 213.79938126 205.21815491 C213.81525435 208.07195634 213.80041512 210.92399266 213.77770996 213.77770996 C213.78954569 214.608644 213.80138142 215.43957805 213.8135758 216.29569191 C213.74670121 220.42416374 213.462689 222.19049586 210.99188614 225.6437645 C207.67466241 227.95971608 206.05439227 228.24682489 202.04348755 228.22946167 C200.81656189 228.23633499 199.58963623 228.24320831 198.32553101 228.25028992 C196.97413019 228.23259663 195.6227356 228.21442262 194.27134705 228.19581604 C192.84205678 228.19440501 191.41276289 228.19519863 189.98347473 228.19802856 C186.10960888 228.19946202 182.23651854 228.17008467 178.36283278 228.13515878 C174.31230215 228.10388301 170.26175335 228.10096359 166.21112061 228.09503174 C158.5435589 228.07949682 150.87635403 228.03847333 143.20894939 227.98828429 C134.47869935 227.93237971 125.74843219 227.90490156 117.01804769 227.87980711 C99.06166985 227.82755699 81.10562406 227.73962174 63.14952087 227.62818909 C56.71511448 165.11842177 56.71511448 165.11842177 71.70920181 145.94131279 C78.84104239 137.65306465 87.0615849 130.51374458 95.48228455 123.57832336 C99.81181506 119.93784638 103.93758209 116.07811641 108.09092712 112.23951721 C114.13133178 106.70870967 120.23140914 101.26616735 126.49668884 95.99073792 C127.14404999 95.44144623 127.79141113 94.89215454 128.45838928 94.32621765 C132.90460453 90.62818909 132.90460453 90.62818909 135.14952087 90.62818909 C135.17457703 91.82419739 135.19963318 93.02020569 135.22544861 94.25245667 C135.31955939 98.68616104 135.41977123 103.11971008 135.52183533 107.55323792 C135.56517027 109.47279733 135.60684639 111.39239494 135.64683533 113.31202698 C135.70457265 116.06987523 135.76825722 118.82753149 135.83311462 121.58522034 C135.85818336 122.87442131 135.85818336 122.87442131 135.88375854 124.18966675 C135.90370377 124.99027023 135.92364899 125.79087372 135.94419861 126.61573792 C135.95974289 127.31967178 135.97528717 128.02360565 135.99130249 128.74887085 C136.09433692 130.85517992 136.09433692 130.85517992 137.14952087 133.62818909 C142.73843769 134.7910984 142.73843769 134.7910984 148.14952087 133.62818909 C149.22214548 130.41031527 149.29574901 128.04428345 149.32652283 124.65968323 C149.33935806 123.43153397 149.3521933 122.2033847 149.36541748 120.9380188 C149.37358365 119.59646508 149.38102762 118.2549068 149.38780212 116.91334534 C149.39187765 116.23707029 149.39595318 115.56079525 149.40015221 114.86402702 C149.42098645 111.28680097 149.43530143 107.70961302 149.44468689 104.13233948 C149.45576626 100.43884439 149.49019015 96.7459493 149.52985859 93.05266666 C149.55599856 90.21048868 149.56437615 87.36845454 149.56796837 84.52616692 C149.57283857 83.16459014 149.58446511 81.80301998 149.60300636 80.44156075 C149.62734451 78.5365512 149.62401823 76.63124911 149.61949158 74.72608948 C149.62535782 73.6425972 149.63122406 72.55910492 149.63726807 71.44277954 C149.34104003 68.54644811 149.34104003 68.54644811 147.50126648 66.27644348 C144.4872523 64.16402873 142.71624401 64.13837739 139.05162048 64.15821838 C137.20466835 64.15383003 137.20466835 64.15383003 135.32040405 64.14935303 C133.98088349 64.16646656 132.64137029 64.18416556 131.30186462 64.20240784 C129.92471794 64.20733373 128.54756455 64.21063131 127.17041016 64.21237183 C124.28782173 64.220004 121.40573124 64.24054031 118.52330017 64.27149963 C114.82883999 64.31111114 111.13470324 64.32911561 107.44005489 64.33880901 C103.91478105 64.34878351 100.38958593 64.36866332 96.86436462 64.38990784 C96.19190138 64.39330359 95.51943813 64.39669933 94.82659721 64.40019798 C92.92369974 64.41178111 91.02085555 64.43130091 89.11802673 64.45118713 C88.03533005 64.46103134 86.95263336 64.47087555 85.83712769 64.48101807 C83.0488476 64.51514498 83.0488476 64.51514498 80.14952087 65.62818909 C78.98661156 71.21710591 78.98661156 71.21710591 80.14952087 76.62818909 C82.80648845 77.51384495 84.4314217 77.77321529 87.16197205 77.83351135 C87.96257553 77.85345657 88.76317902 77.87340179 89.58804321 77.89395142 C90.44751053 77.91066391 91.30697784 77.9273764 92.19248962 77.94459534 C93.07608658 77.96537643 93.95968353 77.98615753 94.87005615 78.00756836 C97.69229872 78.07294663 100.51463422 78.13189436 103.33702087 78.19068909 C105.25044194 78.23388545 107.16385361 78.27750011 109.07725525 78.32154846 C113.76791524 78.42861604 118.45866871 78.5299166 123.14952087 78.62818909 C121.42716731 82.74202341 118.58620188 85.9491567 115.74351501 89.32447815 C115.18760178 89.98830505 114.63168854 90.65213196 114.05892944 91.33607483 C108.8113413 97.54741782 103.36848274 103.57619819 97.8583765 109.55501175 C94.18001647 113.55574946 90.58810806 117.58782203 87.14683533 121.79518127 C75.0420177 136.51705937 62.52379047 150.28593288 42.68302661 152.30169225 C23.89580868 153.82214589 4.86564377 152.48640589 -13.85047913 150.62818909 C-13.96726819 131.80896158 -14.05544555 112.98980758 -14.10953999 94.17029285 C-14.13532435 85.43209534 -14.17047914 76.69412296 -14.22767639 67.95606995 C-14.27750446 60.3401818 -14.30976846 52.72445669 -14.3209216 45.10841006 C-14.32744145 41.07548414 -14.34276913 37.04302465 -14.37912941 33.01024818 C-14.4130799 29.21397074 -14.42353429 25.41835163 -14.41601753 21.6219368 C-14.41739254 20.22913853 -14.42733158 18.83631815 -14.4465065 17.4436512 C-14.47142138 15.54067056 -14.46241308 13.63733628 -14.45175171 11.73422241 C-14.45636067 10.66955152 -14.46096964 9.60488062 -14.46571827 8.50794697 C-12.74811729 0.46834967 -6.98128035 -0.09944055 0 0 Z " fill="#ffffff" transform="translate(42.85047912597656,-0.6281890869140625)"/>
<path d="M0 0 C0.74185547 -0.00058411 1.48371094 -0.00116821 2.24804688 -0.00177002 C4.69416495 0.00101131 7.13905641 0.0321037 9.58496094 0.06347656 C11.28317601 0.07093882 12.9813997 0.07663183 14.67962646 0.08062744 C19.14489603 0.09588505 23.60964347 0.13516767 28.07470703 0.17944336 C32.63274065 0.22039349 37.19085881 0.23863789 41.74902344 0.25878906 C50.68935675 0.30166203 59.62930289 0.36991471 68.56933594 0.45410156 C63.98312465 5.98168109 59.0697863 11.01387977 53.92480469 16.02050781 C52.26210438 17.65597496 50.60001268 19.29206105 48.93847656 20.92871094 C46.33925499 23.48455875 43.73652442 26.03635572 41.12329102 28.57788086 C38.58730977 31.04735702 36.06746252 33.53237155 33.54980469 36.02050781 C32.76445847 36.77691055 31.97911224 37.53331329 31.16996765 38.31263733 C26.9334 42.48704013 26.9334 42.48704013 24.54321289 47.83276367 C24.56726005 50.24579455 24.78143266 52.17793653 25.56933594 54.45410156 C28.5723814 55.25848874 30.5280289 55.73826404 33.56933594 55.45410156 C35.53005173 54.26286862 35.53005173 54.26286862 37.2980957 52.5065918 C38.33790085 51.54207596 38.33790085 51.54207596 39.39871216 50.55807495 C43.1052212 46.96537664 46.77879702 43.34652609 50.40917969 39.67675781 C51.2167421 38.86540878 52.0243045 38.05405975 52.8563385 37.21812439 C55.40896299 34.65338039 57.95829047 32.08539845 60.50683594 29.51660156 C63.88812489 26.10882979 67.27263948 22.70431013 70.65917969 19.30175781 C71.4382518 18.51438736 72.21732391 17.72701691 73.02000427 16.91578674 C73.73487503 16.19761276 74.44974579 15.47943878 75.1862793 14.73950195 C75.81723007 14.10331436 76.44818085 13.46712677 77.09825134 12.81166077 C78.56933594 11.45410156 78.56933594 11.45410156 79.56933594 11.45410156 C79.66199769 21.29410697 79.73308144 31.13400865 79.77658463 40.97436142 C79.79746359 45.5436112 79.82578665 50.11256259 79.87109375 54.68164062 C79.91454082 59.09071029 79.93847072 63.49949287 79.94884491 67.90876007 C79.95623836 69.59131643 79.9706761 71.27385699 79.99225616 72.9562912 C80.02127597 75.31235257 80.02529268 77.66722629 80.0234375 80.0234375 C80.0378186 80.71971252 80.05219971 81.41598755 80.0670166 82.13336182 C80.04033131 85.26345842 79.71752604 87.21819684 78.04156494 89.88616943 C74.60756956 92.06407111 71.50019657 92.0139156 67.55957031 91.97167969 C66.75586502 91.97868896 65.95215973 91.98569824 65.12409973 91.99291992 C62.47007596 92.0105108 59.81712036 91.99887374 57.16308594 91.98535156 C55.3175028 91.98804617 53.47192105 91.99192834 51.62634277 91.99694824 C47.75938392 92.00284476 43.89279477 91.99427546 40.02587891 91.97558594 C35.06901369 91.95279622 30.11301476 91.96591849 25.15618134 91.98987579 C21.34545361 92.00432967 17.53493129 91.99972968 13.72419739 91.98936462 C11.89654945 91.9866962 10.06888287 91.98997117 8.24125671 91.99928284 C5.68670251 92.00944182 3.13355125 91.99395756 0.57910156 91.97167969 C-0.17634445 91.97977661 -0.93179047 91.98787354 -1.71012878 91.99621582 C-4.96310076 91.94365657 -7.11366015 91.65082585 -9.89892578 89.92236328 C-12.03151398 86.48588469 -11.99028968 83.36738256 -11.94824219 79.44433594 C-11.95525146 78.64063065 -11.96226074 77.83692535 -11.96948242 77.00886536 C-11.9870733 74.35484159 -11.97543624 71.70188598 -11.96191406 69.04785156 C-11.96460867 67.20226843 -11.96849084 65.35668667 -11.97351074 63.5111084 C-11.97940726 59.64414954 -11.97083796 55.7775604 -11.95214844 51.91064453 C-11.92935872 46.95377932 -11.94248099 41.99778039 -11.96643829 37.04094696 C-11.98089217 33.23021924 -11.97629218 29.41969692 -11.96592712 25.60896301 C-11.9632587 23.78131508 -11.96653367 21.9536485 -11.97584534 20.12602234 C-11.98600432 17.57146814 -11.97052006 15.01831688 -11.94824219 12.46386719 C-11.95633911 11.70842117 -11.96443604 10.95297516 -11.97277832 10.17463684 C-11.91983201 6.89770937 -11.63217326 4.77183016 -9.86273193 1.98187256 C-6.58754654 -0.07552613 -3.74736988 -0.07739946 0 0 Z " fill="#ffffff" transform="translate(11.4306640625,164.5458984375)"/>
</svg>
