<?xml version="1.0" encoding="UTF-8"?>
<svg version="1.1" xmlns="http://www.w3.org/2000/svg" width="500" height="500">
<path d="M0 0 C136.62 0 273.24 0 414 0 C415.91853844 7.67415376 417.78307983 15.31979259 419.4519043 23.04614258 C419.7890596 24.59874283 419.7890596 24.59874283 420.13302612 26.18270874 C422.21673075 35.81801025 424.23918709 45.46609391 426.24287701 55.11832142 C427.57808119 61.54464928 428.93235046 67.96541756 430.33813477 74.37670898 C438.32897994 110.90303676 441.49797645 144.65358028 440 182 C431.42 182 422.84 182 414 182 C414 233.15 414 284.3 414 337 C396.84 337 379.68 337 362 337 C362 285.85 362 234.7 362 182 C328.01 182 294.02 182 259 182 C259 233.15 259 284.3 259 337 C195.46020018 337.04033135 195.46020018 337.04033135 168.95507812 337.04882812 C162.88810219 337.05078604 156.82112627 337.05280653 150.75415039 337.05493164 C149.99373965 337.05519539 149.23332891 337.05545914 148.44987541 337.05573088 C136.16897791 337.06008178 123.88808508 337.06796648 111.60719035 337.0771528 C99.00639822 337.08649988 86.40560854 337.09205785 73.80481309 337.09408849 C66.02764975 337.09546152 58.25049963 337.09980026 50.47334035 337.10791647 C44.51272732 337.11382058 38.5521211 337.11445628 32.59150505 337.11310768 C30.14412988 337.11338342 27.69675422 337.11538082 25.24938202 337.11920547 C21.9142677 337.12416301 18.57921042 337.12299059 15.24409485 337.12025452 C13.78348986 337.12462378 13.78348986 337.12462378 12.2933777 337.12908131 C11.39863998 337.12709026 10.50390226 337.12509921 9.58205128 337.12304783 C8.42751161 337.12361741 8.42751161 337.12361741 7.24964792 337.1241985 C5 337 5 337 0 336 C0 285.18 0 234.36 0 182 C-8.58 182 -17.16 182 -26 182 C-27.67890029 150.34073747 -25.72400151 121.32846975 -19.375 90.375 C-19.21979637 89.6172226 -19.06459274 88.85944519 -18.90468597 88.07870483 C-16.97440706 78.69167889 -14.94497873 69.32763439 -12.87487793 59.97058105 C-11.52347381 53.85427435 -10.22162451 47.72735757 -8.9140625 41.6015625 C-5.94307445 27.73429656 -2.97153201 13.86714939 0 0 Z M52 182 C52 215.66 52 249.32 52 284 C103.15 284 154.3 284 207 284 C207 250.34 207 216.68 207 182 C155.85 182 104.7 182 52 182 Z " fill="#FFFFFF" transform="translate(43,120)"/>
<path d="M0 0 C136.62 0 273.24 0 414 0 C414.33 16.83 414.66 33.66 415 51 C410.85296323 55.14703677 398.01350709 53.13030151 392.50993317 53.13374341 C391.00765449 53.13158198 389.50537595 53.12932535 388.00309753 53.12698364 C386.38680989 53.12813722 384.7705225 53.12972634 383.15423566 53.13171089 C378.73250304 53.13587177 374.3107921 53.13382817 369.88905942 53.13072467 C365.11252598 53.12845752 360.33599621 53.13195677 355.5594635 53.13470459 C346.20914876 53.13914748 336.85884206 53.1381923 327.508527 53.13529195 C319.90637789 53.13303171 312.30423103 53.13272809 304.70208168 53.13381577 C303.61924837 53.133969 302.53641506 53.13412223 301.42076862 53.13428011 C299.22083447 53.13459984 297.02090031 53.13492406 294.82096616 53.1352527 C274.19871906 53.13810326 253.57647642 53.13482732 232.95423005 53.12945233 C215.27343955 53.12498658 197.59265562 53.12575917 179.91186523 53.13037109 C159.36703089 53.1357276 138.82220045 53.13782661 118.27736551 53.13475883 C116.08469888 53.13444029 113.89203225 53.13412592 111.69936562 53.13381577 C110.62061353 53.13366149 109.54186144 53.13350721 108.43041989 53.13334826 C100.84215893 53.1324862 93.25390045 53.13393934 85.66563988 53.13629532 C76.4110327 53.13910555 67.15643399 53.13832934 57.90182777 53.13301457 C53.18329716 53.13039378 48.46478065 53.12934492 43.74625015 53.13266373 C39.42028708 53.13566029 35.0943511 53.13397829 30.76839045 53.12868617 C29.20992222 53.12757624 27.65145166 53.12812126 26.09298494 53.13056196 C23.95985763 53.13364434 21.82682071 53.13044214 19.69369793 53.12584114 C18.51325206 53.12567879 17.3328062 53.12551644 16.11658925 53.12534916 C10.40139049 52.95132272 4.70100567 52.4385389 -1 52 C-0.67 34.84 -0.34 17.68 0 0 Z " fill="#FFFFFF" transform="translate(43,43)"/>
</svg>
