<svg xmlns="http://www.w3.org/2000/svg" xmlns:xlink="http://www.w3.org/1999/xlink" width="500" zoomAndPan="magnify" viewBox="0 0 375 374.999991" height="500" preserveAspectRatio="xMidYMid meet" version="1.0">
  <defs>
    <clipPath id="2ad0898a51">
      <path d="M 4.308594 4.308594 L 371 4.308594 L 371 371 L 4.308594 371 Z M 4.308594 4.308594 " clip-rule="nonzero"/>
    </clipPath>
    <clipPath id="899fccc237">
      <path d="M 61.921875 280.894531 L 103.300781 280.894531 L 103.300781 322.269531 L 61.921875 322.269531 Z M 61.921875 280.894531 " clip-rule="nonzero"/>
    </clipPath>
    <clipPath id="5db420a317">
      <path d="M 82.613281 280.894531 C 71.1875 280.894531 61.921875 290.15625 61.921875 301.582031 C 61.921875 313.007812 71.1875 322.269531 82.613281 322.269531 C 94.039062 322.269531 103.300781 313.007812 103.300781 301.582031 C 103.300781 290.15625 94.039062 280.894531 82.613281 280.894531 Z M 82.613281 280.894531 " clip-rule="nonzero"/>
    </clipPath>
  </defs>
  <g clip-path="url(#2ad0898a51)">
    <path fill="#000000" d="M 47.925781 4.308594 C 23.875 4.308594 4.308594 23.875 4.308594 47.925781 L 4.308594 327.070312 C 4.308594 351.121094 23.875 370.683594 47.925781 370.683594 L 327.070312 370.683594 C 351.121094 370.683594 370.683594 351.121094 370.683594 327.070312 L 370.683594 47.925781 C 370.683594 23.875 351.121094 4.308594 327.070312 4.308594 Z M 74.097656 91.542969 L 300.898438 91.542969 L 300.898438 231.113281 L 266.007812 231.113281 L 266.007812 257.285156 L 231.113281 257.285156 L 231.113281 283.453125 L 143.882812 283.453125 L 143.882812 257.285156 L 108.988281 257.285156 L 108.988281 231.113281 L 74.097656 231.113281 Z M 100.265625 117.710938 L 100.265625 178.773438 L 117.710938 178.773438 L 117.710938 117.710938 Z M 126.433594 117.710938 L 126.433594 178.773438 L 143.882812 178.773438 L 143.882812 117.710938 Z M 152.605469 117.710938 L 152.605469 178.773438 L 170.050781 178.773438 L 170.050781 117.710938 Z M 178.773438 117.710938 L 178.773438 178.773438 L 196.222656 178.773438 L 196.222656 117.710938 Z M 204.945312 117.710938 L 204.945312 178.773438 L 222.390625 178.773438 L 222.390625 117.710938 Z M 231.113281 117.710938 L 231.113281 178.773438 L 248.558594 178.773438 L 248.558594 117.710938 Z M 257.285156 117.710938 L 257.285156 178.773438 L 274.730469 178.773438 L 274.730469 117.710938 Z M 257.285156 117.710938 " fill-opacity="1" fill-rule="nonzero"/>
  </g>
  <g clip-path="url(#899fccc237)">
    <g clip-path="url(#5db420a317)">
      <path fill="#000000" d="M 61.921875 280.894531 L 103.300781 280.894531 L 103.300781 322.269531 L 61.921875 322.269531 Z M 61.921875 280.894531 " fill-opacity="1" fill-rule="nonzero"/>
    </g>
  </g>
</svg>
