<svg width="49" height="49" viewBox="0 0 49 49" fill="none" xmlns="http://www.w3.org/2000/svg">
  <path fill-rule="evenodd" clip-rule="evenodd" d="M37.6279 10.3092C38.2903 10.3092 38.8279 10.8468 38.8279 11.5092C38.8279 12.1716 38.2903 12.7092 37.6279 12.7092C36.9655 12.7092 36.4279 12.1716 36.4279 11.5092C36.4279 10.8468 36.9655 10.3092 37.6279 10.3092ZM37.6279 7.90918C35.6407 7.90918 34.0279 9.52198 34.0279 11.5092C34.0279 13.4964 35.6407 15.1092 37.6279 15.1092C39.6151 15.1092 41.2279 13.4964 41.2279 11.5092C41.2279 9.52198 39.6151 7.90918 37.6279 7.90918ZM38.8279 24.7092C38.8279 24.0468 38.2903 23.5092 37.6279 23.5092C36.9655 23.5092 36.4279 24.0468 36.4279 24.7092C36.4279 25.3716 36.9655 25.9092 37.6279 25.9092C38.2903 25.9092 38.8279 25.3716 38.8279 24.7092ZM34.0279 24.7092C34.0279 22.722 35.6407 21.1092 37.6279 21.1092C39.6151 21.1092 41.2279 22.722 41.2279 24.7092C41.2279 26.6964 39.6151 28.3092 37.6279 28.3092C35.6407 28.3092 34.0279 26.6964 34.0279 24.7092ZM38.8279 37.9092C38.8279 37.2468 38.2903 36.7092 37.6279 36.7092C36.9655 36.7092 36.4279 37.2468 36.4279 37.9092C36.4279 38.5716 36.9655 39.1092 37.6279 39.1092C38.2903 39.1092 38.8279 38.5716 38.8279 37.9092ZM34.0279 37.9092C34.0279 35.922 35.6407 34.3092 37.6279 34.3092C39.6151 34.3092 41.2279 35.922 41.2279 37.9092C41.2279 39.8964 39.6151 41.5092 37.6279 41.5092C35.6407 41.5092 34.0279 39.8964 34.0279 37.9092ZM30.4566 12.742H29.8566C27.5406 12.742 25.6566 14.7436 25.6566 17.1988V23.5348H30.5766C31.1742 23.5348 31.6566 24.0172 31.6566 24.6148C31.6566 25.2124 31.1742 25.6948 30.5766 25.6948H25.6566V32.2852C25.6566 34.7428 27.5406 36.742 29.8566 36.742H30.4566C31.119 36.742 31.6566 37.2796 31.6566 37.942C31.6566 38.6044 31.119 39.142 30.4566 39.142H29.8566C26.2182 39.142 23.2566 36.0652 23.2566 32.2852V25.6948H19.5462C19.0782 28.5412 16.6062 30.7132 13.6278 30.7132C10.1862 30.7132 7.42379 27.8164 7.63979 24.3316C7.81979 21.4492 10.0902 19.0588 12.9606 18.7492C16.1598 18.4036 18.9246 20.578 19.5102 23.5348H23.2566V17.1988C23.2566 13.4188 26.2182 10.342 29.8566 10.342H30.4566C31.119 10.342 31.6566 10.8796 31.6566 11.542C31.6566 12.2044 31.119 12.742 30.4566 12.742ZM10.0278 24.7132C10.0278 26.698 11.6406 28.3132 13.6278 28.3132C15.6126 28.3132 17.2278 26.698 17.2278 24.7132C17.2278 22.726 15.6126 21.1132 13.6278 21.1132C11.6406 21.1132 10.0278 22.726 10.0278 24.7132Z" fill="#696969"/>
</svg>

