<?xml version="1.0" encoding="UTF-8"?>
<svg version="1.1" viewBox="0 0 900 900" width="1280" height="1280" xmlns="http://www.w3.org/2000/svg">
<path transform="translate(0)" d="m0 0h900v900h-900z" fill="#FEFEFD"/>
<path transform="translate(105,94)" d="m0 0h148l14 1 1 1 1 350 2 31 4 26 6 24 10 24 8 14 12 16 11 12 10 10 17 13 19 11 16 7 15 5 21 5 26 3h17l23-3 21-5 22-8 23-12 16-12 14-12 12-13 12-17 10-17 8-20 6-22 4-24 2-23 1-46 1-93 6-1h68l17 1v91h91l2 1v43l-2 38-3 25-4 24-6 26-11 33-9 20-11 22-14 23-12 17-10 13-12 14-14 15-11 11-8 7-11 9-17 13-17 11-21 12-22 11-27 11-24 8-24 6-27 5-23 3-14 1h-30l-23-2-33-5-27-6-29-9-22-9-23-11-10-6-11-6-14-9-14-10-14-11-10-9-8-7-19-19-9-11-8-9-9-12-10-14-11-18-9-16-12-25-11-29-8-28-5-26-3-24-2-28v-379z" fill="#025ED9"/>
<path transform="translate(729,227)" d="m0 0h92l1 2-1 91h-86l-5-1z" fill="#025ED9"/>
<path transform="translate(661,158)" d="m0 0h67l1 1v68h-68l-1-1z" fill="#025ED9"/>
<path transform="translate(753,89)" d="m0 0h45l1 1v44l-1 1h-45z" fill="#025ED9"/>
</svg>
