<svg width="49" height="49" viewBox="0 0 49 49" fill="none" xmlns="http://www.w3.org/2000/svg">
<path fill-rule="evenodd" clip-rule="evenodd" d="M36.6672 9.17243L40.9094 21.4748H7.30937L11.5516 9.17243C11.8854 8.20443 12.7965 7.55481 13.8205 7.55481H34.3983C35.4222 7.55481 36.3334 8.20443 36.6672 9.17243ZM13.8205 9.95481H34.3983L37.5431 19.0748H10.6756L13.8205 9.95481Z" fill="#696969"/>
<path d="M9.70966 37.5549V21.4749L7.30937 21.4748L7.30966 37.5549C7.30966 39.5431 8.92144 41.1549 10.9097 41.1549H11.3897C13.3779 41.1549 14.9897 39.5431 14.9897 37.5549V36.8349C14.9897 36.1722 15.5269 35.6349 16.1897 35.6349H32.0297C32.6924 35.6349 33.2297 36.1722 33.2297 36.8349V37.5549C33.2297 39.5431 34.8414 41.1549 36.8297 41.1549H37.3097C39.2979 41.1549 40.9097 39.5431 40.9097 37.5549L40.9094 21.4748L38.5097 21.4749V37.5549C38.5097 38.2177 37.9724 38.7549 37.3097 38.7549H36.8297C36.1669 38.7549 35.6297 38.2177 35.6297 37.5549V36.8349C35.6297 34.8467 34.0179 33.2349 32.0297 33.2349H16.1897C14.2014 33.2349 12.5897 34.8467 12.5897 36.8349V37.5549C12.5897 38.2177 12.0524 38.7549 11.3897 38.7549H10.9097C10.2469 38.7549 9.70966 38.2177 9.70966 37.5549Z" fill="#696969"/>
<path d="M16.1893 27.3548C16.1893 28.3489 15.3834 29.1548 14.3893 29.1548C13.3951 29.1548 12.5893 28.3489 12.5893 27.3548C12.5893 26.3607 13.3951 25.5548 14.3893 25.5548C15.3834 25.5548 16.1893 26.3607 16.1893 27.3548Z" fill="#696969"/>
<path d="M33.8292 29.1548C34.8233 29.1548 35.6292 28.3489 35.6292 27.3548C35.6292 26.3607 34.8233 25.5548 33.8292 25.5548C32.8351 25.5548 32.0292 26.3607 32.0292 27.3548C32.0292 28.3489 32.8351 29.1548 33.8292 29.1548Z" fill="#696969"/>
</svg>
