<svg width="49" height="49" viewBox="0 0 49 49" fill="none" xmlns="http://www.w3.org/2000/svg">
<path d="M39.1182 20.835V10.709C39.1182 10.1567 38.6704 9.70898 38.1182 9.70898H27.9922C27.5482 7.98298 25.9822 6.70898 24.1182 6.70898C22.2542 6.70898 20.6882 7.98298 20.2442 9.70898H10.1182C9.56588 9.70898 9.11816 10.1567 9.11816 10.709V20.835C7.39216 21.279 6.11816 22.845 6.11816 24.709C6.11816 26.573 7.39216 28.139 9.11816 28.583V38.709C9.11816 39.2613 9.56588 39.709 10.1182 39.709H20.2442C20.6882 41.435 22.2542 42.709 24.1182 42.709C25.9822 42.709 27.5482 41.435 27.9922 39.709H38.1182C38.6704 39.709 39.1182 39.2613 39.1182 38.709V28.583C40.8442 28.139 42.1182 26.573 42.1182 24.709C42.1182 22.845 40.8442 21.279 39.1182 20.835ZM22.3862 9.70898C22.7322 9.11298 23.3802 8.70898 24.1182 8.70898C24.8562 8.70898 25.5042 9.11298 25.8502 9.70898C26.0202 10.003 26.1182 10.345 26.1182 10.709C26.1182 11.073 26.0202 11.415 25.8502 11.709C25.5042 12.305 24.8562 12.709 24.1182 12.709C23.3802 12.709 22.7322 12.305 22.3862 11.709C22.2162 11.415 22.1182 11.073 22.1182 10.709C22.1182 10.345 22.2162 10.003 22.3862 9.70898ZM9.11816 26.441C8.52216 26.095 8.11816 25.447 8.11816 24.709C8.11816 23.971 8.52216 23.323 9.11816 22.977C9.41216 22.807 9.75416 22.709 10.1182 22.709C10.4822 22.709 10.8242 22.807 11.1182 22.977C11.7142 23.323 12.1182 23.971 12.1182 24.709C12.1182 25.447 11.7142 26.095 11.1182 26.441C10.8242 26.611 10.4822 26.709 10.1182 26.709C9.75416 26.709 9.41216 26.611 9.11816 26.441ZM25.8502 39.709C25.5042 40.305 24.8562 40.709 24.1182 40.709C23.3802 40.709 22.7322 40.305 22.3862 39.709C22.2162 39.415 22.1182 39.073 22.1182 38.709C22.1182 38.345 22.2162 38.003 22.3862 37.709C22.7322 37.113 23.3802 36.709 24.1182 36.709C24.8562 36.709 25.5042 37.113 25.8502 37.709C26.0202 38.003 26.1182 38.345 26.1182 38.709C26.1182 39.073 26.0202 39.415 25.8502 39.709ZM37.1182 37.709H27.9922C27.5482 35.983 25.9822 34.709 24.1182 34.709C22.2542 34.709 20.6882 35.983 20.2442 37.709H11.1182V28.583C12.8442 28.139 14.1182 26.573 14.1182 24.709C14.1182 22.845 12.8442 21.279 11.1182 20.835V11.709H20.2442C20.6882 13.435 22.2542 14.709 24.1182 14.709C25.9822 14.709 27.5482 13.435 27.9922 11.709H37.1182V20.835C35.3922 21.279 34.1182 22.845 34.1182 24.709C34.1182 26.573 35.3922 28.139 37.1182 28.583V37.709ZM39.1182 26.441C38.8242 26.611 38.4822 26.709 38.1182 26.709C37.7542 26.709 37.4122 26.611 37.1182 26.441C36.5222 26.095 36.1182 25.447 36.1182 24.709C36.1182 23.971 36.5222 23.323 37.1182 22.977C37.4122 22.807 37.7542 22.709 38.1182 22.709C38.4822 22.709 38.8242 22.807 39.1182 22.977C39.7142 23.323 40.1182 23.971 40.1182 24.709C40.1182 25.447 39.7142 26.095 39.1182 26.441Z" fill="#696969"/>
</svg>
