<svg xmlns="http://www.w3.org/2000/svg" xmlns:xlink="http://www.w3.org/1999/xlink" width="500" zoomAndPan="magnify" viewBox="0 0 375 374.999991" height="500" preserveAspectRatio="xMidYMid meet" version="1.0"><defs><clipPath id="bb8eafbd65"><path d="M 201 233 L 353 233 L 353 363 L 201 363 Z M 201 233 " clip-rule="nonzero"/></clipPath><clipPath id="33571760d2"><path d="M 71.085938 46.351562 L 370.386719 75.835938 L 340.90625 375.136719 L 41.601562 345.65625 Z M 71.085938 46.351562 " clip-rule="nonzero"/></clipPath><clipPath id="64a75e5fd7"><path d="M 370.257812 75.820312 L 70.957031 46.339844 L 41.476562 345.640625 L 340.777344 375.125 Z M 370.257812 75.820312 " clip-rule="nonzero"/></clipPath><clipPath id="b8711e0802"><path d="M 122 153 L 361 153 L 361 355 L 122 355 Z M 122 153 " clip-rule="nonzero"/></clipPath><clipPath id="b6f7f32d8c"><path d="M 71.085938 46.351562 L 370.386719 75.835938 L 340.90625 375.136719 L 41.601562 345.65625 Z M 71.085938 46.351562 " clip-rule="nonzero"/></clipPath><clipPath id="b81ac91c7f"><path d="M 370.257812 75.820312 L 70.957031 46.339844 L 41.476562 345.640625 L 340.777344 375.125 Z M 370.257812 75.820312 " clip-rule="nonzero"/></clipPath><clipPath id="48fd53f90b"><path d="M 43 73 L 369 73 L 369 347 L 43 347 Z M 43 73 " clip-rule="nonzero"/></clipPath><clipPath id="1239d12b8a"><path d="M 71.085938 46.351562 L 370.386719 75.835938 L 340.90625 375.136719 L 41.601562 345.65625 Z M 71.085938 46.351562 " clip-rule="nonzero"/></clipPath><clipPath id="5af65dd80a"><path d="M 370.257812 75.820312 L 70.957031 46.339844 L 41.476562 345.640625 L 340.777344 375.125 Z M 370.257812 75.820312 " clip-rule="nonzero"/></clipPath><clipPath id="92cdcdf808"><path d="M 141.644531 277.394531 L 161.871094 277.394531 L 161.871094 297.621094 L 141.644531 297.621094 Z M 141.644531 277.394531 " clip-rule="nonzero"/></clipPath><clipPath id="ed392d866c"><path d="M 151.757812 277.394531 C 146.171875 277.394531 141.644531 281.921875 141.644531 287.507812 C 141.644531 293.09375 146.171875 297.621094 151.757812 297.621094 C 157.34375 297.621094 161.871094 293.09375 161.871094 287.507812 C 161.871094 281.921875 157.34375 277.394531 151.757812 277.394531 Z M 151.757812 277.394531 " clip-rule="nonzero"/></clipPath></defs><g clip-path="url(#bb8eafbd65)"><g clip-path="url(#33571760d2)"><g clip-path="url(#64a75e5fd7)"><path fill="#025ed9" d="M 339.566406 233.820312 C 340.503906 233.914062 341.421875 234.097656 342.324219 234.371094 C 343.226562 234.644531 344.09375 235.003906 344.925781 235.449219 C 345.757812 235.890625 346.535156 236.414062 347.265625 237.011719 C 347.992188 237.609375 348.65625 238.273438 349.253906 239 C 349.851562 239.730469 350.375 240.507812 350.816406 241.339844 C 351.261719 242.171875 351.621094 243.039062 351.894531 243.941406 C 352.167969 244.839844 352.351562 245.761719 352.441406 246.699219 C 352.535156 247.636719 352.535156 248.574219 352.441406 249.511719 C 352.351562 250.449219 352.167969 251.371094 351.894531 252.273438 C 351.621094 253.175781 351.261719 254.042969 350.816406 254.871094 C 350.375 255.703125 349.851562 256.484375 349.253906 257.210938 C 348.65625 257.941406 347.992188 258.605469 347.265625 259.203125 C 346.535156 259.800781 345.757812 260.320312 344.925781 260.765625 C 344.09375 261.210938 343.226562 261.566406 342.324219 261.839844 C 341.421875 262.117188 340.503906 262.296875 339.566406 262.390625 C 338.628906 262.484375 337.691406 262.484375 336.75 262.390625 C 335.171875 262.238281 333.585938 262.125 332 262.050781 C 330.414062 261.976562 328.828125 261.9375 327.238281 261.941406 C 325.652344 261.945312 324.0625 261.988281 322.476562 262.066406 C 320.890625 262.148438 319.308594 262.265625 317.730469 262.425781 C 316.148438 262.582031 314.574219 262.78125 313.003906 263.015625 C 311.433594 263.25 309.867188 263.523438 308.3125 263.835938 C 306.753906 264.148438 305.203125 264.5 303.664062 264.886719 C 302.125 265.273438 300.59375 265.699219 299.074219 266.164062 C 297.558594 266.625 296.050781 267.125 294.554688 267.660156 C 293.058594 268.199219 291.578125 268.769531 290.113281 269.378906 C 288.648438 269.988281 287.195312 270.632812 285.761719 271.3125 C 284.324219 271.992188 282.90625 272.707031 281.507812 273.457031 C 280.109375 274.207031 278.726562 274.992188 277.363281 275.808594 C 276.003906 276.625 274.664062 277.476562 273.34375 278.359375 C 272.023438 279.242188 270.726562 280.15625 269.449219 281.101562 C 268.175781 282.050781 266.921875 283.027344 265.695312 284.035156 C 264.46875 285.042969 263.265625 286.078125 262.089844 287.144531 C 260.914062 288.214844 259.761719 289.308594 258.640625 290.429688 C 257.515625 291.554688 256.421875 292.703125 255.355469 293.878906 C 254.289062 295.058594 253.253906 296.257812 252.246094 297.488281 C 251.238281 298.714844 250.257812 299.964844 249.3125 301.242188 C 248.367188 302.515625 247.453125 303.8125 246.570312 305.132812 C 245.6875 306.453125 244.835938 307.792969 244.019531 309.15625 C 243.203125 310.519531 242.417969 311.898438 241.667969 313.300781 C 240.917969 314.699219 240.203125 316.117188 239.523438 317.550781 C 238.84375 318.988281 238.199219 320.4375 237.589844 321.90625 C 236.980469 323.371094 236.410156 324.851562 235.871094 326.347656 C 235.335938 327.839844 234.835938 329.347656 234.375 330.867188 C 233.910156 332.386719 233.484375 333.917969 233.097656 335.457031 C 232.710938 336.996094 232.359375 338.546875 232.046875 340.101562 C 231.738281 341.660156 231.464844 343.222656 231.226562 344.792969 C 230.992188 346.363281 230.796875 347.941406 230.636719 349.519531 C 230.546875 350.460938 230.363281 351.382812 230.089844 352.285156 C 229.8125 353.1875 229.453125 354.054688 229.007812 354.890625 C 228.5625 355.722656 228.042969 356.503906 227.441406 357.234375 C 226.84375 357.960938 226.179688 358.628906 225.449219 359.226562 C 224.71875 359.824219 223.9375 360.347656 223.105469 360.792969 C 222.273438 361.238281 221.40625 361.597656 220.503906 361.871094 C 219.597656 362.144531 218.675781 362.328125 217.738281 362.421875 C 216.796875 362.511719 215.859375 362.511719 214.917969 362.421875 C 213.980469 362.328125 213.058594 362.144531 212.15625 361.871094 C 211.25 361.597656 210.382812 361.238281 209.550781 360.792969 C 208.71875 360.347656 207.9375 359.824219 207.207031 359.226562 C 206.476562 358.625 205.8125 357.960938 205.214844 357.234375 C 204.613281 356.503906 204.09375 355.722656 203.648438 354.890625 C 203.203125 354.054688 202.84375 353.1875 202.570312 352.285156 C 202.292969 351.382812 202.113281 350.460938 202.019531 349.519531 C 201.925781 348.582031 201.925781 347.640625 202.019531 346.703125 C 202.222656 344.652344 202.480469 342.613281 202.785156 340.578125 C 203.089844 338.539062 203.445312 336.515625 203.847656 334.496094 C 204.253906 332.476562 204.707031 330.472656 205.207031 328.476562 C 205.710938 326.480469 206.261719 324.496094 206.863281 322.527344 C 207.460938 320.558594 208.109375 318.605469 208.804688 316.667969 C 209.5 314.730469 210.242188 312.8125 211.035156 310.910156 C 211.824219 309.011719 212.660156 307.128906 213.539062 305.269531 C 214.421875 303.410156 215.347656 301.574219 216.320312 299.757812 C 217.292969 297.945312 218.308594 296.15625 219.367188 294.390625 C 220.425781 292.625 221.527344 290.886719 222.671875 289.179688 C 223.816406 287.46875 225.003906 285.785156 226.230469 284.132812 C 227.457031 282.480469 228.722656 280.859375 230.03125 279.269531 C 231.335938 277.679688 232.679688 276.121094 234.0625 274.597656 C 235.445312 273.070312 236.867188 271.582031 238.320312 270.125 C 239.777344 268.671875 241.265625 267.253906 242.792969 265.871094 C 244.316406 264.488281 245.875 263.144531 247.46875 261.839844 C 249.058594 260.535156 250.679688 259.265625 252.332031 258.039062 C 253.984375 256.816406 255.667969 255.628906 257.378906 254.484375 C 259.089844 253.34375 260.828125 252.242188 262.59375 251.183594 C 264.359375 250.125 266.148438 249.109375 267.964844 248.136719 C 269.777344 247.167969 271.617188 246.242188 273.476562 245.359375 C 275.335938 244.480469 277.21875 243.644531 279.117188 242.855469 C 281.019531 242.066406 282.9375 241.324219 284.875 240.628906 C 286.8125 239.933594 288.765625 239.289062 290.734375 238.691406 C 292.703125 238.089844 294.6875 237.539062 296.683594 237.039062 C 298.679688 236.535156 300.6875 236.082031 302.707031 235.679688 C 304.722656 235.277344 306.75 234.921875 308.785156 234.617188 C 310.820312 234.3125 312.863281 234.058594 314.910156 233.855469 C 316.960938 233.652344 319.011719 233.496094 321.066406 233.394531 C 323.121094 233.289062 325.179688 233.238281 327.238281 233.234375 C 329.296875 233.230469 331.351562 233.277344 333.410156 233.378906 C 335.464844 233.476562 337.515625 233.625 339.566406 233.820312 Z M 339.566406 233.820312 " fill-opacity="1" fill-rule="nonzero"/></g></g></g><g clip-path="url(#b8711e0802)"><g clip-path="url(#b6f7f32d8c)"><g clip-path="url(#b81ac91c7f)"><path fill="#025ed9" d="M 347.402344 154.257812 C 348.339844 154.351562 349.261719 154.535156 350.164062 154.808594 C 351.0625 155.082031 351.929688 155.441406 352.761719 155.882812 C 353.59375 156.328125 354.375 156.851562 355.101562 157.449219 C 355.832031 158.046875 356.492188 158.707031 357.089844 159.4375 C 357.6875 160.164062 358.210938 160.945312 358.65625 161.777344 C 359.097656 162.609375 359.457031 163.476562 359.730469 164.375 C 360.003906 165.277344 360.1875 166.199219 360.28125 167.136719 C 360.371094 168.074219 360.371094 169.011719 360.28125 169.949219 C 360.1875 170.886719 360.003906 171.808594 359.730469 172.710938 C 359.457031 173.613281 359.097656 174.476562 358.65625 175.308594 C 358.210938 176.140625 357.6875 176.921875 357.089844 177.648438 C 356.492188 178.378906 355.828125 179.039062 355.101562 179.636719 C 354.371094 180.238281 353.59375 180.757812 352.761719 181.203125 C 351.929688 181.644531 351.0625 182.003906 350.164062 182.277344 C 349.261719 182.550781 348.339844 182.734375 347.402344 182.828125 C 346.464844 182.917969 345.527344 182.917969 344.589844 182.828125 C 341.707031 182.546875 338.820312 182.339844 335.925781 182.199219 C 333.035156 182.0625 330.140625 181.996094 327.246094 182 C 324.347656 182.003906 321.457031 182.078125 318.5625 182.222656 C 315.671875 182.367188 312.785156 182.585938 309.902344 182.871094 C 307.019531 183.160156 304.148438 183.515625 301.285156 183.945312 C 298.421875 184.371094 295.570312 184.871094 292.730469 185.4375 C 289.890625 186.007812 287.066406 186.644531 284.257812 187.351562 C 281.449219 188.054688 278.660156 188.832031 275.890625 189.675781 C 273.121094 190.515625 270.371094 191.429688 267.648438 192.40625 C 264.921875 193.382812 262.222656 194.425781 259.546875 195.539062 C 256.871094 196.648438 254.226562 197.824219 251.609375 199.0625 C 248.992188 200.304688 246.410156 201.605469 243.855469 202.972656 C 241.300781 204.339844 238.785156 205.769531 236.300781 207.257812 C 233.820312 208.75 231.375 210.300781 228.96875 211.910156 C 226.558594 213.519531 224.195312 215.1875 221.871094 216.914062 C 219.542969 218.640625 217.261719 220.421875 215.027344 222.257812 C 212.789062 224.097656 210.597656 225.988281 208.453125 227.933594 C 206.308594 229.878906 204.210938 231.875 202.164062 233.925781 C 200.117188 235.972656 198.121094 238.070312 196.175781 240.214844 C 194.234375 242.363281 192.34375 244.554688 190.507812 246.792969 C 188.667969 249.03125 186.890625 251.3125 185.164062 253.640625 C 183.4375 255.964844 181.773438 258.332031 180.164062 260.742188 C 178.554688 263.148438 177.007812 265.59375 175.519531 268.078125 C 174.027344 270.5625 172.601562 273.082031 171.238281 275.632812 C 169.871094 278.1875 168.570312 280.773438 167.332031 283.390625 C 166.09375 286.007812 164.917969 288.65625 163.8125 291.328125 C 162.703125 294.003906 161.660156 296.707031 160.683594 299.433594 C 159.707031 302.15625 158.796875 304.90625 157.957031 307.675781 C 157.117188 310.449219 156.34375 313.238281 155.636719 316.046875 C 154.933594 318.855469 154.296875 321.679688 153.730469 324.519531 C 153.164062 327.359375 152.667969 330.210938 152.242188 333.074219 C 151.816406 335.9375 151.460938 338.8125 151.175781 341.695312 C 151.082031 342.636719 150.898438 343.5625 150.621094 344.46875 C 150.347656 345.375 149.988281 346.246094 149.539062 347.082031 C 149.09375 347.917969 148.570312 348.699219 147.96875 349.433594 C 147.367188 350.164062 146.703125 350.832031 145.96875 351.433594 C 145.238281 352.035156 144.453125 352.558594 143.617188 353.003906 C 142.78125 353.449219 141.910156 353.8125 141.003906 354.085938 C 140.097656 354.363281 139.171875 354.546875 138.230469 354.636719 C 137.285156 354.730469 136.34375 354.730469 135.402344 354.636719 C 134.457031 354.546875 133.535156 354.363281 132.625 354.085938 C 131.71875 353.8125 130.847656 353.449219 130.011719 353.003906 C 129.179688 352.558594 128.394531 352.035156 127.660156 351.433594 C 126.929688 350.832031 126.261719 350.164062 125.660156 349.433594 C 125.0625 348.699219 124.535156 347.917969 124.089844 347.082031 C 123.644531 346.246094 123.28125 345.375 123.007812 344.46875 C 122.734375 343.5625 122.550781 342.636719 122.457031 341.691406 C 122.363281 340.75 122.363281 339.808594 122.457031 338.863281 C 122.785156 335.511719 123.199219 332.171875 123.691406 328.839844 C 124.1875 325.511719 124.761719 322.191406 125.417969 318.890625 C 126.074219 315.585938 126.8125 312.300781 127.632812 309.035156 C 128.449219 305.769531 129.347656 302.523438 130.324219 299.300781 C 131.304688 296.078125 132.359375 292.882812 133.492188 289.710938 C 134.628906 286.542969 135.839844 283.402344 137.128906 280.289062 C 138.417969 277.179688 139.78125 274.101562 141.222656 271.058594 C 142.660156 268.011719 144.175781 265.003906 145.761719 262.035156 C 147.351562 259.066406 149.007812 256.136719 150.742188 253.246094 C 152.472656 250.359375 154.273438 247.515625 156.144531 244.714844 C 158.015625 241.914062 159.953125 239.164062 161.960938 236.457031 C 163.964844 233.753906 166.035156 231.097656 168.171875 228.496094 C 170.308594 225.894531 172.507812 223.34375 174.769531 220.847656 C 177.03125 218.355469 179.351562 215.914062 181.734375 213.535156 C 184.117188 211.152344 186.554688 208.832031 189.046875 206.570312 C 191.542969 204.308594 194.09375 202.109375 196.695312 199.972656 C 199.300781 197.835938 201.953125 195.765625 204.660156 193.761719 C 207.363281 191.753906 210.117188 189.816406 212.914062 187.945312 C 215.714844 186.074219 218.558594 184.273438 221.449219 182.542969 C 224.335938 180.808594 227.265625 179.152344 230.234375 177.5625 C 233.207031 175.976562 236.210938 174.460938 239.257812 173.023438 C 242.300781 171.582031 245.378906 170.21875 248.488281 168.929688 C 251.601562 167.640625 254.742188 166.429688 257.914062 165.296875 C 261.082031 164.160156 264.28125 163.105469 267.503906 162.128906 C 270.726562 161.148438 273.96875 160.253906 277.238281 159.433594 C 280.503906 158.617188 283.789062 157.878906 287.089844 157.222656 C 290.394531 156.5625 293.710938 155.988281 297.042969 155.496094 C 300.371094 155 303.714844 154.589844 307.066406 154.257812 C 310.417969 153.929688 313.773438 153.679688 317.136719 153.515625 C 320.5 153.351562 323.867188 153.269531 327.234375 153.269531 C 330.601562 153.269531 333.96875 153.351562 337.332031 153.515625 C 340.695312 153.679688 344.050781 153.929688 347.402344 154.257812 Z M 347.402344 154.257812 " fill-opacity="1" fill-rule="nonzero"/></g></g></g><g clip-path="url(#48fd53f90b)"><g clip-path="url(#1239d12b8a)"><g clip-path="url(#5af65dd80a)"><path fill="#025ed9" d="M 355.210938 74.996094 C 356.148438 75.085938 357.066406 75.269531 357.96875 75.542969 C 358.871094 75.816406 359.738281 76.175781 360.570312 76.621094 C 361.402344 77.066406 362.179688 77.585938 362.910156 78.183594 C 363.636719 78.78125 364.300781 79.445312 364.898438 80.175781 C 365.496094 80.902344 366.019531 81.683594 366.460938 82.511719 C 366.90625 83.34375 367.265625 84.210938 367.539062 85.113281 C 367.8125 86.015625 367.996094 86.933594 368.085938 87.871094 C 368.179688 88.8125 368.179688 89.75 368.085938 90.6875 C 367.996094 91.625 367.8125 92.542969 367.539062 93.445312 C 367.265625 94.347656 366.90625 95.214844 366.460938 96.046875 C 366.015625 96.878906 365.496094 97.65625 364.898438 98.386719 C 364.300781 99.113281 363.636719 99.777344 362.910156 100.375 C 362.179688 100.972656 361.402344 101.492188 360.570312 101.9375 C 359.738281 102.382812 358.871094 102.742188 357.96875 103.015625 C 357.066406 103.289062 356.148438 103.472656 355.210938 103.5625 C 354.273438 103.65625 353.335938 103.65625 352.394531 103.5625 C 348.214844 103.15625 344.027344 102.855469 339.832031 102.652344 C 335.640625 102.453125 331.441406 102.355469 327.242188 102.359375 C 323.042969 102.367188 318.84375 102.472656 314.652344 102.683594 C 310.457031 102.894531 306.269531 103.207031 302.089844 103.625 C 297.914062 104.039062 293.746094 104.558594 289.59375 105.175781 C 285.4375 105.796875 281.304688 106.519531 277.183594 107.34375 C 273.066406 108.164062 268.96875 109.089844 264.898438 110.113281 C 260.824219 111.136719 256.777344 112.257812 252.761719 113.480469 C 248.742188 114.703125 244.757812 116.019531 240.804688 117.4375 C 236.851562 118.855469 232.933594 120.367188 229.054688 121.976562 C 225.175781 123.585938 221.339844 125.289062 217.542969 127.085938 C 213.746094 128.882812 210 130.773438 206.296875 132.753906 C 202.59375 134.734375 198.941406 136.804688 195.339844 138.964844 C 191.738281 141.125 188.191406 143.371094 184.699219 145.707031 C 181.207031 148.039062 177.773438 150.457031 174.402344 152.960938 C 171.027344 155.460938 167.71875 158.042969 164.472656 160.707031 C 161.226562 163.371094 158.046875 166.113281 154.933594 168.933594 C 151.824219 171.753906 148.78125 174.648438 145.8125 177.617188 C 142.84375 180.585938 139.945312 183.628906 137.125 186.738281 C 134.304688 189.847656 131.5625 193.027344 128.894531 196.273438 C 126.230469 199.519531 123.644531 202.828125 121.140625 206.199219 C 118.640625 209.570312 116.21875 213.003906 113.886719 216.492188 C 111.550781 219.984375 109.300781 223.53125 107.140625 227.128906 C 104.980469 230.730469 102.90625 234.382812 100.925781 238.085938 C 98.941406 241.789062 97.054688 245.535156 95.253906 249.332031 C 93.457031 253.125 91.75 256.964844 90.140625 260.84375 C 88.53125 264.722656 87.015625 268.636719 85.597656 272.589844 C 84.179688 276.542969 82.859375 280.527344 81.632812 284.542969 C 80.410156 288.5625 79.289062 292.605469 78.261719 296.679688 C 77.238281 300.753906 76.3125 304.847656 75.488281 308.964844 C 74.664062 313.082031 73.941406 317.21875 73.320312 321.371094 C 72.699219 325.527344 72.179688 329.691406 71.761719 333.871094 C 71.667969 334.8125 71.484375 335.730469 71.210938 336.636719 C 70.9375 337.539062 70.578125 338.40625 70.132812 339.238281 C 69.6875 340.074219 69.164062 340.855469 68.566406 341.582031 C 67.96875 342.3125 67.304688 342.976562 66.574219 343.578125 C 65.84375 344.175781 65.0625 344.699219 64.230469 345.144531 C 63.398438 345.585938 62.53125 345.945312 61.625 346.222656 C 60.722656 346.496094 59.800781 346.679688 58.859375 346.769531 C 57.921875 346.863281 56.980469 346.863281 56.042969 346.769531 C 55.101562 346.679688 54.179688 346.496094 53.277344 346.222656 C 52.375 345.945312 51.507812 345.585938 50.675781 345.140625 C 49.839844 344.699219 49.058594 344.175781 48.332031 343.578125 C 47.601562 342.976562 46.9375 342.3125 46.335938 341.582031 C 45.738281 340.855469 45.214844 340.074219 44.769531 339.238281 C 44.324219 338.40625 43.964844 337.539062 43.691406 336.636719 C 43.417969 335.730469 43.234375 334.8125 43.144531 333.871094 C 43.050781 332.929688 43.050781 331.992188 43.144531 331.050781 C 43.609375 326.40625 44.191406 321.777344 44.886719 317.160156 C 45.582031 312.542969 46.390625 307.945312 47.308594 303.371094 C 48.230469 298.792969 49.261719 294.242188 50.402344 289.714844 C 51.546875 285.1875 52.800781 280.691406 54.164062 276.226562 C 55.527344 271.761719 56.996094 267.332031 58.578125 262.9375 C 60.15625 258.546875 61.84375 254.191406 63.636719 249.882812 C 65.429688 245.570312 67.328125 241.308594 69.328125 237.089844 C 71.332031 232.871094 73.433594 228.707031 75.640625 224.589844 C 77.84375 220.476562 80.148438 216.417969 82.554688 212.417969 C 84.957031 208.414062 87.460938 204.472656 90.058594 200.59375 C 92.65625 196.714844 95.34375 192.902344 98.128906 189.152344 C 100.914062 185.40625 103.789062 181.726562 106.75 178.121094 C 109.714844 174.515625 112.765625 170.980469 115.902344 167.523438 C 119.039062 164.066406 122.257812 160.6875 125.5625 157.386719 C 128.863281 154.089844 132.246094 150.871094 135.707031 147.738281 C 139.164062 144.601562 142.699219 141.554688 146.308594 138.59375 C 149.917969 135.632812 153.597656 132.761719 157.347656 129.980469 C 161.097656 127.199219 164.914062 124.507812 168.792969 121.914062 C 172.675781 119.320312 176.617188 116.824219 180.621094 114.421875 C 184.625 112.019531 188.6875 109.71875 192.800781 107.515625 C 196.917969 105.3125 201.085938 103.210938 205.304688 101.214844 C 209.523438 99.214844 213.789062 97.320312 218.101562 95.53125 C 222.414062 93.742188 226.765625 92.058594 231.160156 90.480469 C 235.554688 88.90625 239.988281 87.4375 244.453125 86.078125 C 248.917969 84.71875 253.414062 83.46875 257.941406 82.328125 C 262.472656 81.1875 267.023438 80.160156 271.601562 79.242188 C 276.179688 78.328125 280.777344 77.523438 285.394531 76.832031 C 290.011719 76.140625 294.640625 75.5625 299.289062 75.097656 C 303.933594 74.632812 308.585938 74.28125 313.25 74.042969 C 317.910156 73.808594 322.578125 73.683594 327.246094 73.675781 C 331.914062 73.667969 336.582031 73.773438 341.246094 73.992188 C 345.90625 74.214844 350.5625 74.546875 355.210938 74.996094 Z M 355.210938 74.996094 " fill-opacity="1" fill-rule="nonzero"/></g></g></g><g clip-path="url(#92cdcdf808)"><g clip-path="url(#ed392d866c)"><path fill="#025ed9" d="M 141.644531 277.394531 L 161.871094 277.394531 L 161.871094 297.621094 L 141.644531 297.621094 Z M 141.644531 277.394531 " fill-opacity="1" fill-rule="nonzero"/></g></g></svg>