<svg width="49" height="49" viewBox="0 0 49 49" fill="none" xmlns="http://www.w3.org/2000/svg">
<path d="M39.2594 34.6612V15.0484C40.6562 14.5564 41.6594 13.222 41.6594 11.6548C41.6594 9.66761 40.0466 8.05481 38.0594 8.05481C36.4898 8.05481 35.1578 9.05801 34.6658 10.4548H15.053C14.561 9.05801 13.2266 8.05481 11.6594 8.05481C9.66977 8.05481 8.05937 9.66761 8.05937 11.6548C8.05937 13.222 9.06017 14.5564 10.4594 15.0484V34.6612C9.06017 35.1532 8.05937 36.4876 8.05937 38.0548C8.05937 40.042 9.66977 41.6548 11.6594 41.6548C13.2266 41.6548 14.561 40.6516 15.053 39.2548H34.6658C35.1578 40.6516 36.4898 41.6548 38.0594 41.6548C40.0466 41.6548 41.6594 40.042 41.6594 38.0548C41.6594 36.4876 40.6562 35.1532 39.2594 34.6612ZM38.0594 10.4548C38.7218 10.4548 39.2594 10.9924 39.2594 11.6548C39.2594 12.3172 38.7218 12.8548 38.0594 12.8548C37.397 12.8548 36.8594 12.3172 36.8594 11.6548C36.8594 10.9924 37.397 10.4548 38.0594 10.4548ZM11.6594 10.4548C12.3218 10.4548 12.8594 10.9924 12.8594 11.6548C12.8594 12.3172 12.3218 12.8548 11.6594 12.8548C10.997 12.8548 10.4594 12.3172 10.4594 11.6548C10.4594 10.9924 10.997 10.4548 11.6594 10.4548ZM11.6594 39.2548C10.997 39.2548 10.4594 38.7172 10.4594 38.0548C10.4594 37.3924 10.997 36.8548 11.6594 36.8548C12.3218 36.8548 12.8594 37.3924 12.8594 38.0548C12.8594 38.7172 12.3218 39.2548 11.6594 39.2548ZM34.6658 36.8548H15.053C14.693 35.8324 13.8818 35.0212 12.8594 34.6612V15.0484C13.8818 14.6884 14.693 13.8772 15.053 12.8548H34.6658C35.0258 13.8772 35.8346 14.6884 36.8594 15.0484V34.6612C35.8346 35.0212 35.0258 35.8324 34.6658 36.8548ZM38.0594 39.2548C37.397 39.2548 36.8594 38.7172 36.8594 38.0548C36.8594 37.3924 37.397 36.8548 38.0594 36.8548C38.7218 36.8548 39.2594 37.3924 39.2594 38.0548C39.2594 38.7172 38.7218 39.2548 38.0594 39.2548Z" fill="#696969"/>
</svg>
