<svg width="20" height="20" viewBox="0 0 20 20" fill="none" xmlns="http://www.w3.org/2000/svg">
<path fill-rule="evenodd" clip-rule="evenodd" d="M11.5 4C11.5 4.08112 11.4936 4.16074 11.4812 4.23836L14.4979 5.88384C14.7635 5.6452 15.1148 5.5 15.5 5.5C16.3284 5.5 17 6.17157 17 7C17 7.6531 16.5826 8.20872 16 8.41464V11.5854C16.5826 11.7913 17 12.3469 17 13C17 13.8284 16.3284 14.5 15.5 14.5C15.1148 14.5 14.7635 14.3548 14.4979 14.1162L11.4812 15.7616C11.4936 15.8393 11.5 15.9189 11.5 16C11.5 16.8284 10.8284 17.5 10 17.5C9.17157 17.5 8.5 16.8284 8.5 16C8.5 15.9189 8.50644 15.8393 8.51884 15.7616L5.50212 14.1162C5.23649 14.3548 4.8852 14.5 4.5 14.5C3.67157 14.5 3 13.8284 3 13C3 12.3469 3.4174 11.7913 4 11.5854V8.41465C3.4174 8.20873 3 7.65311 3 7C3 6.17157 3.67157 5.5 4.5 5.5C4.8852 5.5 5.23649 5.6452 5.50212 5.88385L8.51884 4.23836C8.50644 4.16074 8.5 4.08112 8.5 4C8.5 3.17157 9.17157 2.5 10 2.5C10.8284 2.5 11.5 3.17157 11.5 4ZM11.0021 5.11615C10.8574 5.24618 10.6872 5.34847 10.5 5.41464V7.55001C10.3385 7.51722 10.1712 7.5 10 7.5C9.82878 7.5 9.66157 7.51721 9.50002 7.55V5.41465C9.31279 5.34848 9.14262 5.24619 8.99788 5.11615L5.98117 6.76164C5.99356 6.83926 6 6.91888 6 7C6 7.08112 5.99356 7.16073 5.98117 7.23835L8.99789 8.88384C9.26352 8.64519 9.61481 8.5 10 8.5C10.3852 8.5 10.7365 8.6452 11.0021 8.88385L14.0188 7.23838C14.0064 7.16074 14 7.08112 14 7C14 6.91888 14.0064 6.83926 14.0188 6.76163L11.0021 5.11615ZM5.50213 8.11615C5.35739 8.24618 5.18723 8.34847 5 8.41465V11.5854C5.18723 11.6515 5.35739 11.7538 5.50213 11.8839L7.60959 10.7343C7.70958 11.0602 7.8744 11.3578 8.08899 11.6119L5.98117 12.7616C5.99356 12.8393 6 12.9189 6 13C6 13.0811 5.99356 13.1607 5.98117 13.2384L8.99788 14.8838C9.14262 14.7538 9.31278 14.6515 9.5 14.5854V11.4146C8.9174 11.2087 8.5 10.6531 8.5 10C8.5 9.91888 8.50644 9.83926 8.51884 9.76162L5.50213 8.11615ZM10.5 14.5854C10.6872 14.6515 10.8574 14.7538 11.0021 14.8838L14.0188 13.2384C14.0064 13.1607 14 13.0811 14 13C14 12.9189 14.0064 12.8393 14.0188 12.7616L11.911 11.6119C12.1256 11.3578 12.2904 11.0602 12.3904 10.7343L14.4979 11.8838C14.6426 11.7538 14.8128 11.6515 15 11.5853V8.41465C14.8128 8.34848 14.6426 8.24619 14.4979 8.11616L11.4812 9.76165C11.4936 9.83927 11.5 9.91888 11.5 10C11.5 10.6531 11.0826 11.2087 10.5 11.4146V14.5854ZM10 4.5C10.2761 4.5 10.5 4.27614 10.5 4C10.5 3.72386 10.2761 3.5 10 3.5C9.72386 3.5 9.5 3.72386 9.5 4C9.5 4.27614 9.72386 4.5 10 4.5ZM15.5 7.5C15.7761 7.5 16 7.27614 16 7C16 6.72386 15.7761 6.5 15.5 6.5C15.2239 6.5 15 6.72386 15 7C15 7.27614 15.2239 7.5 15.5 7.5ZM16 13C16 13.2761 15.7761 13.5 15.5 13.5C15.2239 13.5 15 13.2761 15 13C15 12.7239 15.2239 12.5 15.5 12.5C15.7761 12.5 16 12.7239 16 13ZM10 16.5C10.2761 16.5 10.5 16.2761 10.5 16C10.5 15.7239 10.2761 15.5 10 15.5C9.72386 15.5 9.5 15.7239 9.5 16C9.5 16.2761 9.72386 16.5 10 16.5ZM5 13C5 13.2761 4.77614 13.5 4.5 13.5C4.22386 13.5 4 13.2761 4 13C4 12.7239 4.22386 12.5 4.5 12.5C4.77614 12.5 5 12.7239 5 13ZM4.5 7.5C4.77614 7.5 5 7.27614 5 7C5 6.72386 4.77614 6.5 4.5 6.5C4.22386 6.5 4 6.72386 4 7C4 7.27614 4.22386 7.5 4.5 7.5ZM10.5 10C10.5 10.2761 10.2761 10.5 10 10.5C9.72386 10.5 9.5 10.2761 9.5 10C9.5 9.72386 9.72386 9.5 10 9.5C10.2761 9.5 10.5 9.72386 10.5 10Z" fill="#212124"/>
</svg>
