<svg width="20" height="20" viewBox="0 0 20 20" fill="none" xmlns="http://www.w3.org/2000/svg">
<path fill-rule="evenodd" clip-rule="evenodd" d="M16.375 7.625V6.375H17.625C17.835 6.375 18 6.21 18 6C18 5.79 17.835 5.625 17.625 5.625H16.375V4.375C16.375 4.165 16.21 4 16 4C15.79 4 15.625 4.165 15.625 4.375V5.625H14.375C14.165 5.625 14 5.79 14 6C14 6.21 14.165 6.375 14.375 6.375H15.625V7.625C15.625 7.835 15.79 8 16 8C16.21 8 16.375 7.835 16.375 7.625ZM9.21611 11.1221L8.48244 15.6041C8.42665 15.9431 8.85506 16.1411 9.08032 15.8801L14.6529 9.42211C14.8445 9.20111 14.6855 8.86011 14.3929 8.86011L10.7392 8.86411L11.5045 4.39911C11.5624 4.05811 11.1329 3.85811 10.9066 4.12011L5.34564 10.5651C5.15511 10.7861 5.31406 11.1271 5.60669 11.1271L9.21611 11.1221Z" fill="#212124"/>
</svg>
