<svg width="20" height="20" viewBox="0 0 20 20" fill="none" xmlns="http://www.w3.org/2000/svg">
<path d="M15.6129 13.375C15.8267 13.375 16 13.5429 16 13.75C16 14.9926 14.9601 16 13.6774 16C13.4636 16 13.2903 15.8321 13.2903 15.625C13.2903 15.4179 13.4636 15.25 13.6774 15.25C14.5326 15.25 15.2258 14.5784 15.2258 13.75C15.2258 13.5429 15.3991 13.375 15.6129 13.375ZM4.3871 13.375C4.60088 13.375 4.77419 13.5429 4.77419 13.75C4.77419 14.5784 5.46743 15.25 6.32258 15.25C6.53637 15.25 6.70968 15.4179 6.70968 15.625C6.70968 15.8321 6.53637 16 6.32258 16C5.03985 16 4 14.9926 4 13.75C4 13.5429 4.17331 13.375 4.3871 13.375ZM13.6774 13.375C13.8912 13.375 14.0645 13.5429 14.0645 13.75C14.0645 13.9571 13.8912 14.125 13.6774 14.125C13.4636 14.125 13.2903 13.9571 13.2903 13.75C13.2903 13.5429 13.4636 13.375 13.6774 13.375ZM6.32258 13.375C6.53637 13.375 6.70968 13.5429 6.70968 13.75C6.70968 13.9571 6.53637 14.125 6.32258 14.125C6.10879 14.125 5.93548 13.9571 5.93548 13.75C5.93548 13.5429 6.10879 13.375 6.32258 13.375ZM9.80645 6.25C11.9443 6.25 13.6774 7.92893 13.6774 10C13.6774 12.0711 11.9443 13.75 9.80645 13.75C7.66858 13.75 5.93548 12.0711 5.93548 10C5.93548 7.92893 7.66858 6.25 9.80645 6.25ZM9.80645 7C8.09615 7 6.70968 8.34315 6.70968 10C6.70968 11.6569 8.09615 13 9.80645 13C11.5168 13 12.9032 11.6569 12.9032 10C12.9032 8.34315 11.5168 7 9.80645 7ZM9.80645 8.5C10.6616 8.5 11.3548 9.17157 11.3548 10C11.3548 10.8284 10.6616 11.5 9.80645 11.5C8.9513 11.5 8.25806 10.8284 8.25806 10C8.25806 9.17157 8.9513 8.5 9.80645 8.5ZM9.80645 9.25C9.37888 9.25 9.03226 9.58579 9.03226 10C9.03226 10.4142 9.37888 10.75 9.80645 10.75C10.234 10.75 10.5806 10.4142 10.5806 10C10.5806 9.58579 10.234 9.25 9.80645 9.25ZM13.6774 5.875C13.8912 5.875 14.0645 6.04289 14.0645 6.25C14.0645 6.45711 13.8912 6.625 13.6774 6.625C13.4636 6.625 13.2903 6.45711 13.2903 6.25C13.2903 6.04289 13.4636 5.875 13.6774 5.875ZM13.6774 4C14.9601 4 16 5.00736 16 6.25C16 6.45711 15.8267 6.625 15.6129 6.625C15.3991 6.625 15.2258 6.45711 15.2258 6.25C15.2258 5.42157 14.5326 4.75 13.6774 4.75C13.4636 4.75 13.2903 4.58211 13.2903 4.375C13.2903 4.16789 13.4636 4 13.6774 4ZM6.32258 5.875C6.53637 5.875 6.70968 6.04289 6.70968 6.25C6.70968 6.45711 6.53637 6.625 6.32258 6.625C6.10879 6.625 5.93548 6.45711 5.93548 6.25C5.93548 6.04289 6.10879 5.875 6.32258 5.875ZM6.32258 4C6.53637 4 6.70968 4.16789 6.70968 4.375C6.70968 4.58211 6.53637 4.75 6.32258 4.75C5.46743 4.75 4.77419 5.42157 4.77419 6.25C4.77419 6.45711 4.60088 6.625 4.3871 6.625C4.17331 6.625 4 6.45711 4 6.25C4 5.00736 5.03985 4 6.32258 4Z" fill="#212124"/>
</svg>
