<svg width="20" height="20" viewBox="0 0 20 20" fill="none" xmlns="http://www.w3.org/2000/svg">
<path fill-rule="evenodd" clip-rule="evenodd" d="M5.95502 4.15238C6.15028 3.95712 6.15028 3.64054 5.95502 3.44527C5.75976 3.25001 5.44317 3.25001 5.24791 3.44527L2.14791 6.54527C1.95265 6.74054 1.95265 7.05712 2.14791 7.25238L5.14791 10.2524C5.34317 10.4476 5.65976 10.4476 5.85502 10.2524C6.05028 10.0571 6.05028 9.74054 5.85502 9.54527L3.60857 7.29883L17.5015 7.29883C17.7776 7.29883 18.0015 7.07497 18.0015 6.79883C18.0015 6.52269 17.7776 6.29883 17.5015 6.29883L3.80857 6.29883L5.95502 4.15238ZM16.1944 13.498L2.50146 13.498C2.22532 13.498 2.00146 13.2742 2.00146 12.998C2.00146 12.7219 2.22532 12.498 2.50146 12.498L16.3944 12.498L14.1479 10.2516C13.9526 10.0563 13.9526 9.73976 14.1479 9.54449C14.3432 9.34923 14.6598 9.34923 14.855 9.54449L17.855 12.5445C18.0503 12.7398 18.0503 13.0563 17.855 13.2516L14.755 16.3516C14.5598 16.5469 14.2432 16.5469 14.0479 16.3516C13.8526 16.1563 13.8526 15.8398 14.0479 15.6445L16.1944 13.498Z" fill="#212124"/>
</svg>
