<svg width="18" height="12" viewBox="0 0 18 12" fill="none" xmlns="http://www.w3.org/2000/svg">
<g id="Icon">
<path id="Union" fill-rule="evenodd" clip-rule="evenodd" d="M5.51446 0.406021C5.74149 0.607826 5.76194 0.955465 5.56013 1.1825L1.48493 5.7671L5.56013 10.3517C5.76194 10.5787 5.74149 10.9264 5.51446 11.1282C5.28743 11.33 4.93979 11.3095 4.73798 11.0825L0.0131836 5.7671L4.73798 0.451696C4.93979 0.224665 5.28743 0.204216 5.51446 0.406021ZM6.90902 5.76709C6.90902 6.3746 6.41654 6.86709 5.80902 6.86709C5.20151 6.86709 4.70902 6.3746 4.70902 5.76709C4.70902 5.15958 5.20151 4.66709 5.80902 4.66709C6.41654 4.66709 6.90902 5.15958 6.90902 5.76709ZM10.099 5.76709C10.099 6.3746 9.60654 6.86709 8.99902 6.86709C8.39151 6.86709 7.89902 6.3746 7.89902 5.76709C7.89902 5.15958 8.39151 4.66709 8.99902 4.66709C9.60654 4.66709 10.099 5.15958 10.099 5.76709ZM12.299 6.86709C12.9065 6.86709 13.399 6.3746 13.399 5.76709C13.399 5.15958 12.9065 4.66709 12.299 4.66709C11.6915 4.66709 11.199 5.15958 11.199 5.76709C11.199 6.3746 11.6915 6.86709 12.299 6.86709ZM12.2179 1.1825C12.0161 0.955465 12.0366 0.607826 12.2636 0.406021C12.4906 0.204216 12.8383 0.224665 13.0401 0.451696L17.7649 5.7671L13.0401 11.0825C12.8383 11.3095 12.4906 11.33 12.2636 11.1282C12.0366 10.9264 12.0161 10.5787 12.2179 10.3517L16.2931 5.7671L12.2179 1.1825Z" fill="#838691"/>
</g>
</svg>
