<svg width="20" height="20" viewBox="0 0 20 20" fill="none" xmlns="http://www.w3.org/2000/svg">
<path fill-rule="evenodd" clip-rule="evenodd" d="M6.25903 7.84152C6.20629 8.35738 6.23183 8.87826 6.33479 9.38649C5.06691 8.97483 4.0542 9.01271 4.0542 9.01271V7.52754C4.79733 7.56318 5.53549 7.6683 6.25903 7.84152ZM4.0542 4.36282C5.22805 4.41762 6.3923 4.60147 7.52592 4.91104C7.16592 5.31091 6.87064 5.7646 6.65076 6.25567C5.15861 5.80015 4.0542 5.76227 4.0542 5.76227V4.36282ZM4.0542 16V13.6008C4.0542 13.6008 6.49826 13.6885 6.49826 16H4.0542ZM13.7587 12.914C14.2601 12.6486 14.7144 12.3024 15.1033 11.8894C15.9396 14.1311 15.9456 16 15.9456 16H14.4564C14.3248 14.8458 14.0826 13.8231 13.7587 12.914ZM4.0542 12.015V10.5308C9.62709 10.8278 9.64204 16 9.64204 16H8.16683C7.60067 11.9611 4.0542 12.015 4.0542 12.015ZM10.6159 13.4323C10.8561 13.4672 11.1023 13.4862 11.3535 13.4862C11.6502 13.4857 11.9463 13.4597 12.2386 13.4084C12.7081 14.8557 12.7121 16 12.7121 16H11.2369C11.1242 15.0092 10.9049 14.163 10.6159 13.4323ZM14.4406 11.4529C13.6218 12.2717 12.5114 12.7316 11.3535 12.7316C10.1956 12.7316 9.08513 12.2717 8.26638 11.4529C7.44763 10.6342 6.98767 9.5237 6.98767 8.36581C6.98767 7.20793 7.44763 6.09747 8.26638 5.27872C9.08513 4.45997 10.1956 4 11.3535 4C12.5114 4 13.6218 4.45997 14.4406 5.27872C15.2593 6.09747 15.7193 7.20793 15.7193 8.36581C15.7193 9.5237 15.2593 10.6342 14.4406 11.4529ZM13.4372 6.00567H9.70556V6.96327H12.244L10.116 11.3865H11.2408L13.4372 6.82647V6.00567Z" fill="#212124"/>
</svg>
