<svg width="20" height="20" viewBox="0 0 20 20" fill="none" xmlns="http://www.w3.org/2000/svg">
<path fill-rule="evenodd" clip-rule="evenodd" d="M10 3C13.86 3 17 6.14 17 10C17 13.86 13.86 17 10 17C6.14 17 3 13.86 3 10C3 6.14 6.14 3 10 3ZM10 2C5.582 2 2 5.582 2 10C2 14.418 5.582 18 10 18C14.418 18 18 14.418 18 10C18 5.582 14.418 2 10 2ZM7.92871 10.7858C7.65271 10.7858 7.42871 10.5618 7.42871 10.2858C7.42871 8.59184 8.80671 7.21484 10.4997 7.21484C10.7757 7.21484 10.9997 7.43884 10.9997 7.71484C10.9997 7.99084 10.7757 8.21484 10.4997 8.21484C9.35771 8.21484 8.42871 9.14384 8.42871 10.2858C8.42871 10.5618 8.20471 10.7858 7.92871 10.7858ZM14 10C14 7.794 12.206 6 10 6C7.794 6 6 7.794 6 10C6 12.206 7.794 14 10 14C12.206 14 14 12.206 14 10ZM5 10C5 7.239 7.239 5 10 5C12.761 5 15 7.239 15 10C15 12.761 12.761 15 10 15C7.239 15 5 12.761 5 10Z" fill="#212124"/>
</svg>
