<svg width="20" height="20" viewBox="0 0 20 20" fill="none" xmlns="http://www.w3.org/2000/svg">
<path fill-rule="evenodd" clip-rule="evenodd" d="M12.0001 10V5C12.0001 3.89543 11.1046 3 10.0001 3C8.8955 3 8.00007 3.89543 8.00007 5V10C8.00007 11.1046 8.8955 12 10.0001 12C11.1046 12 12.0001 11.1046 12.0001 10ZM10.0001 2C8.34322 2 7.00007 3.34315 7.00007 5V10C7.00007 11.6569 8.34322 13 10.0001 13C11.6569 13 13.0001 11.6569 13.0001 10V5C13.0001 3.34315 11.6569 2 10.0001 2ZM10.4995 14.9754C12.8622 14.7411 14.7412 12.862 14.9755 10.4993C15.0027 10.2245 14.7762 10 14.5001 10C14.2239 10 14.0033 10.225 13.9692 10.499C13.7236 12.4726 12.0402 14 10.0001 14C7.95992 14 6.2765 12.4726 6.03089 10.499C5.99679 10.225 5.77621 10 5.50007 10C5.22393 10 4.99744 10.2245 5.02469 10.4993C5.25894 12.862 7.13795 14.7411 9.50067 14.9754C9.50027 14.9835 9.50007 14.9917 9.50007 15V17.5C9.50007 17.7761 9.72393 18 10.0001 18C10.2762 18 10.5001 17.7761 10.5001 17.5V15C10.5001 14.9917 10.4999 14.9835 10.4995 14.9754Z" fill="#212124"/>
</svg>
