<svg width="20" height="20" viewBox="0 0 20 20" fill="none" xmlns="http://www.w3.org/2000/svg">
<path fill-rule="evenodd" clip-rule="evenodd" d="M16.9824 9.5C16.7261 5.86737 13.6979 3 10.0001 3C6.13411 3 3.00012 6.13398 3.00012 9.99995C3.00012 13.8659 6.13411 16.9999 10.0001 16.9999C13.6979 16.9999 16.726 14.1326 16.9824 10.5H11.4146C11.2087 11.0825 10.6531 11.4999 10.0001 11.4999C9.17167 11.4999 8.50012 10.8284 8.50012 9.99995C8.50012 9.17155 9.17167 8.5 10.0001 8.5C10.6532 8.5 11.2088 8.91741 11.4147 9.5H16.9824ZM17.9847 9.5C17.7266 5.31464 14.2504 2 10.0001 2C5.58182 2 2.00012 5.5817 2.00012 9.99995C2.00012 14.4182 5.58182 17.9999 10.0001 17.9999C14.2504 17.9999 17.7265 14.6853 17.9847 10.5H18V9.99995V9.5H17.9847ZM10.0001 9.5C9.72396 9.5 9.50012 9.72384 9.50012 9.99995C9.50012 10.2761 9.72396 10.4999 10.0001 10.4999C10.2762 10.4999 10.5 10.2761 10.5 9.99995C10.5 9.72384 10.2762 9.5 10.0001 9.5Z" fill="#212124"/>
</svg>
