<svg width="20" height="20" viewBox="0 0 20 20" fill="none" xmlns="http://www.w3.org/2000/svg">
<path d="M13.5 12C13.5 13.933 11.933 15.5 10 15.5C8.067 15.5 6.5 13.933 6.5 12C6.5 11.5613 6.70932 10.8692 7.08277 10.0191C7.4472 9.18963 7.937 8.27663 8.4325 7.42246C8.92705 6.56993 9.42231 5.78449 9.79433 5.21167C9.86811 5.09806 9.93699 4.9929 10 4.89732C10.063 4.9929 10.1319 5.09806 10.2057 5.21167C10.5777 5.78449 11.073 6.56993 11.5675 7.42246C12.063 8.27663 12.5528 9.18963 12.9172 10.0191C13.2907 10.8692 13.5 11.5613 13.5 12Z" stroke="#212124"/>
</svg>
