<svg width="20" height="20" viewBox="0 0 20 20" fill="none" xmlns="http://www.w3.org/2000/svg">
<path fill-rule="evenodd" clip-rule="evenodd" d="M14.5 9.25C14.5 6.355 12.145 4 9.25 4C6.355 4 4 6.355 4 9.25C4 12.145 6.355 14.5 9.25 14.5C10.498 14.5 11.707 14.055 12.654 13.246L12.973 12.974L13.246 12.655C14.055 11.708 14.5 10.498 14.5 9.25ZM3 9.25C3 5.798 5.798 3 9.25 3C12.702 3 15.5 5.798 15.5 9.25C15.5 10.797 14.939 12.212 14.007 13.304C14.019 13.313 14.031 13.324 14.043 13.336L16.853 16.146C17.049 16.342 17.049 16.658 16.853 16.853C16.756 16.951 16.628 17 16.5 17C16.372 17 16.244 16.951 16.146 16.853L13.336 14.043C13.324 14.031 13.313 14.019 13.304 14.007C12.214 14.937 10.797 15.5 9.25 15.5C5.798 15.5 3 12.702 3 9.25ZM9.25 5.25C9.52614 5.25 9.75 5.47386 9.75 5.75V8.75H12.75C13.0261 8.75 13.25 8.97386 13.25 9.25C13.25 9.52614 13.0261 9.75 12.75 9.75H9.75V12.75C9.75 13.0261 9.52614 13.25 9.25 13.25C8.97386 13.25 8.75 13.0261 8.75 12.75V9.75H5.75C5.47386 9.75 5.25 9.52614 5.25 9.25C5.25 8.97386 5.47386 8.75 5.75 8.75H8.75V5.75C8.75 5.47386 8.97386 5.25 9.25 5.25Z" fill="#212124"/>
</svg>
